<svg width="596" height="363" viewBox="0 0 596 363" fill="none" xmlns="http://www.w3.org/2000/svg">
<g filter="url(#filter0_d_308_5955)">
<path d="M8.50002 48.8029V48.7873L76.6654 4.5H586.697V268.104L482.344 350H8.50002V349.991V349.933V349.872V349.809V349.742V349.672V349.6V349.524V349.445V349.363V349.279V349.191V349.101V349.007V348.911V348.811V348.709V348.604V348.496V348.385V348.271V348.154V348.035V347.912V347.787V347.659V347.528V347.394V347.258V347.118V346.976V346.831V346.684V346.533V346.38V346.224V346.065V345.903V345.739V345.572V345.403V345.23V345.055V344.877V344.697V344.514V344.328V344.14V343.949V343.755V343.559V343.36V343.158V342.954V342.747V342.538V342.326V342.112V341.895V341.675V341.453V341.228V341.001V340.772V340.539V340.305V340.068V339.828V339.586V339.341V339.094V338.845V338.593V338.338V338.082V337.822V337.561V337.297V337.03V336.761V336.49V336.217V335.941V335.663V335.382V335.099V334.814V334.527V334.237V333.945V333.65V333.354V333.055V332.753V332.45V332.144V331.836V331.526V331.214V330.899V330.582V330.263V329.942V329.619V329.293V328.965V328.636V328.304V327.969V327.633V327.295V326.954V326.612V326.267V325.92V325.572V325.221V324.868V324.513V324.156V323.797V323.435V323.072V322.707V322.34V321.971V321.6V321.227V320.852V320.475V320.096V319.715V319.332V318.948V318.561V318.172V317.782V317.39V316.995V316.599V316.201V315.802V315.4V314.996V314.591V314.184V313.775V313.364V312.952V312.537V312.121V311.703V311.284V310.862V310.439V310.014V309.588V309.159V308.729V308.298V307.864V307.429V306.992V306.554V306.114V305.672V305.229V304.784V304.337V303.889V303.439V302.987V302.534V302.079V301.623V301.165V300.706V300.245V299.783V299.319V298.853V298.386V297.918V297.448V296.976V296.503V296.029V295.553V295.075V294.596V294.116V293.634V293.151V292.667V292.181V291.693V291.205V290.714V290.223V289.73V289.236V288.74V288.243V287.745V287.246V286.745V286.243V285.739V285.234V284.728V284.221V283.713V283.203V282.692V282.18V281.666V281.151V280.635V280.118V279.6V279.08V278.56V278.038V277.515V276.991V276.465V275.939V275.411V274.883V274.353V273.822V273.29V272.757V272.223V271.688V271.151V270.614V270.076V269.536V268.996V268.454V267.912V267.369V266.824V266.279V265.732V265.185V264.637V264.088V263.537V262.986V262.434V261.881V261.327V260.773V260.217V259.661V259.103V258.545V257.986V257.426V256.865V256.304V255.741V255.178V254.614V254.049V253.483V252.917V252.35V251.782V251.213V250.644V250.074V249.503V248.931V248.359V247.786V247.212V246.638V246.063V245.487V244.91V244.333V243.756V243.177V242.598V242.019V241.439V240.858V240.277V239.695V239.112V238.529V237.945V237.361V236.777V236.191V235.606V235.019V234.432V233.845V233.257V232.669V232.08V231.491V230.901V230.311V229.721V229.13V228.538V227.947V227.354V226.762V226.169V225.575V224.982V224.388V223.793V223.198V222.603V222.008V221.412V220.816V220.219V219.623V219.026V218.428V217.831V217.233V216.635V216.037V215.438V214.84V214.241V213.641V213.042V212.443V211.843V211.243V210.643V210.042V209.442V208.842V208.241V207.64V207.039V206.438V205.837V205.236V204.635V204.033V203.432V202.83V202.229V201.627V201.025V200.424V199.822V199.221V198.619V198.017V197.416V196.814V196.213V195.611V195.01V194.408V193.807V193.206V192.604V192.003V191.402V190.802V190.201V189.6V189V188.4V187.799V187.199V186.6V186V185.4V184.801V184.202V183.603V183.005V182.406V181.808V181.21V180.613V180.015V179.418V178.822V178.225V177.629V177.033V176.437V175.842V175.247V174.653V174.058V173.464V172.871V172.278V171.685V171.093V170.501V169.909V169.318V168.727V168.137V167.547V166.958V166.369V165.781V165.193V164.605V164.018V163.432V162.846V162.26V161.675V161.091V160.507V159.924V159.341V158.759V158.177V157.596V157.016V156.436V155.857V155.279V154.701V154.123V153.547V152.971V152.395V151.821V151.247V150.674V150.101V149.529V148.958V148.388V147.818V147.249V146.681V146.113V145.547V144.981V144.416V143.851V143.288V142.725V142.163V141.602V141.042V140.482V139.924V139.366V138.809V138.253V137.698V137.144V136.591V136.039V135.487V134.937V134.387V133.838V133.291V132.744V132.198V131.654V131.11V130.567V130.025V129.484V128.945V128.406V127.868V127.332V126.796V126.261V125.728V125.196V124.664V124.134V123.605V123.077V122.55V122.025V121.5V121.333V121.165V120.997V120.829V120.66V120.491V120.322V120.152V119.982V119.812V119.641V119.47V119.299V119.127V118.955V118.783V118.61V118.437V118.264V118.09V117.916V117.742V117.568V117.393V117.218V117.042V116.866V116.69V116.514V116.337V116.161V115.983V115.806V115.628V115.45V115.272V115.093V114.914V114.735V114.556V114.376V114.197V114.016V113.836V113.656V113.475V113.294V113.112V112.931V112.749V112.567V112.385V112.202V112.019V111.837V111.653V111.47V111.286V111.103V110.919V110.735V110.55V110.366V110.181V109.996V109.811V109.625V109.44V109.254V109.068V108.882V108.696V108.509V108.323V108.136V107.949V107.762V107.575V107.387V107.2V107.012V106.824V106.636V106.448V106.26V106.072V105.883V105.694V105.506V105.317V105.128V104.939V104.749V104.56V104.37V104.181V103.991V103.801V103.611V103.421V103.231V103.041V102.851V102.66V102.47V102.279V102.089V101.898V101.707V101.516V101.325V101.134V100.943V100.752V100.561V100.37V100.179V99.9873V99.7959V99.6045V99.413V99.2215V99.03V98.8384V98.6469V98.4552V98.2636V98.0719V97.8802V97.6885V97.4968V97.3051V97.1133V96.9216V96.7298V96.5381V96.3463V96.1546V95.9629V95.7711V95.5794V95.3877V95.196V95.0044V94.8127V94.6211V94.4295V94.238V94.0465V93.855V93.6636V93.4722V93.2808V93.0895V92.8982V92.707V92.5159V92.3248V92.1338V91.9428V91.7519V91.5611V91.3704V91.1797V90.9891V90.7986V90.6081V90.4178V90.2275V90.0373V89.8473V89.6573V89.4674V89.2776V89.0879V88.8984V88.7089V88.5196V88.3303V88.1412V87.9522V87.7634V87.5746V87.386V87.1975V87.0092V86.821V86.6329V86.445V86.2572V86.0695V85.882V85.6947V85.5075V85.3205V85.1337V84.947V84.7604V84.5741V84.3879V84.2019V84.0161V83.8304V83.6449V83.4597V83.2746V83.0897V82.9049V82.7204V82.5361V82.352V82.1681V81.9844V81.8009V81.6176V81.4346V81.2517V81.0691V80.8867V80.7045V80.5226V80.3409V80.1594V79.9781V79.7971V79.6164V79.4359V79.2556V79.0756V78.8958V78.7163V78.537V78.3581V78.1793V78.0009V77.8227V77.6448V77.4671V77.2898V77.1127V76.9359V76.7594V76.5831V76.4072V76.2316V76.0562V75.8812V75.7064V75.532V75.3579V75.184V75.0105V74.8373V74.6645V74.4919V74.3197V74.1478V73.9762V73.8049V73.634V73.4635V73.2932V73.1233V72.9538V72.7846V72.6157V72.4472V72.2791V72.1113V71.9439V71.7768V71.6102V71.4438V71.2779V71.1123V70.9471V70.7823V70.6179V70.4538V70.2902V70.1269V69.964V69.8016V69.6395V69.4778V69.3165V69.1557V68.9952V68.8352V68.6755V68.5163V68.3575V68.1992V68.0412V67.8837V67.7267V67.57V67.4138V67.258V67.1027V66.9478V66.7934V66.6394V66.4859V66.3328V66.1802V66.0281V65.8764V65.7252V65.5744V65.4241V65.2743V65.125V64.9762V64.8278V64.6799V64.5325V64.3856V64.2392V64.0933V63.9479V63.803V63.6586V63.5147V63.3713V63.2285V63.0861V62.9443V62.8029V62.6621V62.5219V62.3821V62.2429V62.1043V61.9661V61.8285V61.6915V61.555V61.419V61.2836V61.1487V61.0144V60.8807V60.7475V60.6149V60.4828V60.3514V60.2204V60.0901V59.9604V59.8312V59.7026V59.5746V59.4472V59.3203V59.1941V59.0685V58.9434V58.819V58.6951V58.5719V58.4493V58.3273V58.2059V58.0851V57.965V57.8455V57.7266V57.6083V57.4907V57.3737V57.2573V57.1416V57.0265V56.912V56.7982V56.6851V56.5726V56.4608V56.3496V56.2391V56.1292V56.0201V55.9116V55.8037V55.6965V55.5901V55.4843V55.3791V55.2747V55.1709V55.0679V54.9655V54.8638V54.7629V54.6626V54.563V54.4642V54.366V54.2686V54.1719V54.0759V53.9806V53.8861V53.7922V53.6991V53.6068V53.5151V53.4242V53.3341V53.2446V53.156V53.0681V52.9809V52.8945V52.8088V52.7239V52.6398V52.5564V52.4738V52.3919V52.3108V52.2306V52.151V52.0723V51.9943V51.9172V51.8408V51.7652V51.6904V51.6164V51.5432V51.4708V51.3992V51.3284V51.2584V51.1893V51.1209V51.0534V50.9867V50.9208V50.8558V50.7915V50.7281V50.6656V50.6038V50.5429V50.4829V50.4237V50.3653V50.3078V50.2512V50.1954V50.1405V50.0864V50.0332V49.9808V49.9294V49.8788V49.829V49.7802V49.7322V49.6851V49.6389V49.5936V49.5492V49.5057V49.463V49.4213V49.3805V49.3406V49.3015V49.2634V49.2262V49.19V49.1546V49.1202V49.0867V49.0541V49.0224V48.9917V48.9619V48.933V48.9051V48.8781V48.8521V48.827V48.8029Z" stroke="white" shape-rendering="crispEdges"/>
</g>
<defs>
<filter id="filter0_d_308_5955" x="0" y="0" width="595.197" height="362.5" filterUnits="userSpaceOnUse" color-interpolation-filters="sRGB">
<feFlood flood-opacity="0" result="BackgroundImageFix"/>
<feColorMatrix in="SourceAlpha" type="matrix" values="0 0 0 0 0 0 0 0 0 0 0 0 0 0 0 0 0 0 127 0" result="hardAlpha"/>
<feOffset dy="4"/>
<feGaussianBlur stdDeviation="4"/>
<feComposite in2="hardAlpha" operator="out"/>
<feColorMatrix type="matrix" values="0 0 0 0 0 0 0 0 0 0 0 0 0 0 0 0 0 0 0.25 0"/>
<feBlend mode="normal" in2="BackgroundImageFix" result="effect1_dropShadow_308_5955"/>
<feBlend mode="normal" in="SourceGraphic" in2="effect1_dropShadow_308_5955" result="shape"/>
</filter>
</defs>
</svg>
