<svg width="1491" height="560" viewBox="0 0 1491 560" fill="none" xmlns="http://www.w3.org/2000/svg">
<path d="M0 416.565L116.478 269.434L1071.6 269.434V452.246L963.589 559.292H0L0 416.565Z" fill="url(#paint0_linear_1_6)" fill-opacity="0.2"/>
<path d="M151.606 283.812L268.084 136.681L1223.2 136.681V319.493L1115.19 426.539L151.606 426.539L151.606 283.812Z" fill="url(#paint1_linear_1_6)" fill-opacity="0.2"/>
<path d="M311.852 209.972L428.33 62.8418L1383.45 62.8418V245.654L1275.44 352.7L311.852 352.7V209.972Z" fill="url(#paint2_linear_1_6)" fill-opacity="0.2"/>
<path d="M418.684 147.131L535.161 0L1490.28 0V182.812L1382.27 289.858L418.684 289.858V147.131Z" fill="url(#paint3_linear_1_6)" fill-opacity="0.2"/>
<defs>
<linearGradient id="paint0_linear_1_6" x1="535.798" y1="269.434" x2="535.798" y2="559.292" gradientUnits="userSpaceOnUse">
<stop stop-color="#D9D9D9"/>
<stop offset="1" stop-color="#D9D9D9" stop-opacity="0"/>
</linearGradient>
<linearGradient id="paint1_linear_1_6" x1="687.404" y1="136.681" x2="687.404" y2="426.539" gradientUnits="userSpaceOnUse">
<stop stop-color="#D9D9D9"/>
<stop offset="1" stop-color="#D9D9D9" stop-opacity="0"/>
</linearGradient>
<linearGradient id="paint2_linear_1_6" x1="847.65" y1="62.8418" x2="847.65" y2="352.7" gradientUnits="userSpaceOnUse">
<stop stop-color="#D9D9D9"/>
<stop offset="1" stop-color="#D9D9D9" stop-opacity="0"/>
</linearGradient>
<linearGradient id="paint3_linear_1_6" x1="954.481" y1="0" x2="954.481" y2="289.858" gradientUnits="userSpaceOnUse">
<stop stop-color="#D9D9D9"/>
<stop offset="1" stop-color="#D9D9D9" stop-opacity="0"/>
</linearGradient>
</defs>
</svg>
