<svg width="456" height="66" viewBox="0 0 456 66" fill="none" xmlns="http://www.w3.org/2000/svg">
<path d="M3 17.0783L22.8568 3H453V47.9337L430.881 63H3V17.0783Z" stroke="white" stroke-width="6"/>
<path d="M30.465 40.164C31.0997 39.66 31.389 39.4267 31.333 39.464C33.1624 37.952 34.5997 36.7107 35.645 35.74C36.709 34.7693 37.605 33.752 38.333 32.688C39.061 31.624 39.425 30.588 39.425 29.58C39.425 28.8147 39.2477 28.2173 38.893 27.788C38.5384 27.3587 38.0064 27.144 37.297 27.144C36.5877 27.144 36.0277 27.4147 35.617 27.956C35.225 28.4787 35.029 29.2253 35.029 30.196H30.409C30.4464 28.6093 30.7824 27.284 31.417 26.22C32.0704 25.156 32.9197 24.372 33.965 23.868C35.029 23.364 36.205 23.112 37.493 23.112C39.7144 23.112 41.385 23.6813 42.505 24.82C43.6437 25.9587 44.213 27.4427 44.213 29.272C44.213 31.2693 43.5317 33.1267 42.169 34.844C40.8064 36.5427 39.0704 38.204 36.961 39.828H44.521V43.72H30.465V40.164ZM46.6291 33.5C46.6291 30.2893 47.2451 27.76 48.4771 25.912C49.7278 24.064 51.7345 23.14 54.4971 23.14C57.2598 23.14 59.2571 24.064 60.4891 25.912C61.7398 27.76 62.3651 30.2893 62.3651 33.5C62.3651 36.748 61.7398 39.296 60.4891 41.144C59.2571 42.992 57.2598 43.916 54.4971 43.916C51.7345 43.916 49.7278 42.992 48.4771 41.144C47.2451 39.296 46.6291 36.748 46.6291 33.5ZM57.6611 33.5C57.6611 31.6147 57.4558 30.168 57.0451 29.16C56.6345 28.1333 55.7851 27.62 54.4971 27.62C53.2091 27.62 52.3598 28.1333 51.9491 29.16C51.5385 30.168 51.3331 31.6147 51.3331 33.5C51.3331 34.7693 51.4078 35.824 51.5571 36.664C51.7065 37.4853 52.0051 38.1573 52.4531 38.68C52.9198 39.184 53.6011 39.436 54.4971 39.436C55.3931 39.436 56.0651 39.184 56.5131 38.68C56.9798 38.1573 57.2878 37.4853 57.4371 36.664C57.5865 35.824 57.6611 34.7693 57.6611 33.5ZM64.7268 40.164C65.3614 39.66 65.6508 39.4267 65.5948 39.464C67.4241 37.952 68.8614 36.7107 69.9068 35.74C70.9708 34.7693 71.8668 33.752 72.5948 32.688C73.3228 31.624 73.6868 30.588 73.6868 29.58C73.6868 28.8147 73.5094 28.2173 73.1548 27.788C72.8001 27.3587 72.2681 27.144 71.5588 27.144C70.8494 27.144 70.2894 27.4147 69.8788 27.956C69.4868 28.4787 69.2908 29.2253 69.2908 30.196H64.6708C64.7081 28.6093 65.0441 27.284 65.6788 26.22C66.3321 25.156 67.1814 24.372 68.2268 23.868C69.2908 23.364 70.4668 23.112 71.7548 23.112C73.9761 23.112 75.6468 23.6813 76.7668 24.82C77.9054 25.9587 78.4748 27.4427 78.4748 29.272C78.4748 31.2693 77.7934 33.1267 76.4308 34.844C75.0681 36.5427 73.3321 38.204 71.2228 39.828H78.7828V43.72H64.7268V40.164ZM80.7229 40.164C81.3575 39.66 81.6469 39.4267 81.5909 39.464C83.4202 37.952 84.8575 36.7107 85.9029 35.74C86.9669 34.7693 87.8629 33.752 88.5909 32.688C89.3189 31.624 89.6829 30.588 89.6829 29.58C89.6829 28.8147 89.5055 28.2173 89.1509 27.788C88.7962 27.3587 88.2642 27.144 87.5549 27.144C86.8455 27.144 86.2855 27.4147 85.8749 27.956C85.4829 28.4787 85.2869 29.2253 85.2869 30.196H80.6669C80.7042 28.6093 81.0402 27.284 81.6749 26.22C82.3282 25.156 83.1775 24.372 84.2229 23.868C85.2869 23.364 86.4629 23.112 87.7509 23.112C89.9722 23.112 91.6429 23.6813 92.7629 24.82C93.9015 25.9587 94.4709 27.4427 94.4709 29.272C94.4709 31.2693 93.7895 33.1267 92.4269 34.844C91.0642 36.5427 89.3282 38.204 87.2189 39.828H94.7789V43.72H80.7229V40.164Z" fill="white"/>
<line x1="119" y1="3" x2="119" y2="63" stroke="white" stroke-width="6"/>
<path d="M141.208 40.848V42.6H154.696V40.848H141.208ZM140.296 33.816V43.92H142.12V35.52H153.784V43.848H155.68V33.816H140.296ZM150.376 25.512C152.728 27.648 155.464 30.672 156.64 32.712L158.2 31.584C156.952 29.592 154.12 26.616 151.768 24.576L150.376 25.512ZM139 31.776C139 31.416 140.2 30.864 140.2 30.864V30.816C142.744 28.704 145.432 25.728 147.736 22.536L145.936 21.768C144.064 24.744 141.256 27.792 140.368 28.584C139.576 29.376 138.952 29.904 138.4 30C138.616 30.48 138.928 31.392 139 31.776ZM139 31.776C139.96 31.44 141.4 31.392 155.872 30.576C155.776 30.192 155.704 29.472 155.68 28.968L140.32 29.688L138.976 30.36L139 31.776ZM171.952 26.208V27.216H176.416V26.208H171.952ZM171.952 27.984V28.992H176.416V27.984H171.952ZM168.328 39.096V40.32H180.712V39.096H168.328ZM171.232 24.264V25.368H177.04V24.264H171.232ZM173.08 30.864H175.216V32.448H173.08V30.864ZM171.904 29.856V33.456H176.44V29.856H171.904ZM168.808 36.72V37.896H180.832V34.296H167.392V35.472H179.152V36.72H168.808ZM168.28 36.72C167.992 37.92 167.608 39.312 167.224 40.32H168.928C169.264 39.36 169.648 37.992 169.96 36.72H168.28ZM180.184 39.096V39.312C179.776 41.16 179.392 42.072 178.912 42.408C178.672 42.576 178.408 42.6 177.88 42.6C177.28 42.6 175.696 42.576 174.16 42.432C174.424 42.816 174.64 43.416 174.664 43.824C176.2 43.92 177.664 43.92 178.36 43.92C179.176 43.896 179.68 43.824 180.184 43.464C180.832 42.96 181.312 41.904 181.768 39.84C181.864 39.6 181.888 39.096 181.888 39.096H180.184ZM161.392 23.328C162.616 24.096 164.056 25.224 164.728 26.064L165.856 24.72C165.136 23.904 163.648 22.848 162.448 22.152L161.392 23.328ZM160.864 29.784C162.088 30.456 163.624 31.536 164.344 32.304L165.4 30.936C164.656 30.168 163.12 29.16 161.872 28.536L160.864 29.784ZM161.32 42.696L162.928 43.632C163.888 41.424 164.968 38.448 165.76 35.952L164.344 35.016C163.456 37.704 162.208 40.824 161.32 42.696ZM169.528 27.312C170.008 28.104 170.464 29.136 170.656 29.808L171.592 29.376C171.424 28.752 170.92 27.768 170.44 27.024L169.528 27.312ZM169.72 30.384C170.104 31.248 170.464 32.352 170.56 33.072L171.472 32.688C171.4 31.992 171.016 30.912 170.608 30.072L169.72 30.384ZM166.36 30.528C166.192 31.584 165.928 32.664 165.448 33.504C165.712 33.624 166.168 33.936 166.36 34.104C166.816 33.24 167.176 31.944 167.416 30.768L166.36 30.528ZM166.144 26.496C166.144 26.28 166.912 25.992 166.912 25.992V25.968C167.704 25.056 168.544 23.712 169.12 22.392L167.968 21.984C167.584 23.256 166.72 24.648 166.456 24.96C166.24 25.32 166.024 25.536 165.736 25.584C165.88 25.824 166.096 26.304 166.144 26.496ZM166.144 26.496C166.456 26.4 166.984 26.28 169.48 26.088C169.48 25.848 169.528 25.416 169.6 25.104L166.864 25.272L166.12 25.632L166.144 26.496ZM166.168 29.76C166.168 29.544 167.032 29.232 167.032 29.232V29.208C168.4 27.984 169.768 26.232 170.848 24.528L169.744 24.024C168.856 25.752 167.368 27.552 166.888 28.008C166.48 28.464 166.144 28.776 165.784 28.848C165.928 29.088 166.12 29.568 166.168 29.76ZM166.168 29.76C166.528 29.616 167.128 29.472 170.8 28.992C170.704 28.752 170.632 28.32 170.584 28.056L166.816 28.488L166.12 28.872L166.168 29.76ZM167.92 30.696C168.232 31.656 168.424 32.904 168.448 33.672L169.432 33.336C169.408 32.616 169.192 31.416 168.88 30.48L167.92 30.696ZM172.84 22.344C173.224 22.944 173.656 23.76 173.8 24.312L175.12 23.928C174.928 23.424 174.472 22.608 174.088 22.032L172.84 22.344ZM180.736 27.264C181.216 28.104 181.744 29.184 181.96 29.88L182.872 29.472C182.68 28.824 182.128 27.744 181.6 26.952L180.736 27.264ZM180.904 30.312C181.36 31.32 181.792 32.64 181.912 33.48L182.848 33.048C182.704 32.256 182.272 30.984 181.768 30L180.904 30.312ZM177.544 30.408C177.376 31.464 177.112 32.568 176.632 33.384C176.92 33.528 177.376 33.816 177.568 34.008C178 33.12 178.384 31.824 178.624 30.648L177.544 30.408ZM177.352 26.448C177.352 26.232 178.12 25.92 178.12 25.92V25.896C178.912 24.984 179.752 23.64 180.304 22.368L179.176 21.936C178.768 23.208 177.928 24.576 177.664 24.912C177.424 25.248 177.232 25.488 176.944 25.512C177.088 25.752 177.28 26.256 177.352 26.448ZM177.352 26.448C177.64 26.328 178.192 26.232 180.688 26.04C180.664 25.8 180.712 25.344 180.784 25.032L178.048 25.2L177.328 25.584L177.352 26.448ZM177.376 29.712C177.376 29.496 178.216 29.184 178.216 29.184V29.136C179.608 27.912 180.952 26.184 182.032 24.456L180.928 23.976C180.04 25.704 178.576 27.504 178.096 27.936C177.688 28.416 177.352 28.704 176.968 28.776C177.112 29.016 177.328 29.496 177.376 29.712ZM177.376 29.712C177.736 29.568 178.336 29.424 182.008 28.92C181.912 28.704 181.816 28.272 181.792 27.984L178 28.44L177.328 28.8L177.376 29.712ZM179.08 30.672C179.416 31.704 179.632 33.048 179.656 33.888L180.64 33.552C180.64 32.76 180.376 31.464 180.016 30.432L179.08 30.672ZM187.864 30.12V31.632H206.656V30.12H187.864ZM187.072 24.072V25.536H205.912V24.072H187.072ZM191.44 34.128V35.592H205.312V34.128H191.44ZM191.392 37.728V39.192H204.76V37.728H191.392ZM189.112 41.64V43.152H207.04V41.64H189.112ZM197.032 32.064V42.648H198.784V32.064H197.032ZM186.928 30.12V35.184C186.928 37.608 186.712 40.752 184.744 43.008C185.128 43.224 185.848 43.824 186.112 44.16C188.296 41.688 188.704 37.944 188.704 35.208V30.12H186.928ZM191.944 32.04C191.224 33.96 190.072 35.808 188.728 37.08C189.04 37.416 189.544 38.256 189.688 38.592C191.248 37.104 192.64 34.8 193.48 32.496L191.944 32.04ZM189.88 26.424C194.32 27.408 199.912 29.136 202.984 30.312L204.136 29.232C200.968 28.104 195.376 26.448 191.08 25.44L189.88 26.424ZM201.928 25.344C199.048 26.952 193.408 28.44 189.112 29.232C189.4 29.496 189.88 30 190.12 30.312C194.368 29.448 199.816 27.936 203.2 26.136L201.928 25.344ZM194.68 22.272C195.424 23.16 196.24 24.384 196.624 25.176L197.968 24.432C197.584 23.64 196.72 22.464 195.952 21.624L194.68 22.272ZM209.512 36.672V38.184H230.536V36.672H209.512ZM209.608 26.136V27.624H230.44V26.136H209.608ZM210.568 30.288V31.752H229.576V30.288H210.568ZM211.792 33.504V34.896H228.4V33.504H211.792ZM219.064 30.936V43.944H220.84V30.936H219.064ZM216.88 21.84V26.856H218.56V21.84H216.88ZM221.416 21.84V26.784H223.144V21.84H221.416ZM226.984 22.128C226.576 23.232 225.784 24.816 225.136 25.824L226.6 26.304C227.272 25.368 228.112 23.952 228.832 22.632L226.984 22.128ZM223.888 27.552C223.552 28.248 222.904 29.328 222.424 30.048L223.912 30.504C224.464 29.856 225.136 28.968 225.736 28.056L223.888 27.552ZM211.552 22.632C212.344 23.76 213.208 25.296 213.544 26.256L215.152 25.656C214.816 24.672 213.928 23.16 213.088 22.08L211.552 22.632ZM214.552 27.936C215.104 28.728 215.656 29.808 215.848 30.48L217.576 30.024C217.336 29.328 216.784 28.296 216.232 27.528L214.552 27.936ZM216.544 39.408C214.96 40.44 211.888 41.4 209.392 41.808C209.752 42.144 210.256 42.72 210.496 43.152C212.992 42.6 216.16 41.352 217.888 40.056L216.544 39.408ZM222.4 40.272C224.704 41.088 227.776 42.336 229.36 43.104L230.488 41.976C228.856 41.208 225.76 40.056 223.504 39.288L222.4 40.272ZM246.424 41.112C249.112 42 251.848 43.104 253.456 43.92L255.04 42.72C253.24 41.904 250.312 40.824 247.648 39.96L246.424 41.112ZM234.424 23.664V25.104H253.744V23.664H234.424ZM233.224 29.328V30.912H254.8V29.328H233.224ZM243.016 32.64V39.552H244.816V32.64H243.016ZM237.736 36.6H250.432V38.568H237.736V36.6ZM237.736 33.384H250.432V35.328H237.736V33.384ZM236.008 32.064V39.888H252.232V32.064H236.008ZM240.04 39.96C238.48 40.968 235.408 42.096 232.936 42.72C233.344 43.056 233.92 43.632 234.208 43.968C236.632 43.344 239.68 42.168 241.648 40.992L240.04 39.96ZM238.912 21.816V28.128H249.232V21.816H247.408V26.808H240.64V21.816H238.912ZM261.784 29.04V30.72H274.192V29.04H261.784ZM258.712 33.984V35.64H277.312V33.984H258.712ZM257.632 41.568V43.224H278.392V41.568H257.632ZM266.968 29.784V42.408H268.888V29.784H266.968ZM260.752 36.792C261.664 38.16 262.6 40.032 262.96 41.208L264.544 40.536C264.16 39.36 263.152 37.512 262.216 36.192L260.752 36.792ZM273.568 36.168C272.968 37.536 271.888 39.456 271.048 40.632L272.416 41.232C273.304 40.104 274.384 38.376 275.272 36.84L273.568 36.168ZM268.696 22.872L267.184 23.616C269.752 26.664 274.216 29.64 278.056 31.056C278.344 30.576 278.896 29.88 279.328 29.472C275.464 28.272 270.976 25.56 268.696 22.872ZM267.976 21.624C265.672 25.2 261.256 28.032 256.72 29.496C257.176 29.928 257.68 30.624 257.944 31.128C262.648 29.424 267.04 26.352 269.632 22.392L267.976 21.624ZM281.32 30.816V32.664H302.848V30.816H281.32ZM291.064 21.864V43.92H292.984V21.864H291.064ZM310.648 21.768C309.472 25.008 307.48 28.128 305.2 30.12C305.656 30.36 306.4 30.96 306.76 31.272C308.992 29.112 311.128 25.776 312.448 22.224L310.648 21.768ZM310.264 24.744L309.4 26.496H325.744V24.744H310.264ZM309.088 30.192V37.56H310.888V31.872H325.216V30.192H309.088ZM305.128 36.648V38.4H326.872V36.648H305.128ZM316.288 25.656V43.944H318.136V25.656H316.288ZM334.864 37.176C333.616 38.88 331.6 40.656 329.704 41.784C330.16 42.048 330.928 42.648 331.288 42.96C333.112 41.712 335.224 39.744 336.664 37.824L334.864 37.176ZM343.288 37.896C345.208 39.36 347.584 41.472 348.712 42.768L350.248 41.712C349.024 40.392 346.624 38.376 344.704 36.96L343.288 37.896ZM339.304 34.992V41.712C339.304 42 339.208 42.072 338.824 42.096C338.416 42.144 337.12 42.144 335.656 42.072C335.944 42.576 336.256 43.344 336.352 43.872C338.104 43.872 339.328 43.848 340.12 43.56C340.912 43.272 341.128 42.768 341.128 41.736V34.992H339.304ZM345.112 21.864C341.656 23.472 335.488 24.984 330.04 25.992C330.256 26.376 330.52 27.024 330.592 27.48C336.112 26.496 342.4 25.08 346.432 23.28L345.112 21.864ZM331.096 36.888C331.096 36.552 332.392 36.144 332.392 36.144V36.096C336.856 34.368 341.536 31.992 345.976 28.872L344.584 27.696C340.624 30.672 335.464 33.312 333.856 34.008C332.392 34.68 331.312 35.064 330.544 35.16C330.736 35.64 331.024 36.528 331.096 36.888ZM331.096 36.888C332.008 36.552 333.376 36.432 347.824 35.376C347.824 34.992 347.824 34.296 347.872 33.816L332.296 34.872L331.048 35.52L331.096 36.888ZM332.392 31.848C332.392 31.512 333.616 31.032 333.616 31.032V30.984C336.064 29.952 338.632 28.392 341.032 26.544L339.424 25.536C337.408 27.336 334.672 28.968 333.808 29.4C333.016 29.808 332.392 30.072 331.864 30.12C332.056 30.6 332.32 31.488 332.392 31.848ZM332.392 31.848C333.016 31.632 333.976 31.536 342.208 31.032C342.232 30.672 342.328 30 342.424 29.544L333.424 30L332.368 30.552L332.392 31.848ZM343.912 31.56C345.688 33.24 347.776 35.592 348.784 37.056L350.32 36.12C349.288 34.68 347.224 32.472 345.4 30.816L343.912 31.56ZM366.304 24.6V37.728H368.056V24.6H366.304ZM372.136 22.296V41.592C372.136 42.024 371.968 42.168 371.512 42.192C371.08 42.192 369.592 42.216 367.96 42.168C368.224 42.672 368.488 43.464 368.608 43.944C370.792 43.968 372.088 43.92 372.88 43.608C373.6 43.32 373.936 42.792 373.936 41.568V22.296H372.136ZM356.92 28.32V30H363.448V28.32H356.92ZM353.416 23.088V24.768H365.368V23.088H353.416ZM355.216 33.384C356.992 34.464 359.296 36.024 360.424 37.032L361.336 35.52C360.184 34.56 357.856 33.072 356.056 32.064L355.216 33.384ZM362.776 28.32V28.728C361.672 35.784 358.384 40.32 354.016 42.648C354.424 42.936 355.096 43.584 355.36 43.992C359.8 41.448 363.28 36.504 364.6 28.656L363.472 28.248L363.136 28.32H362.776ZM357.76 23.88C357.016 27.6 355.312 32.04 352.528 34.68C352.888 34.992 353.464 35.544 353.776 35.88C356.776 33.024 358.552 28.368 359.584 24.216L357.76 23.88ZM386.296 36.912V38.448H397.096V36.912H386.296ZM387.4 28.488V30.072H395.608V28.488H387.4ZM385.432 32.16V44.016H386.968V33.696H396.976V32.16H385.432ZM389.104 32.856V43.416H390.424V32.856H389.104ZM392.608 32.856V43.416H393.928V32.856H392.608ZM396.184 32.16V42.048C396.184 42.24 396.136 42.312 395.968 42.312C395.776 42.312 395.248 42.312 394.624 42.288C394.816 42.744 394.984 43.392 395.056 43.824C395.992 43.824 396.664 43.8 397.144 43.536C397.6 43.272 397.696 42.816 397.696 42.048V32.16H396.184ZM391.408 21.744C389.848 24.672 386.608 27.72 383.656 29.16C384.064 29.592 384.52 30.336 384.76 30.84C387.784 29.112 391.072 25.824 392.824 22.68L391.408 21.744ZM392.128 23.016L390.688 23.568C392.248 26.448 395.128 29.232 397.96 30.504C398.248 30 398.824 29.256 399.256 28.872C396.448 27.84 393.568 25.392 392.128 23.016ZM377.8 29.112V30.552H383.656V29.112H377.8ZM377.8 32.256V33.696H383.656V32.256H377.8ZM376.96 25.92V27.432H384.304V25.92H376.96ZM378.448 35.472V36.984H382.312V40.968H378.448V42.48H383.824V35.472H378.448ZM377.68 35.472V43.608H379.192V35.472H377.68ZM379 22.464C379.672 23.448 380.44 24.816 380.8 25.704L382.264 24.84C381.904 24 381.112 22.728 380.416 21.744L379 22.464ZM401.248 27.72V29.424H407.752V27.72H401.248ZM403.936 22.128V38.208H405.64V22.128H403.936ZM400.84 38.904L401.44 40.728C403.456 39.96 405.976 38.928 408.4 37.944L408.064 36.312C405.4 37.296 402.688 38.328 400.84 38.904ZM407.344 24V25.368H422.68V24H407.344ZM406.72 41.976V43.368H422.896V41.976H406.72ZM413.008 29.544H416.92V30.72H413.008V29.544ZM411.712 28.584V31.704H418.24V28.584H411.712ZM410.008 27.576H420.016V32.664H410.008V27.576ZM408.496 26.424V33.84H421.6V26.424H408.496ZM410.92 38.376H418.936V39.744H410.92V38.376ZM410.92 35.976H418.936V37.32H410.92V35.976ZM409.24 34.872V40.872H420.664V34.872H409.24ZM412.984 22.272C413.584 23.016 414.208 24.072 414.472 24.792L415.984 24C415.696 23.304 415.072 22.32 414.448 21.576L412.984 22.272Z" fill="white"/>
</svg>
