<svg width="948" height="485" viewBox="0 0 948 485" fill="none" xmlns="http://www.w3.org/2000/svg">
<path d="M245 83.7533L311.304 0L855 0V104.065L793.518 165L245 165V83.7533Z" fill="url(#paint0_linear_31_4)"/>
<path d="M462.868 90.012V94.98H515.14V90.012H462.868ZM465.352 57.612V62.688H502.612V92.604H507.472V57.612H465.352ZM483.28 38.928V75.864C483.28 97.032 481.012 118.2 459.304 133.968C460.492 134.724 462.22 136.128 462.976 137.208C485.548 120.792 488.248 98.544 488.248 75.972V38.928H483.28ZM416.86 79.968V84.828H460.276V79.968H416.86ZM425.608 52.428V57.396H458.548V52.428H425.608ZM452.392 93.252V129.216H457.144V93.252H452.392ZM436.732 54.48V123.276H441.7V54.48H436.732ZM427.768 38.712C425.176 50.376 421.072 62.04 415.564 70.032C416.968 70.572 419.128 71.76 420.1 72.516C425.392 64.2 429.82 51.888 432.628 39.684L427.768 38.712ZM421.72 93.144V125.436H454.336V120.576H426.364V93.144H421.72ZM491.812 101.892C498.724 113.016 506.716 128.136 510.712 136.668L515.464 134.724C511.36 126.192 503.044 111.396 496.24 100.272L491.812 101.892ZM571.624 39.468C571.3 55.02 571.192 110.316 525.508 132.564C526.912 133.644 528.64 135.264 529.612 136.56C575.944 113.232 576.808 56.748 577.24 39.468H571.624ZM576.268 52.86L571.408 53.292C572.812 61.932 577.78 116.904 619.576 136.236C620.44 134.832 622.06 132.996 623.464 131.916C582.316 113.556 577.348 59.988 576.268 52.86ZM635.56 61.284V66.576H728.872V61.284H635.56ZM691.828 38.82V127.164C691.828 129.324 690.964 129.972 688.804 130.08C686.752 130.188 679.408 130.188 671.2 129.972C671.956 131.592 672.928 133.86 673.252 135.264C683.944 135.372 689.668 135.372 692.692 134.4C695.824 133.428 697.336 131.7 697.336 127.056V38.82H691.828ZM689.56 62.256C677.788 83.64 654.028 107.508 632.32 118.524C633.616 119.82 635.236 121.656 635.992 123.06C657.808 111.072 681.46 86.988 693.988 65.172L689.56 62.256ZM773.336 107.184H777.98L778.844 57.936L778.952 48.864H772.472L772.58 57.936L773.336 107.184ZM775.604 130.512C778.628 130.512 781.22 128.136 781.22 124.68C781.22 121.008 778.628 118.632 775.604 118.632C772.796 118.632 770.204 121.008 770.204 124.68C770.204 128.136 772.796 130.512 775.604 130.512Z" fill="url(#paint1_linear_31_4)"/>
<path d="M126 172.684L162.196 127L459 127V183.763L425.437 217H126V172.684Z" fill="url(#paint2_linear_31_4)"/>
<path d="M288.028 177.452V180.58H320.94V177.452H288.028ZM289.592 157.052V160.248H313.052V179.084H316.112V157.052H289.592ZM300.88 145.288V168.544C300.88 181.872 299.452 195.2 285.784 205.128C286.532 205.604 287.62 206.488 288.096 207.168C302.308 196.832 304.008 182.824 304.008 168.612V145.288H300.88ZM259.06 171.128V174.188H286.396V171.128H259.06ZM264.568 153.788V156.916H285.308V153.788H264.568ZM281.432 179.492V202.136H284.424V179.492H281.432ZM271.572 155.08V198.396H274.7V155.08H271.572ZM265.928 145.152C264.296 152.496 261.712 159.84 258.244 164.872C259.128 165.212 260.488 165.96 261.1 166.436C264.432 161.2 267.22 153.448 268.988 145.764L265.928 145.152ZM262.12 179.424V199.756H282.656V196.696H265.044V179.424H262.12ZM306.252 184.932C310.604 191.936 315.636 201.456 318.152 206.828L321.144 205.604C318.56 200.232 313.324 190.916 309.04 183.912L306.252 184.932ZM331.208 153.312V156.644H385.064V153.312H331.208ZM327.808 198.328V201.592H388.26V198.328H327.808ZM356.096 154.808V199.756H359.632V154.808H356.096ZM415.508 188.264H418.432L418.976 157.256L419.044 151.544H414.964L415.032 157.256L415.508 188.264ZM416.936 202.952C418.84 202.952 420.472 201.456 420.472 199.28C420.472 196.968 418.84 195.472 416.936 195.472C415.168 195.472 413.536 196.968 413.536 199.28C413.536 201.456 415.168 202.952 416.936 202.952Z" fill="url(#paint3_linear_31_4)"/>
<path d="M498 210.684L534.196 165L896.697 165V221.763L863.133 255H498V210.684Z" fill="url(#paint4_linear_31_4)"/>
<path d="M556.469 186.212V189H606.857V186.212H556.469ZM579.793 187.096V213.956H583.057V187.096H579.793ZM553.477 195.12V209.4H556.741V197.976H606.585V209.4H609.917V195.12H553.477ZM558.917 210.896L560.141 213.82C564.629 213.004 569.865 212.052 575.237 211.032L575.169 208.584C569.049 209.536 563.269 210.42 558.917 210.896ZM560.345 201.852C565.173 202.872 571.225 204.708 574.421 206.204L575.509 203.892C572.245 202.396 566.261 200.764 561.501 199.88L560.345 201.852ZM601.349 199.676C597.813 201.036 591.761 203.144 587.613 204.164L588.973 206.068C593.189 205.116 599.037 203.62 603.049 201.852L601.349 199.676ZM586.865 210.624C592.305 211.304 599.173 212.936 602.981 214.296L603.865 211.712C600.057 210.352 593.257 208.924 587.885 208.312L586.865 210.624ZM552.457 216.2V219.056H611.141V216.2H552.457ZM572.925 226.4V244.556H576.121V226.4H572.925ZM588.361 226.4V244.556H591.421V226.4H588.361ZM557.897 224.904V245.032H561.025V227.828H604.953V224.904H557.897ZM604.001 224.904V241.36C604.001 242.04 603.797 242.244 603.049 242.312C602.233 242.312 599.921 242.312 596.657 242.244C597.133 243.128 597.677 244.352 597.881 245.168C601.553 245.168 604.001 245.168 605.429 244.556C606.857 244.08 607.129 243.196 607.129 241.36V224.904H604.001ZM579.861 217.152C579.317 219.804 577.957 223.816 576.869 226.4L579.793 226.808C580.949 224.428 582.309 220.824 583.397 217.492L579.861 217.152ZM619.709 222.252V225.244H679.617V222.252H619.709ZM620.729 186.552V189.612H678.733V186.552H620.729ZM664.997 218.172C659.421 233.472 645.889 240.204 619.369 242.108C619.981 242.856 620.593 244.148 620.865 245.032C647.793 242.788 662.345 235.512 668.125 219.26L664.997 218.172ZM628.685 234.084C647.385 236.94 664.793 241.02 675.197 245.032L678.325 242.584C667.241 238.504 649.153 234.356 631.405 231.772L628.685 234.084ZM639.701 187.64V211.712H642.829V187.64H639.701ZM655.817 187.64V211.712H658.945V187.64H655.817ZM627.393 199.404H672.205V210.352H627.393V199.404ZM624.265 196.548V213.208H675.469V196.548H624.265ZM628.685 234.084H632.493C636.301 229.596 641.945 221.776 645.209 215.384L641.877 214.568C638.817 220.96 633.173 229.052 628.685 234.084ZM686.213 220.144L687.369 223.34C693.761 221.436 702.329 218.648 710.353 216.132L709.945 213.14C701.309 215.792 692.265 218.512 686.213 220.144ZM687.097 197.5V200.628H709.605V197.5H687.097ZM697.569 183.356V240.204C697.569 241.156 697.161 241.428 696.209 241.496C695.325 241.496 692.333 241.564 688.865 241.428C689.273 242.38 689.817 243.74 689.953 244.556C694.577 244.556 697.161 244.556 698.657 243.944C700.085 243.468 700.765 242.448 700.765 240.204V183.356H697.569ZM710.489 203.212L710.829 206.34L747.005 202.328L746.597 199.268L710.489 203.212ZM729.733 187.232C733.269 190.088 737.349 194.304 739.117 197.16L741.701 195.188C739.933 192.332 735.785 188.252 732.181 185.464L729.733 187.232ZM720.553 183.424C722.389 216.744 728.441 244.08 742.721 244.896C745.985 245.1 748.161 241.428 749.521 231.364C748.705 231.092 747.345 230.344 746.665 229.732C745.849 237.348 744.625 241.292 742.653 241.156C731.705 240.272 725.381 214.636 723.817 183.424H720.553ZM740.545 209.196C734.833 222.048 722.389 234.696 709.061 240.068C709.877 240.748 710.965 241.768 711.509 242.652C724.837 236.804 737.145 224.088 743.265 210.828L740.545 209.196ZM784.201 183.628C783.997 193.42 783.929 228.236 755.165 242.244C756.049 242.924 757.137 243.944 757.749 244.76C786.921 230.072 787.465 194.508 787.737 183.628H784.201ZM787.125 192.06L784.065 192.332C784.949 197.772 788.077 232.384 814.393 244.556C814.937 243.672 815.957 242.516 816.841 241.836C790.933 230.276 787.805 196.548 787.125 192.06ZM843.205 226.264H846.129L846.673 195.256L846.741 189.544H842.661L842.729 195.256L843.205 226.264ZM844.633 240.952C846.537 240.952 848.169 239.456 848.169 237.28C848.169 234.968 846.537 233.472 844.633 233.472C842.865 233.472 841.233 234.968 841.233 237.28C841.233 239.456 842.865 240.952 844.633 240.952Z" fill="url(#paint5_linear_31_4)"/>
<path d="M269 252.085L296.962 213L577 213V261.564L551.072 290H269V252.085Z" fill="url(#paint6_linear_31_4)"/>
<path d="M321.529 254.472V256.584H363.817V254.472H321.529ZM322.249 229.272V231.432H363.193V229.272H322.249ZM353.497 251.592C349.561 262.392 340.009 267.144 321.289 268.488C321.721 269.016 322.153 269.928 322.345 270.552C341.353 268.968 351.625 263.832 355.705 252.36L353.497 251.592ZM327.865 262.824C341.065 264.84 353.353 267.72 360.697 270.552L362.905 268.824C355.081 265.944 342.313 263.016 329.785 261.192L327.865 262.824ZM335.641 230.04V247.032H337.849V230.04H335.641ZM347.017 230.04V247.032H349.225V230.04H347.017ZM326.953 238.344H358.585V246.072H326.953V238.344ZM324.745 236.328V248.088H360.889V236.328H324.745ZM327.865 262.824H330.553C333.241 259.656 337.225 254.136 339.529 249.624L337.177 249.048C335.017 253.56 331.033 259.272 327.865 262.824ZM379.993 256.824V266.184C379.993 269.352 381.337 270.024 386.185 270.024C387.241 270.024 397.273 270.024 398.377 270.024C402.457 270.024 403.417 268.68 403.753 263.064C403.081 262.92 402.121 262.584 401.545 262.152C401.305 267.144 400.873 267.816 398.233 267.816C396.121 267.816 387.721 267.816 386.137 267.816C382.921 267.816 382.297 267.528 382.297 266.232V256.824H379.993ZM385.897 255.48C389.065 257.688 393.001 260.808 394.969 262.68L396.601 261C394.585 259.176 390.553 256.152 387.529 254.04L385.897 255.48ZM403.033 256.68C405.433 260.568 408.121 265.704 409.513 268.68L411.769 267.816C410.425 264.888 407.545 259.848 405.193 256.008L403.033 256.68ZM374.713 256.824C373.705 259.992 371.929 264.84 370.057 267.768L372.121 268.728C373.897 265.656 375.577 260.856 376.681 257.592L374.713 256.824ZM378.985 232.632V234.792H410.905V232.632H378.985ZM388.681 239.88V241.944H408.649V239.88H388.681ZM388.729 247.224V249.336H409.753V247.224H388.729ZM387.385 233.304V253.992H389.737V233.304H387.385ZM380.857 226.872C378.649 233.784 374.809 240.12 370.009 244.2C370.633 244.584 371.545 245.352 371.929 245.784C376.633 241.416 380.713 234.792 383.161 227.4L380.857 226.872ZM421.801 230.904V233.016H459.337V230.904H421.801ZM420.601 230.904V244.728C420.601 252.072 420.217 262.296 416.569 269.736C417.097 269.976 418.057 270.696 418.441 271.128C422.281 263.352 422.809 252.312 422.809 244.728V230.904H420.601ZM438.025 227.4C438.601 228.84 439.321 230.712 439.561 232.008L441.913 231.336C441.577 230.184 440.905 228.312 440.281 226.872L438.025 227.4ZM425.497 238.056V240.072H440.425V238.056H425.497ZM441.865 238.056V240.072H458.329V238.056H441.865ZM432.025 234.936V251.88H434.041V234.936H432.025ZM448.441 234.936V251.448H450.457V234.936H448.441ZM448.921 260.04C451.513 263.352 454.825 267.912 456.409 270.552L458.233 269.448C456.601 266.856 453.289 262.44 450.697 259.128L448.921 260.04ZM425.785 269.448C427.033 269.016 429.193 268.824 454.585 266.856C454.441 266.376 454.249 265.464 454.297 264.936L427.561 266.952L425.737 267.768L425.785 269.448ZM425.785 269.448C425.785 268.92 427.561 268.392 427.561 268.392V268.296C435.097 265.224 442.873 260.856 450.649 255.192L448.825 253.848C442.009 259.08 433.225 263.832 430.681 265.08C428.281 266.28 426.313 267.048 425.161 267.192C425.353 267.816 425.689 268.92 425.785 269.448ZM428.233 261.384C429.049 261.144 430.441 260.952 441.817 260.424C441.961 260.04 442.393 259.224 442.681 258.696L429.817 259.224L428.233 259.896V261.384ZM428.233 261.384C428.233 260.808 429.865 260.28 429.865 260.28V260.232C433.561 258.36 437.497 255.576 441.241 252.264L439.369 251.16C436.249 254.28 431.929 257.256 430.633 258.024C429.433 258.696 428.425 259.176 427.657 259.272C427.897 259.848 428.185 260.904 428.233 261.384ZM426.841 242.136V244.392C426.841 246.648 426.505 249.528 424.009 251.304C424.441 251.544 425.209 252.168 425.497 252.552C428.233 250.296 428.569 247.224 428.569 244.488V242.136H426.841ZM443.641 242.088V244.248C443.641 246.264 443.305 248.904 441.289 250.488C441.721 250.68 442.537 251.304 442.777 251.64C445.081 249.576 445.417 246.84 445.417 244.248V242.088H443.641ZM436.537 242.232V247.656C436.537 249.48 436.873 250.104 438.409 250.104C438.793 250.104 439.273 250.104 439.561 250.104C440.089 250.104 440.617 250.104 441.001 250.008C440.953 249.624 440.905 249.048 440.857 248.616C440.425 248.712 439.849 248.712 439.513 248.712C439.225 248.712 438.985 248.712 438.793 248.712C438.313 248.712 438.265 248.568 438.265 247.656V242.232H436.537ZM453.097 242.088V248.04C453.097 249.912 453.385 250.584 455.161 250.584C455.593 250.584 457.081 250.584 457.513 250.584C458.185 250.584 458.953 250.584 459.241 250.488C459.193 250.056 459.145 249.48 459.145 249.096C458.713 249.144 457.897 249.144 457.465 249.144C457.033 249.144 455.833 249.144 455.497 249.144C454.921 249.144 454.873 249.048 454.873 248.088V242.088H453.097ZM479.833 238.008V240.12H490.441V238.008H479.833ZM489.817 238.008V238.584C489.577 258.936 489.193 265.752 488.377 267.096C488.041 267.672 487.705 267.768 487.177 267.72C486.505 267.72 485.113 267.72 483.481 267.624C483.769 268.152 484.009 269.112 484.057 269.736C485.497 269.832 486.889 269.88 487.801 269.784C488.857 269.688 489.625 269.352 490.249 268.392C491.305 266.664 491.545 260.376 491.881 239.352C491.881 239.016 491.881 238.008 491.881 238.008H489.817ZM483.529 226.968C483.529 245.544 483.145 260.28 476.425 269.208C476.905 269.544 477.769 270.312 478.105 270.696C485.017 260.808 485.497 246.456 485.641 226.968H483.529ZM465.337 233.592V235.656H479.113V233.592H465.337ZM464.857 246.072V248.136H479.449V246.072H464.857ZM466.825 237.48C467.689 239.928 468.313 243.192 468.409 245.304L470.329 244.824C470.233 242.76 469.561 239.544 468.649 237.048L466.825 237.48ZM475.513 236.712C474.985 239.592 473.833 244.008 472.921 246.6L474.553 247.128C475.561 244.536 476.617 240.504 477.529 237.288L475.513 236.712ZM471.241 246.984V254.712C471.241 258.936 470.761 265.272 465.817 269.16C466.297 269.592 466.921 270.264 467.257 270.744C472.681 266.184 473.401 259.464 473.401 254.712V246.984H471.241ZM465.529 254.952V257.016H478.777V254.952H465.529ZM468.985 228.072C470.281 230.28 471.625 233.256 472.153 235.08L474.169 234.312C473.641 232.536 472.249 229.656 470.953 227.496L468.985 228.072ZM499.897 247.224V270.456H502.105V247.224H499.897ZM493.513 233.496V235.56H507.913V233.496H493.513ZM493.321 246.168V248.232H508.393V246.168H493.321ZM494.137 255.528V257.592H508.009V255.528H494.137ZM495.097 237.336C496.057 239.88 496.777 243.288 496.921 245.496L498.841 245.016C498.697 242.856 497.881 239.496 496.921 236.904L495.097 237.336ZM504.505 236.52C503.977 239.496 502.777 243.96 501.817 246.6L503.545 247.128C504.553 244.536 505.657 240.36 506.569 237.096L504.505 236.52ZM497.689 227.688C498.985 229.992 500.281 233.016 500.809 234.936L502.825 234.168C502.297 232.344 500.953 229.32 499.705 227.112L497.689 227.688ZM532.633 255.864H535.177C533.641 248.328 545.689 246.456 545.689 239.064C545.689 234.072 541.753 230.472 535.129 230.472C529.849 230.472 526.393 232.632 523.177 235.848L524.953 237.528C527.977 234.36 531.385 232.872 534.889 232.872C540.409 232.872 542.809 235.704 542.809 239.256C542.809 245.208 530.905 247.608 532.633 255.864ZM534.025 267.096C535.273 267.096 536.425 266.232 536.425 264.648C536.425 263.064 535.273 262.008 534.025 262.008C532.777 262.008 531.625 263.064 531.625 264.648C531.625 266.232 532.777 267.096 534.025 267.096Z" fill="url(#paint7_linear_31_4)"/>
<path d="M152 334.146L182.911 291H545V344.609L516.337 376H152V334.146Z" fill="url(#paint8_linear_31_4)"/>
<path d="M228.536 316.272C230.936 319.632 233.432 324.336 234.44 327.168L236.6 326.16C235.592 323.328 233 318.768 230.6 315.36L228.536 316.272ZM259.16 315.264C257.624 318.72 254.888 323.616 252.728 326.448L254.696 327.36C256.808 324.48 259.544 319.92 261.512 316.272L259.16 315.264ZM226.952 329.808V332.112H263.336V329.808H226.952ZM223.688 340.992V343.344H266.312V340.992H223.688ZM243.656 313.968V357.504H246.008V313.968H243.656ZM271.88 345.696V347.76H313.784V345.696H271.88ZM283.784 318.672V320.544H313.4V318.672H283.784ZM301.16 342.624V354.336C301.16 355.008 300.968 355.2 300.152 355.248C299.336 355.248 296.6 355.296 293.096 355.2C293.432 355.824 293.864 356.64 293.96 357.264C298.136 357.264 300.536 357.312 301.784 356.928C303.128 356.496 303.464 355.824 303.464 354.384V342.624H301.16ZM281.192 349.68C283.736 351.504 286.568 354.24 287.816 356.16L289.592 354.672C288.248 352.8 285.368 350.16 282.824 348.384L281.192 349.68ZM289.88 314.688C290.984 315.984 292.088 317.712 292.568 319.008L294.584 318.144C294.104 316.944 292.952 315.216 291.848 314.016L289.88 314.688ZM289.064 329.232H307.448V331.872H289.064V329.232ZM289.064 333.504H307.448V336.192H289.064V333.504ZM289.064 325.104H307.448V327.648H289.064V325.104ZM287 323.472V337.824H309.56V323.472H287ZM297.176 319.152C296.744 320.544 295.784 322.656 295.064 324.048L296.984 324.48C297.752 323.184 298.712 321.36 299.528 319.536L297.176 319.152ZM305.384 314.064C304.616 315.552 303.224 317.808 302.12 319.2L303.992 319.824C305.048 318.48 306.44 316.56 307.544 314.736L305.384 314.064ZM274.808 314.64C276.056 316.08 277.64 318.096 278.36 319.44L280.424 318.624C279.608 317.328 278.12 315.456 276.68 313.968L274.808 314.64ZM272.216 320.688V322.704H281.672V320.688H272.216ZM280.28 334.512L278.84 335.328C281.432 341.04 285.752 342 295.976 342C301.928 342 309.128 341.856 313.976 341.616C314.12 340.944 314.36 339.936 314.744 339.408C309.512 339.888 301.88 339.984 295.88 339.984C286.904 339.984 282.536 339.312 280.28 334.512ZM281.432 328.56V328.992C279.848 334.512 276.104 338.976 271.928 341.424C272.36 341.76 273.08 342.624 273.272 343.152C277.64 340.416 281.672 335.568 283.544 329.088L282.536 328.416L282.104 328.56H281.432ZM272.984 331.2C273.272 330.864 274.472 330.576 275.672 330.576H281.864V328.56H274.52L272.984 329.232V331.2ZM272.984 331.2C272.984 330.528 274.856 329.616 274.856 329.616C277.496 327.408 281.576 323.616 283.688 321.36L282.104 320.352L281.192 320.736V320.832C279.8 322.56 275.528 326.592 274.184 327.744C273.272 328.464 272.552 328.8 271.976 328.944C272.264 329.472 272.792 330.624 272.984 331.2ZM338.6 334.896V336.864H362.312V334.896H338.6ZM337.976 354.528V356.496H362.792V354.528H337.976ZM345.944 313.968V319.152H347.96V313.968H345.944ZM352.28 313.968V319.152H354.344V313.968H352.28ZM341.72 325.728H358.808V330H341.72V325.728ZM341.72 319.728H358.808V323.904H341.72V319.728ZM339.704 317.808V331.872H360.872V317.808H339.704ZM343.304 341.424H357.512V346.368H343.304V341.424ZM341.192 339.6V348.192H359.672V339.6H341.192ZM355.208 348.624C354.68 350.448 353.576 353.28 352.664 355.008L354.296 355.584C355.256 353.952 356.408 351.456 357.368 349.296L355.208 348.624ZM343.736 349.344C344.552 351.312 345.56 353.904 345.944 355.536L347.912 354.912C347.48 353.328 346.472 350.736 345.608 348.816L343.736 349.344ZM346.136 318.624V331.008H347.96V318.624H346.136ZM352.328 318.624V331.008H354.2V318.624H352.328ZM323.192 334.704V336.576H334.52V334.704H323.192ZM333.128 334.704V354.624C333.128 355.152 332.936 355.344 332.408 355.344C331.88 355.392 330.104 355.392 327.896 355.344C328.184 355.872 328.52 356.688 328.616 357.216C331.496 357.216 333.08 357.216 334.04 356.88C334.952 356.496 335.24 355.872 335.24 354.672V334.704H333.128ZM321.944 315.792V329.856H323.96V317.712H333.272V329.856H335.384V315.792H321.944ZM319.88 328.896V335.472H321.848V330.816H335.432V335.472H337.448V328.896H319.88ZM327.656 321.552V329.76H329.384V323.28H334.52V321.552H327.656ZM322.28 334.704V343.68C322.28 347.568 321.944 352.56 319.256 356.352C319.784 356.592 320.6 357.264 320.936 357.744C323.816 353.616 324.344 347.904 324.344 343.68V334.704H322.28ZM324.44 349.824L325.592 351.648C328.328 350.112 331.448 348.192 334.616 346.32L334.088 344.784C330.488 346.752 326.936 348.672 324.44 349.824ZM325.256 340.08C327.224 341.376 329.576 343.344 330.776 344.64L332.216 343.104C330.968 341.904 328.616 340.176 326.504 338.784L325.256 340.08ZM387.608 336.672V338.88H410.84V336.672H387.608ZM388.712 322.272V324.528H405.272V337.824H407.432V322.272H388.712ZM396.68 313.968V330.384C396.68 339.792 395.672 349.2 386.024 356.208C386.552 356.544 387.32 357.168 387.656 357.648C397.688 350.352 398.888 340.464 398.888 330.432V313.968H396.68ZM367.16 332.208V334.368H386.456V332.208H367.16ZM371.048 319.968V322.176H385.688V319.968H371.048ZM382.952 338.112V354.096H385.064V338.112H382.952ZM375.992 320.88V351.456H378.2V320.88H375.992ZM372.008 313.872C370.856 319.056 369.032 324.24 366.584 327.792C367.208 328.032 368.168 328.56 368.6 328.896C370.952 325.2 372.92 319.728 374.168 314.304L372.008 313.872ZM369.32 338.064V352.416H383.816V350.256H371.384V338.064H369.32ZM400.472 341.952C403.544 346.896 407.096 353.616 408.872 357.408L410.984 356.544C409.16 352.752 405.464 346.176 402.44 341.232L400.472 341.952ZM435.944 314.208C435.8 321.12 435.752 345.696 415.448 355.584C416.072 356.064 416.84 356.784 417.272 357.36C437.864 346.992 438.248 321.888 438.44 314.208H435.944ZM438.008 320.16L435.848 320.352C436.472 324.192 438.68 348.624 457.256 357.216C457.64 356.592 458.36 355.776 458.984 355.296C440.696 347.136 438.488 323.328 438.008 320.16ZM483.944 342.864H486.008L486.824 322.944L486.872 318.096H483.08L483.128 322.944L483.944 342.864ZM485 354.096C486.248 354.096 487.352 353.232 487.352 351.648C487.352 350.064 486.248 349.008 485 349.008C483.704 349.008 482.6 350.064 482.6 351.648C482.6 353.232 483.704 354.096 485 354.096Z" fill="url(#paint9_linear_31_4)"/>
<path d="M534 297.146L564.911 254L855.5 254V307.609L826.837 339H534V297.146Z" fill="url(#paint10_linear_31_4)"/>
<path d="M593.776 302.984L594.592 305.24C599.104 303.896 605.152 301.928 610.816 300.152L610.528 298.04C604.432 299.912 598.048 301.832 593.776 302.984ZM594.4 287V289.208H610.288V287H594.4ZM601.792 277.016V317.144C601.792 317.816 601.504 318.008 600.832 318.056C600.208 318.056 598.096 318.104 595.648 318.008C595.936 318.68 596.32 319.64 596.416 320.216C599.68 320.216 601.504 320.216 602.56 319.784C603.568 319.448 604.048 318.728 604.048 317.144V277.016H601.792ZM610.912 291.032L611.152 293.24L636.688 290.408L636.4 288.248L610.912 291.032ZM624.496 279.752C626.992 281.768 629.872 284.744 631.12 286.76L632.944 285.368C631.696 283.352 628.768 280.472 626.224 278.504L624.496 279.752ZM618.016 277.064C619.312 300.584 623.584 319.88 633.664 320.456C635.968 320.6 637.504 318.008 638.464 310.904C637.888 310.712 636.928 310.184 636.448 309.752C635.872 315.128 635.008 317.912 633.616 317.816C625.888 317.192 621.424 299.096 620.32 277.064H618.016ZM632.128 295.256C628.096 304.328 619.312 313.256 609.904 317.048C610.48 317.528 611.248 318.248 611.632 318.872C621.04 314.744 629.728 305.768 634.048 296.408L632.128 295.256ZM643.456 280.424V282.776H684.496V280.424H643.456ZM667.168 293.192C673.072 296.936 680.368 302.408 683.872 306.056L685.648 304.28C682 300.68 674.752 295.352 668.8 291.752L667.168 293.192ZM666.88 281.192C662.128 290.456 652.96 299.672 642.4 305.096C642.88 305.576 643.6 306.44 643.984 306.968C654.736 301.256 663.856 291.944 669.28 282.104L666.88 281.192ZM662.704 289.544V320.504H665.104V287.144L662.704 289.544ZM692.992 302.168V304.28H715.216V302.168H692.992ZM702.784 296.456V314.552H704.992V296.456H702.784ZM691.264 315.512L691.84 317.816C698.032 316.568 707.152 314.744 715.792 313.064L715.648 310.904C706.624 312.68 697.168 314.456 691.264 315.512ZM691.648 280.328V282.488H716.128V280.328H691.648ZM706.864 286.04C709.648 289.352 712.864 293.864 714.4 296.6L716.176 295.352C714.688 292.664 711.376 288.248 708.592 285.032L706.864 286.04ZM719.296 280.904V309.992H721.504V280.904H719.296ZM728.944 277.88V315.944C728.944 316.76 728.752 316.952 727.984 317C727.12 317.048 724.432 317.048 721.456 316.952C721.888 317.624 722.272 318.728 722.416 319.4C725.776 319.4 728.224 319.352 729.52 318.968C730.72 318.536 731.2 317.72 731.2 315.896V277.88H728.944ZM693.712 295.496C693.712 294.872 695.44 294.152 695.44 294.152V294.104C698.176 290.936 701.008 286.328 703.264 281.768L701.008 280.76C699.232 285.176 696.16 289.832 695.248 291.032C694.384 292.184 693.664 293.096 692.896 293.192C693.232 293.816 693.568 294.968 693.712 295.496ZM693.712 295.496C694.72 295.064 696.4 294.824 713.296 293.096C712.96 292.616 712.48 291.848 712.192 291.224L695.2 292.904L693.712 293.768V295.496ZM758.944 277.208C758.8 284.12 758.752 308.696 738.448 318.584C739.072 319.064 739.84 319.784 740.272 320.36C760.864 309.992 761.248 284.888 761.44 277.208H758.944ZM761.008 283.16L758.848 283.352C759.472 287.192 761.68 311.624 780.256 320.216C780.64 319.592 781.36 318.776 781.984 318.296C763.696 310.136 761.488 286.328 761.008 283.16ZM806.944 305.864H809.008L809.824 285.944L809.872 281.096H806.08L806.128 285.944L806.944 305.864ZM808 317.096C809.248 317.096 810.352 316.232 810.352 314.648C810.352 313.064 809.248 312.008 808 312.008C806.704 312.008 805.6 313.064 805.6 314.648C805.6 316.232 806.704 317.096 808 317.096Z" fill="url(#paint11_linear_31_4)"/>
<path d="M667 336.979L689.114 305H942.5V344.734L921.994 368H667V336.979Z" fill="url(#paint12_linear_31_4)"/>
<path d="M699.276 322.468V324.088H728.724V322.468H699.276ZM698.016 344.536V346.192H730.056V344.536H698.016ZM713.028 319.012V351.844H714.828V319.012H713.028ZM703.596 334.888H724.512V339.496H703.596V334.888ZM703.596 328.84H724.512V333.376H703.596V328.84ZM701.904 327.292V341.008H726.24V327.292H701.904ZM738.732 321.568V323.26H762.708V321.568H738.732ZM738.732 330.028V331.72H762.564V330.028H738.732ZM738.444 338.704V340.36H762.6V338.704H738.444ZM737.76 321.568V334.708C737.76 339.784 737.328 346.12 733.332 350.692C733.728 350.908 734.412 351.484 734.664 351.88C738.876 347.092 739.452 340.036 739.452 334.708V321.568H737.76ZM761.88 321.568V348.856C761.88 349.576 761.628 349.792 760.908 349.792C760.224 349.828 757.704 349.864 754.896 349.792C755.148 350.26 755.472 351.052 755.544 351.484C759.036 351.52 761.088 351.52 762.132 351.232C763.212 350.908 763.608 350.296 763.608 348.856V321.568H761.88ZM749.172 322.18V351.412H750.936V322.18H749.172ZM774.912 340.72V342.088H797.16V340.72H774.912ZM775.02 336.292V337.732H796.476V345.112H775.02V346.552H798.168V336.292H775.02ZM784.956 336.904V348.208C784.956 350.692 786 351.196 789.492 351.196C790.284 351.196 797.484 351.196 798.312 351.196C801.408 351.196 802.02 350.08 802.308 345.688C801.804 345.616 801.12 345.328 800.724 345.04C800.544 349.036 800.22 349.684 798.24 349.684C796.728 349.684 790.608 349.684 789.456 349.684C787.116 349.684 786.684 349.396 786.684 348.244V336.904H784.956ZM774.084 336.292V348.568H775.74V336.292H774.084ZM772.644 320.488V321.892H799.32V320.488H772.644ZM784.992 320.884V334.744H786.72V320.884H784.992ZM771.06 324.7V332.224H772.788V326.104H799.176V332.224H800.94V324.7H771.06ZM773.94 333.088L774.588 334.636C776.964 334.204 779.736 333.7 782.58 333.16L782.544 331.864C779.34 332.368 776.244 332.836 773.94 333.088ZM774.696 328.336C777.252 328.84 780.456 329.812 782.148 330.604L782.724 329.38C781.032 328.588 777.828 327.724 775.308 327.256L774.696 328.336ZM796.404 327.148C794.568 327.868 791.328 328.984 789.132 329.524L789.852 330.532C792.084 330.064 795.18 329.236 797.304 328.336L796.404 327.148ZM788.736 332.944C791.616 333.34 795.252 334.168 797.268 334.888L797.736 333.52C795.72 332.8 792.12 332.044 789.276 331.72L788.736 332.944ZM805.908 335.212V336.976H838.2V335.212H805.908ZM809.544 321.64V323.368H833.52V321.64H809.544ZM832.908 321.64V322.036C830.316 324.664 825.24 328.012 821.172 329.884C821.568 330.136 822.108 330.676 822.36 331.072C826.5 329.092 831.792 325.672 835.032 322.504L833.736 321.532L833.34 321.64H832.908ZM821.172 329.884V349.072C821.172 349.72 820.956 349.9 820.236 349.936C819.444 349.972 816.852 350.008 813.72 349.9C814.008 350.476 814.332 351.196 814.476 351.7C818.04 351.7 820.272 351.7 821.388 351.376C822.576 351.088 822.972 350.512 822.972 349.072V329.884H821.172ZM856.956 336.004V337.66H874.38V336.004H856.956ZM857.784 325.204V326.896H870.204V336.868H871.824V325.204H857.784ZM863.76 318.976V331.288C863.76 338.344 863.004 345.4 855.768 350.656C856.164 350.908 856.74 351.376 856.992 351.736C864.516 346.264 865.416 338.848 865.416 331.324V318.976H863.76ZM841.62 332.656V334.276H856.092V332.656H841.62ZM844.536 323.476V325.132H855.516V323.476H844.536ZM853.464 337.084V349.072H855.048V337.084H853.464ZM848.244 324.16V347.092H849.9V324.16H848.244ZM845.256 318.904C844.392 322.792 843.024 326.68 841.188 329.344C841.656 329.524 842.376 329.92 842.7 330.172C844.464 327.4 845.94 323.296 846.876 319.228L845.256 318.904ZM843.24 337.048V347.812H854.112V346.192H844.788V337.048H843.24ZM866.604 339.964C868.908 343.672 871.572 348.712 872.904 351.556L874.488 350.908C873.12 348.064 870.348 343.132 868.08 339.424L866.604 339.964ZM893.208 319.156C893.1 324.34 893.064 342.772 877.836 350.188C878.304 350.548 878.88 351.088 879.204 351.52C894.648 343.744 894.936 324.916 895.08 319.156H893.208ZM894.756 323.62L893.136 323.764C893.604 326.644 895.26 344.968 909.192 351.412C909.48 350.944 910.02 350.332 910.488 349.972C896.772 343.852 895.116 325.996 894.756 323.62ZM929.208 340.648H930.756L931.368 325.708L931.404 322.072H928.56L928.596 325.708L929.208 340.648ZM930 349.072C930.936 349.072 931.764 348.424 931.764 347.236C931.764 346.048 930.936 345.256 930 345.256C929.028 345.256 928.2 346.048 928.2 347.236C928.2 348.424 929.028 349.072 930 349.072Z" fill="url(#paint13_linear_31_4)"/>
<path d="M364 378.979L386.114 347H647.506V386.734L627 410H364V378.979Z" fill="url(#paint14_linear_31_4)"/>
<path d="M399.12 379.768V381.28H422.664V379.768H399.12ZM395.052 384.448V385.996H426.912V384.448H395.052ZM415.896 386.824C418.704 388.912 422.052 391.9 423.528 393.88L425.004 393.016C423.384 391 420.072 388.048 417.264 386.068L415.896 386.824ZM399.336 393.196C399.336 392.764 400.668 392.188 400.668 392.188V392.152C403.044 390.568 405.6 388.12 407.94 385.492L406.104 384.736C404.268 387.256 401.496 389.632 400.704 390.28C399.948 390.892 399.3 391.288 398.724 391.36C398.94 391.864 399.228 392.8 399.336 393.196ZM399.336 393.196C400.38 392.8 402.036 392.728 422.16 391.648C422.016 391.288 421.908 390.676 421.836 390.208L400.704 391.252L399.336 391.936V393.196ZM397.968 362.02V363.496H424.032V362.02H397.968ZM410.136 362.56V377.788H411.864V362.56H410.136ZM396.096 365.98V373.432H397.716V367.348H424.248V373.432H425.94V365.98H396.096ZM398.652 376.78L399.48 378.292C401.928 377.32 404.952 376.024 407.94 374.8L407.652 373.468C404.34 374.728 400.992 375.988 398.652 376.78ZM399.732 369.724C402.18 370.516 405.312 371.776 406.968 372.604L407.688 371.38C405.996 370.552 402.864 369.4 400.452 368.644L399.732 369.724ZM421.656 368.716C419.712 369.58 416.292 370.876 413.916 371.488L414.708 372.532C417.048 371.992 420.396 371.02 422.592 369.94L421.656 368.716ZM413.988 374.656C417.156 375.556 421.116 377.104 423.168 378.184L423.852 376.924C421.764 375.808 417.768 374.368 414.708 373.54L413.988 374.656ZM442.608 374.08V375.736H463.308V374.08H442.608ZM449.484 380.236V393.304H451.032V380.236H449.484ZM455.136 380.236V393.196H456.684V380.236H455.136ZM452.004 361.012V370.264H453.66V361.012H452.004ZM443.94 379.624V393.664H445.56V381.208H461.652V379.624H443.94ZM460.824 379.624V391.864C460.824 392.188 460.716 392.296 460.392 392.296C460.104 392.332 459.096 392.332 457.872 392.296C458.124 392.728 458.376 393.304 458.448 393.736C460.104 393.736 461.004 393.7 461.652 393.448C462.264 393.196 462.408 392.764 462.408 391.9V379.624H460.824ZM452.076 374.62C451.86 376.24 451.392 378.724 450.96 380.272L452.508 380.632C453.012 379.192 453.48 376.96 454.02 375.016L452.076 374.62ZM444.336 362.812V370.948H461.976V362.812H460.284V369.364H445.992V362.812H444.336ZM430.98 368.032V369.688H443.04V368.032H430.98ZM430.872 388.12L431.34 389.884C434.652 389.02 439.08 387.832 443.4 386.68L443.22 385.024C438.648 386.212 433.968 387.436 430.872 388.12ZM432.312 371.884C433.212 376.132 433.968 381.64 434.148 385.312L435.624 385.06C435.444 381.352 434.652 375.916 433.752 371.632L432.312 371.884ZM440.088 371.236C439.584 375.844 438.504 382.756 437.568 386.68L438.864 387.04C439.836 383.116 440.952 376.42 441.672 371.596L440.088 371.236ZM434.76 361.84C435.696 363.532 436.848 365.836 437.316 367.276L438.9 366.7C438.396 365.224 437.28 363.028 436.236 361.372L434.76 361.84ZM486.276 365.548V389.524H487.968V365.548H486.276ZM479.76 377.536H494.592V380.596H479.76V377.536ZM479.76 373.252H494.592V376.204H479.76V373.252ZM478.212 371.884V381.964H496.176V371.884H478.212ZM476.16 362.344V368.5H477.78V363.82H496.356V368.5H498.084V362.344H476.16ZM478.824 367.744V369.184H495.564V367.744H478.824ZM476.196 384.7V386.212H498.516V384.7H476.196ZM468.348 361.732C469.788 363.532 471.624 366.016 472.488 367.528L473.892 366.664C473.028 365.152 471.228 362.812 469.68 361.012L468.348 361.732ZM466.728 369.256V370.804H474.36V369.256H466.728ZM472.632 386.248L471.48 386.896C474.216 392.26 479.112 393.124 487.608 393.124C491.424 393.124 495.96 393.052 499.128 392.872C499.236 392.404 499.416 391.576 499.704 391.144C496.248 391.468 491.352 391.576 487.608 391.576C479.976 391.576 475.044 390.892 472.632 386.248ZM473.496 378.364V378.724C472.488 385.348 469.824 389.956 466.26 392.44C466.62 392.728 467.232 393.34 467.484 393.7C471.156 391 473.964 386.068 475.188 378.652L474.288 378.328L473.964 378.364H473.496ZM467.196 380.344C467.448 380.092 468.312 379.876 469.248 379.876H474.252V378.364H468.312L467.196 378.904V380.344ZM467.196 380.344C467.196 379.84 468.708 379.084 468.708 379.084C470.688 376.78 473.964 372.1 475.62 369.688L474.324 369.076L473.712 369.364V369.436C472.596 371.308 469.14 376.384 468.06 377.536C467.484 378.184 466.908 378.4 466.404 378.544C466.62 378.976 467.052 379.876 467.196 380.344ZM503.16 385.924V387.436H534.984V385.924H503.16ZM509.352 374.26H529.224V376.852H509.352V374.26ZM509.352 378.184H529.224V380.812H509.352V378.184ZM509.352 370.408H529.224V372.928H509.352V370.408ZM507.588 369.004V382.18H530.988V369.004H507.588ZM524.616 381.82V393.628H526.344V381.82H524.616ZM507.408 363.676V365.152H519.324V363.676H507.408ZM522.456 363.604V365.116H535.344V363.604H522.456ZM508.416 360.868C507.156 363.928 504.96 366.88 502.764 368.824C503.124 369.184 503.664 369.976 503.88 370.372C506.22 368.104 508.632 364.72 510 361.372L508.416 360.868ZM523.428 360.832C522.456 363.64 520.62 366.232 518.496 367.96C518.928 368.212 519.684 368.644 520.008 368.932C522.024 367.06 524.04 364.288 525.156 361.228L523.428 360.832ZM511.512 366.016C512.196 366.88 512.808 368.032 513.132 368.824L514.68 368.248C514.356 367.492 513.636 366.34 513.024 365.512L511.512 366.016ZM527.244 365.908C528.144 366.772 529.08 367.96 529.512 368.824L530.88 368.104C530.484 367.276 529.476 366.088 528.612 365.224L527.244 365.908ZM512.7 381.784V384.412C512.7 386.788 512.088 390.352 504.96 392.656C505.356 392.98 505.824 393.556 506.04 393.952C513.564 391.216 514.5 387.328 514.5 384.412V381.784H512.7ZM553.956 378.004V379.66H571.38V378.004H553.956ZM554.784 367.204V368.896H567.204V378.868H568.824V367.204H554.784ZM560.76 360.976V373.288C560.76 380.344 560.004 387.4 552.768 392.656C553.164 392.908 553.74 393.376 553.992 393.736C561.516 388.264 562.416 380.848 562.416 373.324V360.976H560.76ZM538.62 374.656V376.276H553.092V374.656H538.62ZM541.536 365.476V367.132H552.516V365.476H541.536ZM550.464 379.084V391.072H552.048V379.084H550.464ZM545.244 366.16V389.092H546.9V366.16H545.244ZM542.256 360.904C541.392 364.792 540.024 368.68 538.188 371.344C538.656 371.524 539.376 371.92 539.7 372.172C541.464 369.4 542.94 365.296 543.876 361.228L542.256 360.904ZM540.24 379.048V389.812H551.112V388.192H541.788V379.048H540.24ZM563.604 381.964C565.908 385.672 568.572 390.712 569.904 393.556L571.488 392.908C570.12 390.064 567.348 385.132 565.08 381.424L563.604 381.964ZM590.208 361.156C590.1 366.34 590.064 384.772 574.836 392.188C575.304 392.548 575.88 393.088 576.204 393.52C591.648 385.744 591.936 366.916 592.08 361.156H590.208ZM591.756 365.62L590.136 365.764C590.604 368.644 592.26 386.968 606.192 393.412C606.48 392.944 607.02 392.332 607.488 391.972C593.772 385.852 592.116 367.996 591.756 365.62ZM626.208 382.648H627.756L628.368 367.708L628.404 364.072H625.56L625.596 367.708L626.208 382.648ZM627 391.072C627.936 391.072 628.764 390.424 628.764 389.236C628.764 388.048 627.936 387.256 627 387.256C626.028 387.256 625.2 388.048 625.2 389.236C625.2 390.424 626.028 391.072 627 391.072Z" fill="url(#paint15_linear_31_4)"/>
<path d="M610 409.979L632.114 378H893.506V417.734L873 441H610V409.979Z" fill="url(#paint16_linear_31_4)"/>
<path d="M649.224 392.084C647.064 397.772 643.572 403.316 639.864 406.952C640.224 407.312 640.728 408.176 640.944 408.536C644.832 404.54 648.504 398.672 650.88 392.588L649.224 392.084ZM645.264 400.976V424.628H646.992V399.356L646.92 399.32L645.264 400.976ZM650.916 400.076V401.768H672.912V400.076H650.916ZM649.98 411.632V413.36H673.38V411.632H649.98ZM655.92 392.408V412.64H657.648V392.408H655.92ZM665.784 392.408V412.64H667.476V392.408H665.784ZM656.568 415.736C654.984 418.616 652.5 421.532 650.052 423.512C650.484 423.8 651.168 424.34 651.492 424.628C653.868 422.54 656.496 419.336 658.26 416.24L656.568 415.736ZM664.92 416.672C667.404 419.12 670.14 422.504 671.4 424.772L672.876 423.8C671.58 421.604 668.808 418.292 666.252 415.844L664.92 416.672ZM692.496 404.108V405.368H706.824V404.108H692.496ZM692.496 407.744V409.004H706.968V407.744H692.496ZM692.136 411.524V412.892H708.516V411.524H692.136ZM687.888 397.088C686.232 400.616 683.532 404.144 680.796 406.484C681.156 406.7 681.804 407.312 682.056 407.564C684.756 405.08 687.564 401.336 689.436 397.556L687.888 397.088ZM693.576 397.052C692.172 400.292 689.904 403.532 687.528 405.728C687.96 406.016 688.608 406.484 688.896 406.772C691.164 404.468 693.54 400.976 695.124 397.484L693.576 397.052ZM699.516 401.012V412.136H701.1V401.012H699.516ZM689.76 416.204V421.928C689.76 423.944 690.48 424.376 693.324 424.376C693.972 424.376 699.264 424.376 699.912 424.376C702.18 424.376 702.792 423.548 702.936 420.092C702.504 419.984 701.82 419.732 701.424 419.408C701.316 422.468 701.064 422.828 699.732 422.828C698.652 422.828 694.224 422.828 693.396 422.828C691.668 422.828 691.38 422.684 691.38 421.928V416.204H689.76ZM692.856 415.016C695.088 416.024 697.68 417.608 699.048 418.796L700.128 417.572C698.796 416.456 696.096 414.944 693.936 413.972L692.856 415.016ZM702.072 416.6C704.268 418.688 706.536 421.604 707.544 423.584L708.984 422.756C707.976 420.812 705.6 417.932 703.404 415.88L702.072 416.6ZM685.656 416.276C684.828 418.58 683.316 421.28 681.192 422.828L682.56 423.692C684.756 422.036 686.124 419.264 687.096 416.816L685.656 416.276ZM693.216 400.4L692.172 401.768H707.832V400.4H693.216ZM691.632 401.984V413.972H693.18V400.544L691.632 401.984ZM680.04 394.928V396.512H709.164V394.928H680.04ZM679.104 394.928V405.944C679.104 411.2 678.888 418.436 676.26 423.692C676.656 423.872 677.34 424.412 677.628 424.7C680.364 419.228 680.76 411.416 680.76 405.944V394.928H679.104ZM685.404 402.704V414.008H687.024V401.156H686.988L685.404 402.704ZM691.956 391.832C693.036 393.128 694.116 394.928 694.62 396.188L696.096 395.432C695.628 394.28 694.476 392.516 693.396 391.22L691.956 391.832ZM697.716 397.484C698.688 398.42 699.66 399.788 700.128 400.76L701.46 399.968C700.956 399.068 699.912 397.772 698.94 396.8L697.716 397.484ZM730.584 395.396V396.908H744.156V395.396H730.584ZM730.368 414.908V416.42H744.336V414.908H730.368ZM733.068 406.52H742.032V410.12H733.068V406.52ZM733.068 401.588H742.032V405.116H733.068V401.588ZM731.664 400.184V411.524H743.472V400.184H731.664ZM736.776 391.976V400.796H736.92V410.696H738.252V400.796H738.396V391.976H736.776ZM736.812 410.732V421.532H738.396V410.732H736.812ZM714.78 401.228V402.74H723.06V401.228H714.78ZM713.16 407.456V409.004H723.888V407.456H713.16ZM713.916 411.596C714.564 413.864 715.032 416.744 715.14 418.616L716.436 418.328C716.328 416.42 715.824 413.576 715.14 411.344L713.916 411.596ZM712.8 421.784L713.34 423.368C716.292 422.576 720.288 421.424 724.068 420.38L723.888 418.868C719.712 420.02 715.572 421.1 712.8 421.784ZM721.98 410.84C721.692 412.856 720.972 415.916 720.468 417.788L721.584 418.364C722.16 416.528 722.808 413.756 723.348 411.488L721.98 410.84ZM718.092 401.984V421.496L719.46 421.244V401.984H718.092ZM718.74 391.796C717.336 395.432 714.96 398.852 712.404 401.192C712.692 401.516 713.232 402.272 713.376 402.596C716.004 400.04 718.632 396.188 720.216 392.228L718.74 391.796ZM718.02 394.676C719.964 396.368 722.268 398.636 723.636 400.4L724.572 399.104C723.204 397.448 720.972 395.252 718.884 393.56L718.02 394.676ZM725.04 392.984C726.156 394.712 727.524 397.124 728.136 398.636L729.576 397.988C728.928 396.548 727.56 394.244 726.408 392.48L725.04 392.984ZM724.392 400.328V401.912H729.648V400.328H724.392ZM728.388 416.924L727.164 417.5C729.288 423.116 732.744 424.34 738.828 424.34C740.916 424.34 743.436 424.304 745.272 424.196C745.308 423.692 745.524 422.936 745.812 422.54C743.796 422.72 740.988 422.792 738.828 422.792C733.608 422.792 730.152 421.784 728.388 416.924ZM728.712 409.256V409.616C727.956 416.096 726.048 420.956 723.24 423.62C723.6 423.872 724.176 424.412 724.392 424.808C727.344 421.928 729.396 416.744 730.296 409.508L729.504 409.22L729.216 409.256H728.712ZM724.86 411.308C725.148 411.056 726.048 410.804 726.696 410.804H729.36V409.256H726.048L724.86 409.796V411.308ZM724.86 411.308C724.86 410.732 726.336 409.976 726.336 409.976C727.596 407.816 729.54 402.776 730.44 400.472L729.252 400.112L728.712 400.364V400.472C728.064 402.272 726.156 407.636 725.508 408.572C725.112 409.256 724.608 409.4 724.14 409.58C724.392 409.976 724.788 410.84 724.86 411.308ZM763.956 409.004V410.66H781.38V409.004H763.956ZM764.784 398.204V399.896H777.204V409.868H778.824V398.204H764.784ZM770.76 391.976V404.288C770.76 411.344 770.004 418.4 762.768 423.656C763.164 423.908 763.74 424.376 763.992 424.736C771.516 419.264 772.416 411.848 772.416 404.324V391.976H770.76ZM748.62 405.656V407.276H763.092V405.656H748.62ZM751.536 396.476V398.132H762.516V396.476H751.536ZM760.464 410.084V422.072H762.048V410.084H760.464ZM755.244 397.16V420.092H756.9V397.16H755.244ZM752.256 391.904C751.392 395.792 750.024 399.68 748.188 402.344C748.656 402.524 749.376 402.92 749.7 403.172C751.464 400.4 752.94 396.296 753.876 392.228L752.256 391.904ZM750.24 410.048V420.812H761.112V419.192H751.788V410.048H750.24ZM773.604 412.964C775.908 416.672 778.572 421.712 779.904 424.556L781.488 423.908C780.12 421.064 777.348 416.132 775.08 412.424L773.604 412.964ZM800.208 392.156C800.1 397.34 800.064 415.772 784.836 423.188C785.304 423.548 785.88 424.088 786.204 424.52C801.648 416.744 801.936 397.916 802.08 392.156H800.208ZM801.756 396.62L800.136 396.764C800.604 399.644 802.26 417.968 816.192 424.412C816.48 423.944 817.02 423.332 817.488 422.972C803.772 416.852 802.116 398.996 801.756 396.62ZM836.208 413.648H837.756L838.368 398.708L838.404 395.072H835.56L835.596 398.708L836.208 413.648ZM837 422.072C837.936 422.072 838.764 421.424 838.764 420.236C838.764 419.048 837.936 418.256 837 418.256C836.028 418.256 835.2 419.048 835.2 420.236C835.2 421.424 836.028 422.072 837 422.072Z" fill="url(#paint17_linear_31_4)"/>
<path d="M265 434.979L287.114 403H569.5V438.734L548.994 454H265V434.979Z" fill="url(#paint18_linear_31_4)"/>
<path d="M330.84 418.29V443.16H332.28V418.29H330.84ZM325.47 424.44V425.82H336.99V424.44H325.47ZM330.9 424.95C329.76 428.88 327.21 433.74 324.99 436.14C325.26 436.44 325.68 437.01 325.83 437.4C328.11 434.73 330.69 429.54 331.92 425.34L330.9 424.95ZM335.31 416.49C333.18 417.48 329.13 418.32 325.77 418.89C325.95 419.22 326.16 419.7 326.25 420.03C329.64 419.55 333.78 418.71 336.3 417.63L335.31 416.49ZM332.13 426.36L331.38 427.02C332.28 428.1 334.92 431.97 335.64 433.35L336.63 432.24C335.94 431.25 332.91 427.23 332.13 426.36ZM347.28 415.98V443.19H348.72V415.98H347.28ZM336.72 435.6L336.93 436.98L352.77 434.49L352.56 433.17L336.72 435.6ZM339.45 419.13C341.28 420.27 343.47 422.01 344.46 423.21L345.45 422.25C344.4 420.99 342.24 419.31 340.35 418.23L339.45 419.13ZM338.19 426.9C340.26 428.07 342.66 429.9 343.83 431.19L344.76 430.2C343.59 428.94 341.16 427.14 339.09 426L338.19 426.9ZM365.19 420.96V422.34H381.57V420.96H365.19ZM365.85 427.41V428.76H379.32V427.41H365.85ZM372.6 415.98V428.22H374.07V415.98H372.6ZM368.16 428.28L366.87 428.67C369.39 435.9 374.43 441.09 381.63 443.25C381.87 442.89 382.26 442.32 382.62 442.02C375.48 440.07 370.5 435.03 368.16 428.28ZM379.23 427.41V427.68C376.86 435.33 370.11 440.1 363.48 441.93C363.75 442.26 364.11 442.86 364.26 443.25C371.22 441.12 378.06 436.2 380.73 427.77L379.83 427.32L379.53 427.41H379.23ZM355.26 432.24L355.74 433.65C358.35 432.84 361.77 431.76 365.01 430.71L364.83 429.42C361.32 430.47 357.69 431.58 355.26 432.24ZM355.62 422.25V423.63H364.71V422.25H355.62ZM359.73 416.01V441.27C359.73 441.72 359.55 441.87 359.16 441.87C358.77 441.9 357.45 441.9 355.89 441.87C356.1 442.26 356.34 442.86 356.4 443.19C358.41 443.22 359.55 443.19 360.21 442.95C360.87 442.71 361.17 442.26 361.17 441.24V416.01H359.73ZM388.71 426.3V427.56H412.17V426.3H388.71ZM388.02 418.98V420.24H411.18V418.98H388.02ZM392.88 431.1V432.36H410.4V431.1H392.88ZM392.97 435.72V436.98H409.83V435.72H392.97ZM390.09 440.85V442.14H412.62V440.85H390.09ZM400.41 428.1V441.63H401.85V428.1H400.41ZM387.93 426.3V433.2C387.93 436.14 387.66 439.86 385.14 442.56C385.47 442.74 386.04 443.22 386.25 443.52C388.92 440.61 389.37 436.41 389.37 433.2V426.3H387.93ZM393.87 428.25C392.91 430.77 391.41 433.23 389.64 434.91C389.97 435.15 390.45 435.72 390.63 435.96C392.43 434.16 394.11 431.4 395.16 428.61L393.87 428.25ZM391.56 421.23C397.08 422.55 404.04 424.83 407.82 426.33L408.78 425.34C404.97 423.9 397.92 421.65 392.58 420.3L391.56 421.23ZM406.38 420.18C402.84 422.28 395.94 424.26 390.72 425.31C390.99 425.55 391.41 426.06 391.56 426.33C396.81 425.19 403.47 423.15 407.52 420.87L406.38 420.18ZM397.65 416.34C398.58 417.45 399.66 418.98 400.17 419.97L401.34 419.25C400.86 418.29 399.75 416.79 398.76 415.77L397.65 416.34ZM416.01 434.58V435.9H442.02V434.58H416.01ZM416.16 421.59V422.88H441.9V421.59H416.16ZM417.36 426.63V427.92H440.85V426.63H417.36ZM418.89 430.62V431.85H439.35V430.62H418.89ZM428.22 427.14V443.25H429.66V427.14H428.22ZM425.37 415.98V422.22H426.78V415.98H425.37ZM431.13 415.98V422.19H432.54V415.98H431.13ZM438.12 416.43C437.55 417.81 436.44 419.88 435.57 421.17L436.77 421.59C437.64 420.39 438.72 418.53 439.56 416.88L438.12 416.43ZM434.13 422.88C433.71 423.87 432.84 425.37 432.21 426.33L433.38 426.72C434.07 425.82 434.88 424.53 435.57 423.3L434.13 422.88ZM418.74 416.82C419.82 418.26 420.99 420.24 421.44 421.47L422.73 420.96C422.28 419.7 421.11 417.75 419.97 416.37L418.74 416.82ZM422.67 423.27C423.45 424.35 424.2 425.79 424.47 426.75L425.82 426.33C425.52 425.4 424.77 423.96 423.99 422.91L422.67 423.27ZM425.16 437.7C423.09 439.11 419.04 440.4 415.83 440.97C416.16 441.24 416.58 441.72 416.76 442.08C419.94 441.42 424.11 439.89 426.33 438.3L425.16 437.7ZM432 438.54C435.09 439.53 439.11 441.06 441.24 442.02L441.99 440.91C439.83 439.98 435.81 438.57 432.75 437.58L432 438.54ZM458.13 430.17V431.55H472.65V430.17H458.13ZM458.82 421.17V422.58H469.17V430.89H470.52V421.17H458.82ZM463.8 415.98V426.24C463.8 432.12 463.17 438 457.14 442.38C457.47 442.59 457.95 442.98 458.16 443.28C464.43 438.72 465.18 432.54 465.18 426.27V415.98H463.8ZM445.35 427.38V428.73H457.41V427.38H445.35ZM447.78 419.73V421.11H456.93V419.73H447.78ZM455.22 431.07V441.06H456.54V431.07H455.22ZM450.87 420.3V439.41H452.25V420.3H450.87ZM448.38 415.92C447.66 419.16 446.52 422.4 444.99 424.62C445.38 424.77 445.98 425.1 446.25 425.31C447.72 423 448.95 419.58 449.73 416.19L448.38 415.92ZM446.7 431.04V440.01H455.76V438.66H447.99V431.04H446.7ZM466.17 433.47C468.09 436.56 470.31 440.76 471.42 443.13L472.74 442.59C471.6 440.22 469.29 436.11 467.4 433.02L466.17 433.47ZM488.34 416.13C488.25 420.45 488.22 435.81 475.53 441.99C475.92 442.29 476.4 442.74 476.67 443.1C489.54 436.62 489.78 420.93 489.9 416.13H488.34ZM489.63 419.85L488.28 419.97C488.67 422.37 490.05 437.64 501.66 443.01C501.9 442.62 502.35 442.11 502.74 441.81C491.31 436.71 489.93 421.83 489.63 419.85ZM518.34 434.04H519.63L520.14 421.59L520.17 418.56H517.8L517.83 421.59L518.34 434.04ZM519 441.06C519.78 441.06 520.47 440.52 520.47 439.53C520.47 438.54 519.78 437.88 519 437.88C518.19 437.88 517.5 438.54 517.5 439.53C517.5 440.52 518.19 441.06 519 441.06Z" fill="url(#paint19_linear_31_4)"/>
<path d="M533 465.979L555.114 434H837.5V469.734L816.994 485H533V465.979Z" fill="url(#paint20_linear_31_4)"/>
<path d="M593.11 463.24L593.62 464.65C596.44 463.81 600.22 462.58 603.76 461.47L603.58 460.15C599.77 461.32 595.78 462.52 593.11 463.24ZM593.5 453.25V454.63H603.43V453.25H593.5ZM598.12 447.01V472.09C598.12 472.51 597.94 472.63 597.52 472.66C597.13 472.66 595.81 472.69 594.28 472.63C594.46 473.05 594.7 473.65 594.76 474.01C596.8 474.01 597.94 474.01 598.6 473.74C599.23 473.53 599.53 473.08 599.53 472.09V447.01H598.12ZM603.82 455.77L603.97 457.15L619.93 455.38L619.75 454.03L603.82 455.77ZM612.31 448.72C613.87 449.98 615.67 451.84 616.45 453.1L617.59 452.23C616.81 450.97 614.98 449.17 613.39 447.94L612.31 448.72ZM608.26 447.04C609.07 461.74 611.74 473.8 618.04 474.16C619.48 474.25 620.44 472.63 621.04 468.19C620.68 468.07 620.08 467.74 619.78 467.47C619.42 470.83 618.88 472.57 618.01 472.51C613.18 472.12 610.39 460.81 609.7 447.04H608.26ZM617.08 458.41C614.56 464.08 609.07 469.66 603.19 472.03C603.55 472.33 604.03 472.78 604.27 473.17C610.15 470.59 615.58 464.98 618.28 459.13L617.08 458.41ZM624.16 449.14V450.61H649.81V449.14H624.16ZM638.98 457.12C642.67 459.46 647.23 462.88 649.42 465.16L650.53 464.05C648.25 461.8 643.72 458.47 640 456.22L638.98 457.12ZM638.8 449.62C635.83 455.41 630.1 461.17 623.5 464.56C623.8 464.86 624.25 465.4 624.49 465.73C631.21 462.16 636.91 456.34 640.3 450.19L638.8 449.62ZM636.19 454.84V474.19H637.69V453.34L636.19 454.84ZM655.12 462.73V464.05H669.01V462.73H655.12ZM661.24 459.16V470.47H662.62V459.16H661.24ZM654.04 471.07L654.4 472.51C658.27 471.73 663.97 470.59 669.37 469.54L669.28 468.19C663.64 469.3 657.73 470.41 654.04 471.07ZM654.28 449.08V450.43H669.58V449.08H654.28ZM663.79 452.65C665.53 454.72 667.54 457.54 668.5 459.25L669.61 458.47C668.68 456.79 666.61 454.03 664.87 452.02L663.79 452.65ZM671.56 449.44V467.62H672.94V449.44H671.56ZM677.59 447.55V471.34C677.59 471.85 677.47 471.97 676.99 472C676.45 472.03 674.77 472.03 672.91 471.97C673.18 472.39 673.42 473.08 673.51 473.5C675.61 473.5 677.14 473.47 677.95 473.23C678.7 472.96 679 472.45 679 471.31V447.55H677.59ZM655.57 458.56C655.57 458.17 656.65 457.72 656.65 457.72V457.69C658.36 455.71 660.13 452.83 661.54 449.98L660.13 449.35C659.02 452.11 657.1 455.02 656.53 455.77C655.99 456.49 655.54 457.06 655.06 457.12C655.27 457.51 655.48 458.23 655.57 458.56ZM655.57 458.56C656.2 458.29 657.25 458.14 667.81 457.06C667.6 456.76 667.3 456.28 667.12 455.89L656.5 456.94L655.57 457.48V458.56ZM696.34 447.13C696.25 451.45 696.22 466.81 683.53 472.99C683.92 473.29 684.4 473.74 684.67 474.1C697.54 467.62 697.78 451.93 697.9 447.13H696.34ZM697.63 450.85L696.28 450.97C696.67 453.37 698.05 468.64 709.66 474.01C709.9 473.62 710.35 473.11 710.74 472.81C699.31 467.71 697.93 452.83 697.63 450.85ZM726.34 465.04H727.63L728.14 452.59L728.17 449.56H725.8L725.83 452.59L726.34 465.04ZM727 472.06C727.78 472.06 728.47 471.52 728.47 470.53C728.47 469.54 727.78 468.88 727 468.88C726.19 468.88 725.5 469.54 725.5 470.53C725.5 471.52 726.19 472.06 727 472.06Z" fill="url(#paint21_linear_31_4)"/>
<path d="M0 248.979L22.1138 217L304.5 217V252.734L283.994 268H0L0 248.979Z" fill="url(#paint22_linear_31_4)"/>
<path d="M79.59 255.42C83.04 255.42 86.43 252.87 86.43 248.31C86.43 243.69 83.52 241.65 79.92 241.65C78.45 241.65 77.31 242.04 76.26 242.67L76.92 235.35H85.35V233.79H75.36L74.61 243.78L75.75 244.47C76.98 243.63 78.03 243.09 79.59 243.09C82.65 243.09 84.63 245.07 84.63 248.4C84.63 251.7 82.26 253.89 79.5 253.89C76.68 253.89 75.03 252.63 73.8 251.34L72.84 252.54C74.22 253.92 76.17 255.42 79.59 255.42ZM99.3347 255.42C102.215 255.42 104.495 254.37 105.905 252.93V244.14H99.0647V245.67H104.135V252.24C103.175 253.2 101.375 253.8 99.5147 253.8C94.5647 253.8 91.7147 249.96 91.7147 244.02C91.7147 238.08 94.7747 234.36 99.6347 234.36C101.975 234.36 103.475 235.38 104.585 236.55L105.635 235.38C104.465 234.12 102.575 232.74 99.6047 232.74C93.8147 232.74 89.8547 237.09 89.8547 244.05C89.8547 251.04 93.6947 255.42 99.3347 255.42ZM112.95 240.3V241.56H136.41V240.3H112.95ZM112.26 232.98V234.24H135.42V232.98H112.26ZM117.12 245.1V246.36H134.64V245.1H117.12ZM117.21 249.72V250.98H134.07V249.72H117.21ZM114.33 254.85V256.14H136.86V254.85H114.33ZM124.65 242.1V255.63H126.09V242.1H124.65ZM112.17 240.3V247.2C112.17 250.14 111.9 253.86 109.38 256.56C109.71 256.74 110.28 257.22 110.49 257.52C113.16 254.61 113.61 250.41 113.61 247.2V240.3H112.17ZM118.11 242.25C117.15 244.77 115.65 247.23 113.88 248.91C114.21 249.15 114.69 249.72 114.87 249.96C116.67 248.16 118.35 245.4 119.4 242.61L118.11 242.25ZM115.8 235.23C121.32 236.55 128.28 238.83 132.06 240.33L133.02 239.34C129.21 237.9 122.16 235.65 116.82 234.3L115.8 235.23ZM130.62 234.18C127.08 236.28 120.18 238.26 114.96 239.31C115.23 239.55 115.65 240.06 115.8 240.33C121.05 239.19 127.71 237.15 131.76 234.87L130.62 234.18ZM121.89 230.34C122.82 231.45 123.9 232.98 124.41 233.97L125.58 233.25C125.1 232.29 123.99 230.79 123 229.77L121.89 230.34ZM140.25 248.58V249.9H166.26V248.58H140.25ZM140.4 235.59V236.88H166.14V235.59H140.4ZM141.6 240.63V241.92H165.09V240.63H141.6ZM143.13 244.62V245.85H163.59V244.62H143.13ZM152.46 241.14V257.25H153.9V241.14H152.46ZM149.61 229.98V236.22H151.02V229.98H149.61ZM155.37 229.98V236.19H156.78V229.98H155.37ZM162.36 230.43C161.79 231.81 160.68 233.88 159.81 235.17L161.01 235.59C161.88 234.39 162.96 232.53 163.8 230.88L162.36 230.43ZM158.37 236.88C157.95 237.87 157.08 239.37 156.45 240.33L157.62 240.72C158.31 239.82 159.12 238.53 159.81 237.3L158.37 236.88ZM142.98 230.82C144.06 232.26 145.23 234.24 145.68 235.47L146.97 234.96C146.52 233.7 145.35 231.75 144.21 230.37L142.98 230.82ZM146.91 237.27C147.69 238.35 148.44 239.79 148.71 240.75L150.06 240.33C149.76 239.4 149.01 237.96 148.23 236.91L146.91 237.27ZM149.4 251.7C147.33 253.11 143.28 254.4 140.07 254.97C140.4 255.24 140.82 255.72 141 256.08C144.18 255.42 148.35 253.89 150.57 252.3L149.4 251.7ZM156.24 252.54C159.33 253.53 163.35 255.06 165.48 256.02L166.23 254.91C164.07 253.98 160.05 252.57 156.99 251.58L156.24 252.54ZM182.37 244.17V245.55H196.89V244.17H182.37ZM183.06 235.17V236.58H193.41V244.89H194.76V235.17H183.06ZM188.04 229.98V240.24C188.04 246.12 187.41 252 181.38 256.38C181.71 256.59 182.19 256.98 182.4 257.28C188.67 252.72 189.42 246.54 189.42 240.27V229.98H188.04ZM169.59 241.38V242.73H181.65V241.38H169.59ZM172.02 233.73V235.11H181.17V233.73H172.02ZM179.46 245.07V255.06H180.78V245.07H179.46ZM175.11 234.3V253.41H176.49V234.3H175.11ZM172.62 229.92C171.9 233.16 170.76 236.4 169.23 238.62C169.62 238.77 170.22 239.1 170.49 239.31C171.96 237 173.19 233.58 173.97 230.19L172.62 229.92ZM170.94 245.04V254.01H180V252.66H172.23V245.04H170.94ZM190.41 247.47C192.33 250.56 194.55 254.76 195.66 257.13L196.98 256.59C195.84 254.22 193.53 250.11 191.64 247.02L190.41 247.47ZM212.58 230.13C212.49 234.45 212.46 249.81 199.77 255.99C200.16 256.29 200.64 256.74 200.91 257.1C213.78 250.62 214.02 234.93 214.14 230.13H212.58ZM213.87 233.85L212.52 233.97C212.91 236.37 214.29 251.64 225.9 257.01C226.14 256.62 226.59 256.11 226.98 255.81C215.55 250.71 214.17 235.83 213.87 233.85ZM242.58 248.04H243.87L244.38 235.59L244.41 232.56H242.04L242.07 235.59L242.58 248.04ZM243.24 255.06C244.02 255.06 244.71 254.52 244.71 253.53C244.71 252.54 244.02 251.88 243.24 251.88C242.43 251.88 241.74 252.54 241.74 253.53C241.74 254.52 242.43 255.06 243.24 255.06Z" fill="url(#paint23_linear_31_4)"/>
<defs>
<linearGradient id="paint0_linear_31_4" x1="550" y1="0" x2="550" y2="165" gradientUnits="userSpaceOnUse">
<stop stop-color="#D9D9D9"/>
<stop offset="1" stop-color="#D9D9D9" stop-opacity="0"/>
</linearGradient>
<linearGradient id="paint1_linear_31_4" x1="390.286" y1="-39.875" x2="810.87" y2="157.589" gradientUnits="userSpaceOnUse">
<stop stop-color="#2196F3"/>
<stop offset="1" stop-color="#0D47A1"/>
</linearGradient>
<linearGradient id="paint2_linear_31_4" x1="292.5" y1="127" x2="292.5" y2="217" gradientUnits="userSpaceOnUse">
<stop stop-color="#D9D9D9"/>
<stop offset="1" stop-color="#D9D9D9" stop-opacity="0"/>
</linearGradient>
<linearGradient id="paint3_linear_31_4" x1="246.171" y1="95.125" x2="454.821" y2="165.42" gradientUnits="userSpaceOnUse">
<stop stop-color="#2196F3"/>
<stop offset="1" stop-color="#0D47A1"/>
</linearGradient>
<linearGradient id="paint4_linear_31_4" x1="730.199" y1="165" x2="730.199" y2="255" gradientUnits="userSpaceOnUse">
<stop stop-color="#D9D9D9"/>
<stop offset="1" stop-color="#D9D9D9" stop-opacity="0"/>
</linearGradient>
<linearGradient id="paint5_linear_31_4" x1="530.097" y1="133.125" x2="835.117" y2="317.143" gradientUnits="userSpaceOnUse">
<stop stop-color="#2196F3"/>
<stop offset="1" stop-color="#0D47A1"/>
</linearGradient>
<linearGradient id="paint6_linear_31_4" x1="448.378" y1="213" x2="448.378" y2="290" gradientUnits="userSpaceOnUse">
<stop stop-color="#D9D9D9"/>
<stop offset="1" stop-color="#D9D9D9" stop-opacity="0"/>
</linearGradient>
<linearGradient id="paint7_linear_31_4" x1="304.983" y1="191.625" x2="529.842" y2="341.072" gradientUnits="userSpaceOnUse">
<stop stop-color="#2196F3"/>
<stop offset="1" stop-color="#0D47A1"/>
</linearGradient>
<linearGradient id="paint8_linear_31_4" x1="350.3" y1="291" x2="350.3" y2="376" gradientUnits="userSpaceOnUse">
<stop stop-color="#D9D9D9"/>
<stop offset="1" stop-color="#D9D9D9" stop-opacity="0"/>
</linearGradient>
<linearGradient id="paint9_linear_31_4" x1="204.543" y1="278.625" x2="442.319" y2="468.263" gradientUnits="userSpaceOnUse">
<stop stop-color="#2196F3"/>
<stop offset="1" stop-color="#0D47A1"/>
</linearGradient>
<linearGradient id="paint10_linear_31_4" x1="732.3" y1="254" x2="732.3" y2="339" gradientUnits="userSpaceOnUse">
<stop stop-color="#D9D9D9"/>
<stop offset="1" stop-color="#D9D9D9" stop-opacity="0"/>
</linearGradient>
<linearGradient id="paint11_linear_31_4" x1="578.286" y1="241.625" x2="803.145" y2="391.072" gradientUnits="userSpaceOnUse">
<stop stop-color="#2196F3"/>
<stop offset="1" stop-color="#0D47A1"/>
</linearGradient>
<linearGradient id="paint12_linear_31_4" x1="808.863" y1="305" x2="808.863" y2="368" gradientUnits="userSpaceOnUse">
<stop stop-color="#D9D9D9"/>
<stop offset="1" stop-color="#D9D9D9" stop-opacity="0"/>
</linearGradient>
<linearGradient id="paint13_linear_31_4" x1="681.6" y1="293.187" x2="862.082" y2="463.074" gradientUnits="userSpaceOnUse">
<stop stop-color="#2196F3"/>
<stop offset="1" stop-color="#0D47A1"/>
</linearGradient>
<linearGradient id="paint14_linear_31_4" x1="505.863" y1="347" x2="505.863" y2="410" gradientUnits="userSpaceOnUse">
<stop stop-color="#D9D9D9"/>
<stop offset="1" stop-color="#D9D9D9" stop-opacity="0"/>
</linearGradient>
<linearGradient id="paint15_linear_31_4" x1="378.6" y1="335.187" x2="559.082" y2="505.074" gradientUnits="userSpaceOnUse">
<stop stop-color="#2196F3"/>
<stop offset="1" stop-color="#0D47A1"/>
</linearGradient>
<linearGradient id="paint16_linear_31_4" x1="751.863" y1="378" x2="751.863" y2="441" gradientUnits="userSpaceOnUse">
<stop stop-color="#D9D9D9"/>
<stop offset="1" stop-color="#D9D9D9" stop-opacity="0"/>
</linearGradient>
<linearGradient id="paint17_linear_31_4" x1="626.657" y1="366.187" x2="803.382" y2="508.773" gradientUnits="userSpaceOnUse">
<stop stop-color="#2196F3"/>
<stop offset="1" stop-color="#0D47A1"/>
</linearGradient>
<linearGradient id="paint18_linear_31_4" x1="406.863" y1="391" x2="406.863" y2="454" gradientUnits="userSpaceOnUse">
<stop stop-color="#D9D9D9"/>
<stop offset="1" stop-color="#D9D9D9" stop-opacity="0"/>
</linearGradient>
<linearGradient id="paint19_linear_31_4" x1="312" y1="394.25" x2="463.057" y2="535.781" gradientUnits="userSpaceOnUse">
<stop stop-color="#2196F3"/>
<stop offset="1" stop-color="#0D47A1"/>
</linearGradient>
<linearGradient id="paint20_linear_31_4" x1="674.863" y1="422" x2="674.863" y2="485" gradientUnits="userSpaceOnUse">
<stop stop-color="#D9D9D9"/>
<stop offset="1" stop-color="#D9D9D9" stop-opacity="0"/>
</linearGradient>
<linearGradient id="paint21_linear_31_4" x1="583.429" y1="425.25" x2="723.368" y2="518.903" gradientUnits="userSpaceOnUse">
<stop stop-color="#2196F3"/>
<stop offset="1" stop-color="#0D47A1"/>
</linearGradient>
<linearGradient id="paint22_linear_31_4" x1="141.863" y1="205" x2="141.863" y2="268" gradientUnits="userSpaceOnUse">
<stop stop-color="#D9D9D9"/>
<stop offset="1" stop-color="#D9D9D9" stop-opacity="0"/>
</linearGradient>
<linearGradient id="paint23_linear_31_4" x1="61.3143" y1="208.25" x2="210.242" y2="332.503" gradientUnits="userSpaceOnUse">
<stop stop-color="#2196F3"/>
<stop offset="1" stop-color="#0D47A1"/>
</linearGradient>
</defs>
</svg>
