<svg width="580" height="164" viewBox="0 0 580 164" fill="none" xmlns="http://www.w3.org/2000/svg">
<path d="M62.4711 46H29.2401L4 63.8325V122H547.884L576 102.916V46H280" stroke="white" stroke-width="7.62667"/>
<line x1="283.813" y1="46" x2="283.813" y2="122" stroke="white" stroke-width="7.62667"/>
<path d="M83.8865 30.4473V19.9533H102.168V68.1333H90.4205V30.4473H83.8865ZM109.889 43.3833C109.889 35.8153 111.341 29.8533 114.245 25.4973C117.193 21.1413 121.923 18.9633 128.435 18.9633C134.947 18.9633 139.655 21.1413 142.559 25.4973C145.507 29.8533 146.981 35.8153 146.981 43.3833C146.981 51.0393 145.507 57.0453 142.559 61.4013C139.655 65.7573 134.947 67.9353 128.435 67.9353C121.923 67.9353 117.193 65.7573 114.245 61.4013C111.341 57.0453 109.889 51.0393 109.889 43.3833ZM135.893 43.3833C135.893 38.9393 135.409 35.5293 134.441 33.1533C133.473 30.7333 131.471 29.5233 128.435 29.5233C125.399 29.5233 123.397 30.7333 122.429 33.1533C121.461 35.5293 120.977 38.9393 120.977 43.3833C120.977 46.3753 121.153 48.8613 121.505 50.8413C121.857 52.7773 122.561 54.3613 123.617 55.5933C124.717 56.7813 126.323 57.3753 128.435 57.3753C130.547 57.3753 132.131 56.7813 133.187 55.5933C134.287 54.3613 135.013 52.7773 135.365 50.8413C135.717 48.8613 135.893 46.3753 135.893 43.3833ZM179.212 5.4333L161.524 80.4753H150.634L168.322 5.4333H179.212ZM182.85 43.3833C182.85 35.8153 184.302 29.8533 187.206 25.4973C190.154 21.1413 194.884 18.9633 201.396 18.9633C207.908 18.9633 212.616 21.1413 215.52 25.4973C218.468 29.8533 219.942 35.8153 219.942 43.3833C219.942 51.0393 218.468 57.0453 215.52 61.4013C212.616 65.7573 207.908 67.9353 201.396 67.9353C194.884 67.9353 190.154 65.7573 187.206 61.4013C184.302 57.0453 182.85 51.0393 182.85 43.3833ZM208.854 43.3833C208.854 38.9393 208.37 35.5293 207.402 33.1533C206.434 30.7333 204.432 29.5233 201.396 29.5233C198.36 29.5233 196.358 30.7333 195.39 33.1533C194.422 35.5293 193.938 38.9393 193.938 43.3833C193.938 46.3753 194.114 48.8613 194.466 50.8413C194.818 52.7773 195.522 54.3613 196.578 55.5933C197.678 56.7813 199.284 57.3753 201.396 57.3753C203.508 57.3753 205.092 56.7813 206.148 55.5933C207.248 54.3613 207.974 52.7773 208.326 50.8413C208.678 48.8613 208.854 46.3753 208.854 43.3833ZM226.301 33.5493C226.477 28.8413 228.017 25.2113 230.921 22.6593C233.825 20.1073 237.763 18.8313 242.735 18.8313C246.035 18.8313 248.851 19.4033 251.183 20.5473C253.559 21.6913 255.341 23.2533 256.529 25.2333C257.761 27.2133 258.377 29.4353 258.377 31.8993C258.377 34.8033 257.651 37.1793 256.199 39.0273C254.747 40.8313 253.053 42.0633 251.117 42.7233V42.9873C253.625 43.8233 255.605 45.2093 257.057 47.1453C258.509 49.0813 259.235 51.5673 259.235 54.6033C259.235 57.3313 258.597 59.7513 257.321 61.8633C256.089 63.9313 254.263 65.5593 251.843 66.7473C249.467 67.9353 246.629 68.5293 243.329 68.5293C238.049 68.5293 233.825 67.2313 230.657 64.6353C227.533 62.0393 225.883 58.1233 225.707 52.8873H236.663C236.707 54.8233 237.257 56.3633 238.313 57.5073C239.369 58.6073 240.909 59.1573 242.933 59.1573C244.649 59.1573 245.969 58.6733 246.893 57.7053C247.861 56.6933 248.345 55.3733 248.345 53.7453C248.345 51.6333 247.663 50.1153 246.299 49.1913C244.979 48.2233 242.845 47.7393 239.897 47.7393H237.785V38.5653H239.897C242.141 38.5653 243.945 38.1913 245.309 37.4433C246.717 36.6513 247.421 35.2653 247.421 33.2853C247.421 31.7013 246.981 30.4693 246.101 29.5893C245.221 28.7093 244.011 28.2693 242.471 28.2693C240.799 28.2693 239.545 28.7753 238.709 29.7873C237.917 30.7993 237.455 32.0533 237.323 33.5493H226.301Z" fill="#FFE500"/>
<path d="M212.21 83.15V104H208.79V89.72L202.43 104H200.06L193.67 89.72V104H190.25V83.15H193.94L201.26 99.5L208.55 83.15H212.21ZM223.875 104.27C222.315 104.27 220.905 103.92 219.645 103.22C218.385 102.5 217.395 101.5 216.675 100.22C215.955 98.92 215.595 97.42 215.595 95.72C215.595 94.04 215.965 92.55 216.705 91.25C217.445 89.95 218.455 88.95 219.735 88.25C221.015 87.55 222.445 87.2 224.025 87.2C225.605 87.2 227.035 87.55 228.315 88.25C229.595 88.95 230.605 89.95 231.345 91.25C232.085 92.55 232.455 94.04 232.455 95.72C232.455 97.4 232.075 98.89 231.315 100.19C230.555 101.49 229.515 102.5 228.195 103.22C226.895 103.92 225.455 104.27 223.875 104.27ZM223.875 101.3C224.755 101.3 225.575 101.09 226.335 100.67C227.115 100.25 227.745 99.62 228.225 98.78C228.705 97.94 228.945 96.92 228.945 95.72C228.945 94.52 228.715 93.51 228.255 92.69C227.795 91.85 227.185 91.22 226.425 90.8C225.665 90.38 224.845 90.17 223.965 90.17C223.085 90.17 222.265 90.38 221.505 90.8C220.765 91.22 220.175 91.85 219.735 92.69C219.295 93.51 219.075 94.52 219.075 95.72C219.075 97.5 219.525 98.88 220.425 99.86C221.345 100.82 222.495 101.3 223.875 101.3ZM244.176 87.2C245.476 87.2 246.636 87.47 247.656 88.01C248.696 88.55 249.506 89.35 250.086 90.41C250.666 91.47 250.956 92.75 250.956 94.25V104H247.566V94.76C247.566 93.28 247.196 92.15 246.456 91.37C245.716 90.57 244.706 90.17 243.426 90.17C242.146 90.17 241.126 90.57 240.366 91.37C239.626 92.15 239.256 93.28 239.256 94.76V104H235.836V87.47H239.256V89.36C239.816 88.68 240.526 88.15 241.386 87.77C242.266 87.39 243.196 87.2 244.176 87.2ZM256.698 104.21C256.078 104.21 255.558 104 255.138 103.58C254.718 103.16 254.508 102.64 254.508 102.02C254.508 101.4 254.718 100.88 255.138 100.46C255.558 100.04 256.078 99.83 256.698 99.83C257.298 99.83 257.808 100.04 258.228 100.46C258.648 100.88 258.858 101.4 258.858 102.02C258.858 102.64 258.648 103.16 258.228 103.58C257.808 104 257.298 104.21 256.698 104.21Z" fill="white"/>
<path d="M319.28 65.7093V67.3893H331.064V65.7093H319.28ZM326.192 60.0693V79.7973C326.192 80.2053 326.072 80.3253 325.664 80.3253C325.304 80.3493 324.104 80.3493 322.76 80.3253C323.048 80.8053 323.312 81.5973 323.408 82.0773C325.232 82.0773 326.336 82.0293 327.032 81.7173C327.704 81.4053 327.992 80.8773 327.992 79.7973V60.0693H326.192ZM325.904 66.4053C324.464 70.5573 321.656 74.8533 318.728 76.9173C319.136 77.2293 319.664 77.8293 319.976 78.2373C322.952 75.8613 325.76 71.4213 327.344 66.8373L325.904 66.4053ZM311.72 76.5333C311.12 78.2133 310.04 79.9173 308.792 81.0213C309.2 81.2613 309.944 81.7893 310.256 82.1013C311.504 80.8533 312.728 78.9093 313.448 76.9653L311.72 76.5333ZM315.152 77.2053C316.112 78.4053 317.192 80.0853 317.672 81.1653L319.208 80.3733C318.728 79.2933 317.6 77.7093 316.592 76.5093L315.152 77.2053ZM311.792 66.8853H316.736V69.9813H311.792V66.8853ZM311.792 71.3733H316.736V74.5173H311.792V71.3733ZM311.792 62.3973H316.736V65.4693H311.792V62.3973ZM310.064 60.9093V76.0053H318.512V60.9093H310.064ZM337.064 64.0053V65.1573H350.84V64.0053H337.064ZM336.776 74.2773V75.4053H351.2V74.2773H336.776ZM339.344 76.1253C340.136 76.7973 341.024 77.7573 341.432 78.4053L342.656 77.7093C342.248 77.0613 341.312 76.1253 340.496 75.5253L339.344 76.1253ZM339.44 68.9973H348.512V70.0533H339.44V68.9973ZM339.44 67.0773H348.512V68.0853H339.44V67.0773ZM338 66.1413V71.0133H350V66.1413H338ZM346.208 73.3893V77.5893C346.208 77.8293 346.136 77.9013 345.872 77.9013C345.608 77.9253 344.696 77.9253 343.712 77.9013C343.88 78.2133 344.072 78.5973 344.144 78.9573C345.584 78.9573 346.496 78.9573 347.024 78.7653C347.6 78.5973 347.744 78.3573 347.744 77.6373V73.3893H346.208ZM337.112 72.2373L337.208 73.3893C340.304 73.3413 344.744 73.1973 349.064 73.0533L349.112 72.0933C344.648 72.1893 340.088 72.2373 337.112 72.2373ZM347.048 71.6373C347.96 72.3333 349.112 73.4133 349.664 74.1333L350.696 73.3413C350.144 72.6693 349.016 71.6613 348.032 70.9653L347.048 71.6373ZM343.112 62.9013V72.6933L344.648 72.5973V62.9013H343.112ZM334.304 61.0773V82.0773H335.96V62.5173H351.992V81.9573H353.72V61.0773H334.304ZM335.12 79.3653V80.8053H352.736V79.3653H335.12ZM363.368 70.0773V71.7813H378.8V70.0773H363.368ZM364.592 63.9093V65.6373H377.672V63.9093H364.592ZM370.088 59.9973V71.3013H371.936V59.9973H370.088ZM363.392 79.1253L363.656 80.9493C367.064 80.7333 372.08 80.3973 376.856 80.0373V78.4053C371.888 78.6933 366.656 78.9813 363.392 79.1253ZM373.064 75.0213C374.864 77.2053 376.784 80.2053 377.528 82.1013L379.208 81.1653C378.416 79.2213 376.424 76.3653 374.6 74.2293L373.064 75.0213ZM368.48 71.2053C367.736 73.7733 366.32 77.3733 365.144 79.6053L366.728 80.1573C367.928 77.9733 369.368 74.5413 370.424 71.7573L368.48 71.2053ZM358.184 61.4853C359.864 62.1333 361.88 63.2613 362.888 64.1253L363.92 62.6133C362.888 61.7733 360.824 60.7413 359.192 60.1413L358.184 61.4853ZM356.912 68.1093C358.592 68.6853 360.656 69.6933 361.688 70.4613L362.672 68.9493C361.592 68.1813 359.48 67.2453 357.848 66.7173L356.912 68.1093ZM357.752 80.5893L359.312 81.7653C360.656 79.5333 362.24 76.5333 363.44 73.9893L362.096 72.8613C360.776 75.5733 358.976 78.7413 357.752 80.5893ZM390.752 60.7173C390.584 63.9093 390.584 75.4533 380.792 80.4453C381.344 80.8533 381.944 81.4053 382.256 81.8613C392.192 76.4613 392.552 64.4853 392.744 60.7173H390.752ZM392.672 61.1973L390.944 61.3653C391.112 63.5733 391.784 76.9893 401.96 81.8613C402.248 81.3573 402.8 80.7573 403.328 80.3493C393.44 75.8133 392.744 63.0693 392.672 61.1973ZM416.12 64.4613V65.8053H425.072V64.4613H416.12ZM416.12 67.8213V69.1653H425.072V67.8213H416.12ZM413.312 71.2053V72.8133H427.04V71.2053H413.312ZM415.28 60.8853V72.0453H417.008V62.4693H426.008V60.8853H415.28ZM413.288 80.0133L413.624 81.7413C415.88 81.3333 418.832 80.8053 421.688 80.2533L421.616 78.6693C418.544 79.1973 415.376 79.7253 413.288 80.0133ZM420.608 71.9733L419.096 72.2613C420.248 76.8693 422.48 80.4213 426.176 82.1013C426.44 81.6213 426.968 80.9013 427.376 80.5413C423.848 79.1973 421.616 75.9813 420.608 71.9733ZM425.48 73.4853C424.496 74.4453 422.744 75.8373 421.448 76.6533L422.576 77.3733C423.896 76.6293 425.6 75.4533 426.968 74.3493L425.48 73.4853ZM415.328 71.7573V80.3973L417.056 80.0613V71.7573H415.328ZM406.112 71.7093V73.3413H412.28V71.7093H406.112ZM411.488 71.7093V71.9973C411.152 77.5173 410.744 79.6293 410.192 80.1813C410 80.3973 409.76 80.4453 409.352 80.4453C408.944 80.4453 407.888 80.4453 406.784 80.3253C407.048 80.7813 407.24 81.5013 407.264 82.0053C408.416 82.0773 409.544 82.0773 410.12 82.0293C410.84 81.9813 411.272 81.7893 411.728 81.3333C412.448 80.5413 412.832 78.3093 413.216 72.4773C413.264 72.2373 413.288 71.7093 413.288 71.7093H411.488ZM406.184 66.7413C405.968 69.0933 405.512 72.2373 405.128 74.1573L406.808 74.3493C407.168 72.4053 407.576 69.2133 407.84 66.7413H406.184ZM406.424 66.7413V68.4213H412.88V61.2453H405.44V62.9013H411.224V66.7413H406.424ZM430.688 73.1973V74.7813H449.504V73.1973H430.688ZM439.016 70.7013V82.0293H440.816V70.7013H439.016ZM438.608 73.8453C436.712 76.5813 432.92 78.8373 429.032 79.7973C429.44 80.1813 429.944 80.8533 430.208 81.3333C434.144 80.1333 437.984 77.6133 440.072 74.4453L438.608 73.8453ZM441.344 73.9893L439.928 74.5893C442.04 77.6373 445.832 80.2053 449.576 81.4293C449.864 80.9253 450.416 80.2053 450.848 79.8213C447.104 78.8373 443.288 76.5813 441.344 73.9893ZM430.016 68.4933V72.3813H431.744V70.0773H448.256V72.3813H450.056V68.4933H430.016ZM438.224 61.2453C437.816 62.0133 437.048 63.1893 436.448 63.9093L437.552 64.4373C438.2 63.7653 438.992 62.7813 439.736 61.8213L438.224 61.2453ZM433.952 65.0613C435.248 65.9013 436.952 67.1253 437.792 67.8693L439.016 66.7413C438.104 66.0213 436.376 64.8693 435.104 64.0533L433.952 65.0613ZM434.288 59.9733C434.12 64.1493 433.4 66.0453 429.152 67.1253C429.464 67.4133 429.92 68.0373 430.064 68.4453C434.768 67.1493 435.704 64.7733 435.92 59.9733H434.288ZM431.552 61.2933C431.192 62.3973 430.472 63.5733 429.488 64.2453L430.616 64.9653C431.72 64.1973 432.368 62.9253 432.776 61.7013L431.552 61.2933ZM448.736 61.1973C448.28 62.0133 447.392 63.2373 446.72 64.0053L447.848 64.5333C448.568 63.8373 449.504 62.8053 450.296 61.7973L448.736 61.1973ZM444.008 64.8933C445.712 65.9973 447.992 67.5813 449.144 68.5173L450.296 67.2933C449.12 66.3813 446.792 64.8933 445.136 63.8613L444.008 64.8933ZM444.32 59.9733C444.128 63.9093 443.432 65.8053 439.424 66.8853C439.76 67.1973 440.192 67.7973 440.36 68.2053C444.824 66.8853 445.76 64.5333 445.952 59.9733H444.32ZM441.512 61.1973C441.2 62.3493 440.48 63.5253 439.424 64.1493L440.576 64.8933C441.752 64.1493 442.352 62.8773 442.76 61.6053L441.512 61.1973ZM464.888 67.1973V68.6133H469.88V67.1973H464.888ZM463.352 74.1573V75.4533H471.44V74.1573H463.352ZM455.312 61.0053V62.4693H462.032V61.0053H455.312ZM461.528 61.0053V61.2933C460.064 64.5573 456.248 67.1253 452.648 68.2053C452.984 68.5173 453.416 69.1413 453.632 69.5493C457.52 68.2053 461.48 65.5173 463.28 61.4853L462.152 60.9333L461.84 61.0053H461.528ZM465.32 59.9733L463.856 60.4293C465.8 64.6293 469.472 67.7973 474.056 69.2133C474.32 68.7813 474.776 68.1573 475.16 67.7973C470.696 66.6213 467.048 63.6933 465.32 59.9733ZM470.216 60.1413C469.352 61.1253 467.768 62.4693 466.664 63.2853L467.72 64.1253C468.872 63.3333 470.384 62.1813 471.56 61.0773L470.216 60.1413ZM473.096 62.5653C472.208 63.5013 470.576 64.8453 469.424 65.6373L470.528 66.4773C471.704 65.7333 473.264 64.5813 474.416 63.4773L473.096 62.5653ZM456.056 67.2933V68.7093H460.328V73.0533H461.936V67.2933H456.056ZM455.432 71.2293C455.168 72.9813 454.688 75.2373 454.28 76.6773L455.792 76.9413C456.176 75.4533 456.656 73.1013 456.992 71.2293H455.432ZM460.328 74.8773V75.1173C460.04 78.5493 459.776 79.9173 459.344 80.3253C459.152 80.5173 458.888 80.5413 458.432 80.5413C457.976 80.5413 456.68 80.5173 455.336 80.3973C455.624 80.8293 455.816 81.4773 455.864 81.9573C457.184 82.0053 458.456 82.0293 459.08 82.0053C459.824 81.9333 460.256 81.8133 460.688 81.4053C461.312 80.7813 461.624 79.2453 461.936 75.5973C461.96 75.3813 461.984 74.8773 461.984 74.8773H460.328ZM464.24 67.1973V69.0693C464.24 70.2213 463.928 71.5413 462.008 72.5733C462.344 72.7893 462.92 73.3653 463.16 73.7013C465.296 72.4533 465.8 70.6533 465.8 69.0933V67.1973H464.24ZM471.032 74.1573V74.3973C469.712 78.0213 466.112 79.9893 461.984 80.7573C462.272 81.0933 462.632 81.6933 462.776 82.0773C467.312 81.0693 471.08 78.9333 472.664 74.4693L471.632 74.0853L471.344 74.1573H471.032ZM465.632 75.3573L464.216 75.7413C465.8 79.1013 469.016 81.2373 473.408 82.0533C473.648 81.6213 474.104 80.9253 474.488 80.5653C470.24 79.9653 467.024 78.1413 465.632 75.3573ZM456.224 71.2293L455.984 72.6453H460.928V71.2293H456.224ZM455.504 74.8773L455.24 76.2693H460.784V74.8773H455.504ZM469.04 67.1973V70.7973C469.04 71.9493 469.16 72.3093 469.496 72.6213C469.808 72.8853 470.336 72.9813 470.816 72.9813C471.056 72.9813 471.728 72.9813 471.992 72.9813C472.328 72.9813 472.808 72.9573 473.048 72.8613C473.36 72.7653 473.648 72.5733 473.768 72.3093C473.936 72.0213 474.008 71.3253 474.056 70.7013C473.624 70.5813 473.048 70.2933 472.736 70.0293C472.712 70.6293 472.688 71.0853 472.64 71.3013C472.568 71.4693 472.448 71.5893 472.352 71.6373C472.28 71.6613 472.04 71.6613 471.824 71.6613C471.608 71.6613 471.296 71.6613 471.128 71.6613C470.936 71.6613 470.816 71.6613 470.72 71.5893C470.624 71.5173 470.624 71.2773 470.624 70.9413V67.1973H469.04ZM454.664 63.8613C455.792 64.5573 457.112 65.5893 457.736 66.3333L458.84 65.2293C458.192 64.5333 456.824 63.5253 455.72 62.8773L454.664 63.8613ZM478.208 62.3013V63.8373H497.864V62.3013H478.208ZM478.976 79.8933V81.4053H497.144V79.8933H478.976ZM482.936 65.4213V66.7893H493.04V65.4213H482.936ZM482.936 68.4453V69.8133H493.04V68.4453H482.936ZM477.08 71.5413V73.0533H498.896V71.5413H477.08ZM482.12 75.8373V77.3253H493.904V75.8373H482.12ZM481.856 59.9973V72.3813H483.656V59.9973H481.856ZM492.416 59.9973V72.3813H494.216V59.9973H492.416ZM487.016 73.8213V80.7333H488.864V73.8213H487.016ZM483.128 71.9493C481.832 74.0613 479.264 76.1253 476.84 77.0853C477.248 77.4213 477.752 78.0453 478.016 78.4533C480.536 77.2773 483.176 74.9973 484.64 72.5253L483.128 71.9493ZM492.944 71.9493L491.528 72.5013C492.92 74.8533 495.464 77.0853 498.008 78.1653C498.272 77.7333 498.8 77.1093 499.208 76.7733C496.712 75.8853 494.216 73.9893 492.944 71.9493ZM511.904 61.7253C514.112 64.7013 518.288 67.9893 522.008 69.9093C522.32 69.3813 522.752 68.7573 523.184 68.3253C519.416 66.6453 515.264 63.4293 512.72 59.9493H510.872C509.024 62.9733 505.04 66.5253 500.888 68.6133C501.272 68.9973 501.776 69.6213 501.992 70.0533C506.048 67.8933 509.912 64.5813 511.904 61.7253ZM505.952 67.2933V68.9253H518V67.2933H505.952ZM502.856 72.1173V73.7253H521.12V72.1173H502.856ZM501.752 79.7013V81.2853H522.272V79.7013H501.752ZM510.944 67.9173V80.5413H512.84V67.9173H510.944ZM504.848 74.9493C505.808 76.2933 506.744 78.1653 507.056 79.3653L508.616 78.6933C508.28 77.4933 507.296 75.6693 506.312 74.3493L504.848 74.9493ZM517.4 74.3013C516.8 75.6693 515.672 77.5893 514.808 78.7653L516.176 79.3653C517.064 78.2373 518.192 76.5093 519.104 74.9973L517.4 74.3013ZM529.448 68.1813H542.624V71.8053H529.448V68.1813ZM527.912 66.9573V73.0293H544.256V66.9573H527.912ZM531.848 64.3653V65.6373H540.224V64.3653H531.848ZM535.136 67.3413V72.3573H536.672V67.3413H535.136ZM535.88 61.4373C538.328 63.7893 542.648 66.1653 546.176 67.3893C546.44 66.9333 546.848 66.2853 547.232 65.9013C543.512 64.7973 539.336 62.5893 536.624 59.9733H534.92C532.928 62.3013 528.872 64.7493 524.792 66.1413C525.128 66.5253 525.536 67.1493 525.752 67.5573C529.736 66.0693 533.744 63.6213 535.88 61.4373ZM530.912 68.9013C531.512 69.7653 532.064 70.9413 532.256 71.7093L533.648 71.2053C533.408 70.4373 532.832 69.3093 532.208 68.4693L530.912 68.9013ZM539.552 68.3733C539.264 69.1893 538.64 70.4613 538.184 71.2773L539.456 71.7093C539.936 70.9893 540.536 69.8853 541.088 68.8533L539.552 68.3733ZM529.328 74.1813V82.0533H531.104V75.4533H541.064V82.0293H542.888V74.1813H529.328ZM530.384 77.0613V78.3813H541.856V77.0613H530.384ZM530.384 80.0133V81.3093H541.856V80.0133H530.384ZM315.344 108.493C313.392 108.493 311.84 108.061 310.688 107.197C309.536 106.317 308.96 105.077 308.96 103.477C308.96 102.437 309.216 101.565 309.728 100.861C310.256 100.157 310.952 99.6693 311.816 99.3973C311.096 99.0453 310.536 98.5493 310.136 97.9093C309.736 97.2533 309.536 96.5093 309.536 95.6773C309.536 94.2213 310.064 93.0773 311.12 92.2453C312.176 91.4133 313.584 90.9973 315.344 90.9973C317.12 90.9973 318.528 91.4133 319.568 92.2453C320.624 93.0773 321.152 94.2213 321.152 95.6773C321.152 96.5093 320.952 97.2533 320.552 97.9093C320.152 98.5493 319.592 99.0453 318.872 99.3973C319.736 99.6693 320.424 100.157 320.936 100.861C321.464 101.565 321.728 102.437 321.728 103.477C321.728 105.077 321.152 106.317 320 107.197C318.864 108.061 317.312 108.493 315.344 108.493ZM315.344 98.5333C316.24 98.5333 316.96 98.3013 317.504 97.8373C318.048 97.3573 318.32 96.7173 318.32 95.9173C318.32 95.1173 318.04 94.4693 317.48 93.9733C316.936 93.4773 316.224 93.2293 315.344 93.2293C314.464 93.2293 313.752 93.4773 313.208 93.9733C312.664 94.4693 312.392 95.1173 312.392 95.9173C312.392 96.7173 312.664 97.3573 313.208 97.8373C313.752 98.3013 314.464 98.5333 315.344 98.5333ZM315.344 106.309C316.384 106.309 317.208 106.045 317.816 105.517C318.424 104.973 318.728 104.229 318.728 103.285C318.728 102.373 318.416 101.653 317.792 101.125C317.168 100.597 316.352 100.333 315.344 100.333C314.336 100.333 313.52 100.597 312.896 101.125C312.272 101.653 311.96 102.373 311.96 103.285C311.96 104.229 312.264 104.973 312.872 105.517C313.496 106.045 314.32 106.309 315.344 106.309ZM330.879 108.493C329.407 108.493 328.127 108.141 327.039 107.437C325.951 106.733 325.111 105.725 324.519 104.413C323.943 103.101 323.655 101.549 323.655 99.7573C323.655 97.9653 323.943 96.4133 324.519 95.1013C325.095 93.7733 325.919 92.7573 326.991 92.0533C328.079 91.3493 329.375 90.9973 330.879 90.9973C332.367 90.9973 333.655 91.3493 334.743 92.0533C335.831 92.7573 336.663 93.7733 337.239 95.1013C337.815 96.4133 338.103 97.9653 338.103 99.7573C338.103 101.549 337.815 103.101 337.239 104.413C336.663 105.725 335.831 106.733 334.743 107.437C333.655 108.141 332.367 108.493 330.879 108.493ZM330.879 105.757C332.207 105.757 333.231 105.229 333.951 104.173C334.687 103.101 335.055 101.637 335.055 99.7813C335.055 97.9253 334.695 96.4613 333.975 95.3893C333.255 94.3173 332.231 93.7813 330.903 93.7813C329.575 93.7813 328.543 94.3173 327.807 95.3893C327.087 96.4613 326.727 97.9253 326.727 99.7813C326.727 101.637 327.087 103.101 327.807 104.173C328.543 105.229 329.567 105.757 330.879 105.757ZM343.567 94.5733L340.015 97.1413V94.3093L344.047 91.3573H346.591V108.133H343.567V94.5733ZM353.479 96.1813H366.655V99.8053H353.479V96.1813ZM351.943 94.9573V101.029H368.287V94.9573H351.943ZM355.879 92.3653V93.6373H364.255V92.3653H355.879ZM359.167 95.3413V100.357H360.703V95.3413H359.167ZM359.911 89.4373C362.359 91.7893 366.679 94.1653 370.207 95.3893C370.471 94.9333 370.879 94.2853 371.263 93.9013C367.543 92.7973 363.367 90.5893 360.655 87.9733H358.951C356.959 90.3013 352.903 92.7493 348.823 94.1413C349.159 94.5253 349.567 95.1493 349.783 95.5573C353.767 94.0693 357.775 91.6213 359.911 89.4373ZM354.943 96.9013C355.543 97.7653 356.095 98.9413 356.287 99.7093L357.679 99.2053C357.439 98.4373 356.863 97.3093 356.239 96.4693L354.943 96.9013ZM363.583 96.3733C363.295 97.1893 362.671 98.4613 362.215 99.2773L363.487 99.7093C363.967 98.9893 364.567 97.8853 365.119 96.8533L363.583 96.3733ZM353.359 102.181V110.053H355.135V103.453H365.095V110.029H366.919V102.181H353.359ZM354.415 105.061V106.381H365.887V105.061H354.415ZM354.415 108.013V109.309H365.887V108.013H354.415ZM386.935 90.7333V96.7333H388.687V90.7333H386.935ZM384.055 99.1333V108.373C384.055 108.637 383.983 108.709 383.695 108.733C383.407 108.733 382.471 108.733 381.463 108.709C381.655 109.117 381.895 109.693 381.967 110.077C383.359 110.077 384.295 110.053 384.895 109.837C385.471 109.621 385.639 109.213 385.639 108.397V99.1333H384.055ZM391.039 87.9493C390.751 88.6213 390.151 89.6773 389.695 90.3493L390.943 90.8053C391.447 90.1813 392.071 89.3413 392.623 88.4293L391.039 87.9493ZM383.287 88.4773C383.887 89.2213 384.487 90.2053 384.751 90.8773L386.119 90.3013C385.855 89.6293 385.183 88.6453 384.583 87.9733L383.287 88.4773ZM390.991 98.9173C391.951 99.5653 393.079 100.549 393.583 101.293L394.687 100.381C394.159 99.6853 393.031 98.7253 392.047 98.1013L390.991 98.9173ZM380.575 105.229L380.791 106.693C382.903 106.381 385.615 105.973 388.279 105.565L388.231 104.221C385.399 104.629 382.543 104.989 380.575 105.229ZM386.983 97.9573C385.615 98.4613 383.119 98.8693 381.007 99.1093C381.175 99.4453 381.367 99.9493 381.439 100.261C383.623 100.045 386.263 99.6373 388.063 99.0613L386.983 97.9573ZM381.535 90.3493V91.6693H394.351V90.3493H381.535ZM382.327 93.2293V94.4773H393.703V93.2293H382.327ZM380.671 96.1573V97.5253H394.855V96.1573H380.671ZM380.647 101.581V102.973H394.903V101.581H380.647ZM388.519 98.1013C388.759 105.661 390.223 110.245 393.175 110.245C394.375 110.245 394.951 109.549 395.215 107.365C394.855 107.221 394.375 107.005 394.063 106.693C393.943 108.253 393.727 108.781 393.319 108.781C391.639 108.805 390.175 105.181 390.079 98.1013H388.519ZM392.527 103.501C391.303 105.829 388.855 107.749 386.359 108.829C386.671 109.093 387.079 109.525 387.271 109.813C389.863 108.637 392.455 106.573 393.847 104.125L392.527 103.501ZM373.927 95.2453V96.6853H380.095V95.2453H373.927ZM374.071 88.8373V90.2773H380.023V88.8373H374.071ZM373.927 98.4613V99.9013H380.095V98.4613H373.927ZM372.943 91.9813V93.4693H380.695V91.9813H372.943ZM374.767 101.701V103.189H378.559V107.197H374.767V108.685H380.071V101.701H374.767ZM373.879 101.701V109.813H375.367V101.701H373.879ZM400.951 92.6053V93.8533H408.775V92.6053H400.951ZM402.631 95.1973V96.2293H407.023V95.1973H402.631ZM402.631 97.6453V98.7013H407.023V97.6453H402.631ZM400.783 102.829V103.981H405.487V102.829H400.783ZM400.855 105.301V106.453H405.415V105.301H400.855ZM408.943 93.3493V94.6693H418.543V93.3493H408.943ZM408.535 101.797V103.093H418.999V101.797H408.535ZM412.831 91.9093V96.7813H414.367V91.9093H412.831ZM402.079 93.2293V100.837H403.447V93.2293H402.079ZM402.511 103.309V108.469H403.735V103.309H402.511ZM406.159 93.2293V110.101H407.575V93.2293H406.159ZM415.567 97.1653H417.151V99.4933H415.567V97.1653ZM412.903 97.1653H414.463V99.4933H412.903V97.1653ZM410.359 97.1653H411.823V99.4933H410.359V97.1653ZM409.135 96.0133V100.645H418.375V96.0133H409.135ZM400.591 100.453L400.735 101.797C402.559 101.677 404.839 101.485 407.143 101.269L407.167 100.045C404.695 100.213 402.319 100.381 400.591 100.453ZM400.231 108.229L400.399 109.477C401.935 109.309 403.711 109.069 405.559 108.829L405.535 107.677C403.519 107.893 401.647 108.109 400.231 108.229ZM411.367 104.893V108.229C411.367 109.621 411.703 109.933 413.095 109.933C413.359 109.933 414.679 109.933 414.967 109.933C416.023 109.933 416.407 109.477 416.551 107.581C416.143 107.485 415.615 107.293 415.327 107.077C415.279 108.541 415.207 108.685 414.775 108.685C414.487 108.685 413.455 108.685 413.263 108.685C412.807 108.685 412.735 108.637 412.735 108.229V104.893H411.367ZM409.231 105.037C409.087 106.333 408.727 107.797 408.127 108.661L409.303 109.261C409.975 108.325 410.287 106.765 410.431 105.397L409.231 105.037ZM416.023 105.301C416.911 106.525 417.703 108.157 417.919 109.237L419.215 108.733C418.975 107.629 418.159 106.045 417.271 104.845L416.023 105.301ZM411.775 103.669C412.831 104.197 414.079 105.061 414.655 105.685L415.591 104.725C414.967 104.101 413.719 103.309 412.639 102.805L411.775 103.669ZM407.791 87.9973V90.6853H409.639V87.9973H407.791ZM399.727 89.7493V91.2133H418.783V89.7493H399.727ZM398.551 89.7493V97.3333C398.551 100.813 398.431 105.685 396.799 109.141C397.183 109.309 397.903 109.813 398.191 110.125C399.919 106.477 400.183 101.029 400.183 97.3093V89.7493H398.551Z" fill="white"/>
<path d="M286.82 25.3C285.593 25.3 284.527 25.0067 283.62 24.42C282.713 23.8333 282.013 22.9933 281.52 21.9C281.04 20.8067 280.8 19.5133 280.8 18.02C280.8 16.5267 281.04 15.2333 281.52 14.14C282 13.0333 282.687 12.1867 283.58 11.6C284.487 11.0133 285.567 10.72 286.82 10.72C288.06 10.72 289.133 11.0133 290.04 11.6C290.947 12.1867 291.64 13.0333 292.12 14.14C292.6 15.2333 292.84 16.5267 292.84 18.02C292.84 19.5133 292.6 20.8067 292.12 21.9C291.64 22.9933 290.947 23.8333 290.04 24.42C289.133 25.0067 288.06 25.3 286.82 25.3ZM286.82 23.02C287.927 23.02 288.78 22.58 289.38 21.7C289.993 20.8067 290.3 19.5867 290.3 18.04C290.3 16.4933 290 15.2733 289.4 14.38C288.8 13.4867 287.947 13.04 286.84 13.04C285.733 13.04 284.873 13.4867 284.26 14.38C283.66 15.2733 283.36 16.4933 283.36 18.04C283.36 19.5867 283.66 20.8067 284.26 21.7C284.873 22.58 285.727 23.02 286.82 23.02ZM298.433 25.3C297.619 25.3 296.899 25.2067 296.273 25.02V22.98C296.793 23.22 297.446 23.34 298.233 23.34C299.539 23.34 300.573 22.9533 301.333 22.18C302.093 21.3933 302.546 20.26 302.693 18.78C301.839 19.6867 300.633 20.14 299.073 20.14C298.166 20.14 297.359 19.9533 296.653 19.58C295.959 19.2067 295.413 18.6733 295.013 17.98C294.626 17.2867 294.433 16.4733 294.433 15.54C294.433 14.62 294.639 13.7933 295.053 13.06C295.466 12.3267 296.073 11.7533 296.873 11.34C297.686 10.9267 298.646 10.72 299.753 10.72C300.793 10.72 301.726 10.96 302.553 11.44C303.379 11.92 304.026 12.62 304.493 13.54C304.973 14.46 305.213 15.56 305.213 16.84C305.213 18.64 304.939 20.1733 304.393 21.44C303.859 22.7067 303.079 23.6667 302.053 24.32C301.039 24.9733 299.833 25.3 298.433 25.3ZM299.753 18.28C300.553 18.28 301.219 18.0133 301.753 17.48C302.286 16.9333 302.553 16.2467 302.553 15.42C302.553 14.9133 302.433 14.4467 302.193 14.02C301.966 13.58 301.639 13.2333 301.213 12.98C300.799 12.7133 300.313 12.58 299.753 12.58C298.899 12.58 298.213 12.84 297.693 13.36C297.186 13.88 296.933 14.5667 296.933 15.42C296.933 16.2867 297.186 16.98 297.693 17.5C298.213 18.02 298.899 18.28 299.753 18.28ZM308.136 17.88C307.776 17.88 307.462 17.7533 307.196 17.5C306.942 17.2333 306.816 16.92 306.816 16.56C306.816 16.2 306.942 15.8933 307.196 15.64C307.462 15.3733 307.776 15.24 308.136 15.24C308.496 15.24 308.802 15.3733 309.056 15.64C309.322 15.8933 309.456 16.2 309.456 16.56C309.456 16.92 309.322 17.2333 309.056 17.5C308.802 17.7533 308.496 17.88 308.136 17.88ZM308.136 24.68C307.776 24.68 307.462 24.5533 307.196 24.3C306.942 24.0333 306.816 23.72 306.816 23.36C306.816 23 306.942 22.6933 307.196 22.44C307.462 22.1733 307.776 22.04 308.136 22.04C308.496 22.04 308.802 22.1733 309.056 22.44C309.322 22.6933 309.456 23 309.456 23.36C309.456 23.72 309.322 24.0333 309.056 24.3C308.802 24.5533 308.496 24.68 308.136 24.68ZM311.054 23.36L313.814 20.82L315.134 19.64C315.867 19 316.421 18.4867 316.794 18.1C317.181 17.7133 317.494 17.3 317.734 16.86C317.974 16.4067 318.094 15.92 318.094 15.4C318.094 14.64 317.867 14.06 317.414 13.66C316.974 13.2467 316.341 13.04 315.514 13.04C314.874 13.04 314.207 13.16 313.514 13.4C312.834 13.6267 312.214 13.9533 311.654 14.38V11.96C312.814 11.1333 314.241 10.72 315.934 10.72C317.427 10.72 318.587 11.12 319.414 11.92C320.241 12.72 320.654 13.8133 320.654 15.2C320.654 15.8533 320.527 16.4667 320.274 17.04C320.021 17.6 319.661 18.1467 319.194 18.68C318.727 19.2133 318.094 19.8467 317.294 20.58L314.794 22.9H321.154V25H311.054V23.36ZM328.773 25.3C327.546 25.3 326.48 25.0067 325.573 24.42C324.666 23.8333 323.966 22.9933 323.473 21.9C322.993 20.8067 322.753 19.5133 322.753 18.02C322.753 16.5267 322.993 15.2333 323.473 14.14C323.953 13.0333 324.64 12.1867 325.533 11.6C326.44 11.0133 327.52 10.72 328.773 10.72C330.013 10.72 331.086 11.0133 331.993 11.6C332.9 12.1867 333.593 13.0333 334.073 14.14C334.553 15.2333 334.793 16.5267 334.793 18.02C334.793 19.5133 334.553 20.8067 334.073 21.9C333.593 22.9933 332.9 23.8333 331.993 24.42C331.086 25.0067 330.013 25.3 328.773 25.3ZM328.773 23.02C329.88 23.02 330.733 22.58 331.333 21.7C331.946 20.8067 332.253 19.5867 332.253 18.04C332.253 16.4933 331.953 15.2733 331.353 14.38C330.753 13.4867 329.9 13.04 328.793 13.04C327.686 13.04 326.826 13.4867 326.213 14.38C325.613 15.2733 325.313 16.4933 325.313 18.04C325.313 19.5867 325.613 20.8067 326.213 21.7C326.826 22.58 327.68 23.02 328.773 23.02ZM350.553 19.74C350.18 19.74 349.806 19.6867 349.433 19.58C349.073 19.4733 348.646 19.32 348.153 19.12C347.606 18.92 347.173 18.7733 346.853 18.68C346.533 18.5867 346.2 18.54 345.853 18.54C344.92 18.54 344.166 18.9333 343.593 19.72V17.46C343.806 17.14 344.106 16.8933 344.493 16.72C344.893 16.5467 345.346 16.46 345.853 16.46C346.226 16.46 346.586 16.5133 346.933 16.62C347.293 16.7133 347.753 16.8667 348.313 17.08C348.793 17.2667 349.2 17.4133 349.533 17.52C349.88 17.6133 350.22 17.66 350.553 17.66C351.486 17.66 352.24 17.2667 352.813 16.48V18.74C352.6 19.06 352.293 19.3067 351.893 19.48C351.506 19.6533 351.06 19.74 350.553 19.74ZM364.58 13.7L361.62 15.84V13.48L364.98 11.02H367.1V25H364.58V13.7ZM369.101 23.36L371.861 20.82L373.181 19.64C373.914 19 374.467 18.4867 374.841 18.1C375.227 17.7133 375.541 17.3 375.781 16.86C376.021 16.4067 376.141 15.92 376.141 15.4C376.141 14.64 375.914 14.06 375.461 13.66C375.021 13.2467 374.387 13.04 373.561 13.04C372.921 13.04 372.254 13.16 371.561 13.4C370.881 13.6267 370.261 13.9533 369.701 14.38V11.96C370.861 11.1333 372.287 10.72 373.981 10.72C375.474 10.72 376.634 11.12 377.461 11.92C378.287 12.72 378.701 13.8133 378.701 15.2C378.701 15.8533 378.574 16.4667 378.321 17.04C378.067 17.6 377.707 18.1467 377.241 18.68C376.774 19.2133 376.141 19.8467 375.341 20.58L372.841 22.9H379.201V25H369.101V23.36ZM382.12 17.88C381.76 17.88 381.447 17.7533 381.18 17.5C380.927 17.2333 380.8 16.92 380.8 16.56C380.8 16.2 380.927 15.8933 381.18 15.64C381.447 15.3733 381.76 15.24 382.12 15.24C382.48 15.24 382.787 15.3733 383.04 15.64C383.307 15.8933 383.44 16.2 383.44 16.56C383.44 16.92 383.307 17.2333 383.04 17.5C382.787 17.7533 382.48 17.88 382.12 17.88ZM382.12 24.68C381.76 24.68 381.447 24.5533 381.18 24.3C380.927 24.0333 380.8 23.72 380.8 23.36C380.8 23 380.927 22.6933 381.18 22.44C381.447 22.1733 381.76 22.04 382.12 22.04C382.48 22.04 382.787 22.1733 383.04 22.44C383.307 22.6933 383.44 23 383.44 23.36C383.44 23.72 383.307 24.0333 383.04 24.3C382.787 24.5533 382.48 24.68 382.12 24.68ZM391.058 25.3C389.832 25.3 388.765 25.0067 387.858 24.42C386.952 23.8333 386.252 22.9933 385.758 21.9C385.278 20.8067 385.038 19.5133 385.038 18.02C385.038 16.5267 385.278 15.2333 385.758 14.14C386.238 13.0333 386.925 12.1867 387.818 11.6C388.725 11.0133 389.805 10.72 391.058 10.72C392.298 10.72 393.372 11.0133 394.278 11.6C395.185 12.1867 395.878 13.0333 396.358 14.14C396.838 15.2333 397.078 16.5267 397.078 18.02C397.078 19.5133 396.838 20.8067 396.358 21.9C395.878 22.9933 395.185 23.8333 394.278 24.42C393.372 25.0067 392.298 25.3 391.058 25.3ZM391.058 23.02C392.165 23.02 393.018 22.58 393.618 21.7C394.232 20.8067 394.538 19.5867 394.538 18.04C394.538 16.4933 394.238 15.2733 393.638 14.38C393.038 13.4867 392.185 13.04 391.078 13.04C389.972 13.04 389.112 13.4867 388.498 14.38C387.898 15.2733 387.598 16.4933 387.598 18.04C387.598 19.5867 387.898 20.8067 388.498 21.7C389.112 22.58 389.965 23.02 391.058 23.02ZM404.691 25.3C403.464 25.3 402.398 25.0067 401.491 24.42C400.584 23.8333 399.884 22.9933 399.391 21.9C398.911 20.8067 398.671 19.5133 398.671 18.02C398.671 16.5267 398.911 15.2333 399.391 14.14C399.871 13.0333 400.558 12.1867 401.451 11.6C402.358 11.0133 403.438 10.72 404.691 10.72C405.931 10.72 407.004 11.0133 407.911 11.6C408.818 12.1867 409.511 13.0333 409.991 14.14C410.471 15.2333 410.711 16.5267 410.711 18.02C410.711 19.5133 410.471 20.8067 409.991 21.9C409.511 22.9933 408.818 23.8333 407.911 24.42C407.004 25.0067 405.931 25.3 404.691 25.3ZM404.691 23.02C405.798 23.02 406.651 22.58 407.251 21.7C407.864 20.8067 408.171 19.5867 408.171 18.04C408.171 16.4933 407.871 15.2733 407.271 14.38C406.671 13.4867 405.818 13.04 404.711 13.04C403.604 13.04 402.744 13.4867 402.131 14.38C401.531 15.2733 401.231 16.4933 401.231 18.04C401.231 19.5867 401.531 20.8067 402.131 21.7C402.744 22.58 403.598 23.02 404.691 23.02ZM422.511 28.48C420.511 26.0267 419.511 23.0667 419.511 19.6C419.511 16.1333 420.511 13.1733 422.511 10.72H425.111C423.084 13.32 422.071 16.28 422.071 19.6C422.071 22.92 423.084 25.88 425.111 28.48H422.511ZM432.328 25.3C431.101 25.3 430.034 25.0067 429.128 24.42C428.221 23.8333 427.521 22.9933 427.028 21.9C426.548 20.8067 426.308 19.5133 426.308 18.02C426.308 16.5267 426.548 15.2333 427.028 14.14C427.508 13.0333 428.194 12.1867 429.088 11.6C429.994 11.0133 431.074 10.72 432.328 10.72C433.568 10.72 434.641 11.0133 435.548 11.6C436.454 12.1867 437.148 13.0333 437.628 14.14C438.108 15.2333 438.348 16.5267 438.348 18.02C438.348 19.5133 438.108 20.8067 437.628 21.9C437.148 22.9933 436.454 23.8333 435.548 24.42C434.641 25.0067 433.568 25.3 432.328 25.3ZM432.328 23.02C433.434 23.02 434.288 22.58 434.888 21.7C435.501 20.8067 435.808 19.5867 435.808 18.04C435.808 16.4933 435.508 15.2733 434.908 14.38C434.308 13.4867 433.454 13.04 432.348 13.04C431.241 13.04 430.381 13.4867 429.768 14.38C429.168 15.2733 428.868 16.4933 428.868 18.04C428.868 19.5867 429.168 20.8067 429.768 21.7C430.381 22.58 431.234 23.02 432.328 23.02ZM445.261 25.3C443.634 25.3 442.341 24.94 441.381 24.22C440.421 23.4867 439.941 22.4533 439.941 21.12C439.941 20.2533 440.154 19.5267 440.581 18.94C441.021 18.3533 441.601 17.9467 442.321 17.72C441.721 17.4267 441.254 17.0133 440.921 16.48C440.587 15.9333 440.421 15.3133 440.421 14.62C440.421 13.4067 440.861 12.4533 441.741 11.76C442.621 11.0667 443.794 10.72 445.261 10.72C446.741 10.72 447.914 11.0667 448.781 11.76C449.661 12.4533 450.101 13.4067 450.101 14.62C450.101 15.3133 449.934 15.9333 449.601 16.48C449.267 17.0133 448.801 17.4267 448.201 17.72C448.921 17.9467 449.494 18.3533 449.921 18.94C450.361 19.5267 450.581 20.2533 450.581 21.12C450.581 22.4533 450.101 23.4867 449.141 24.22C448.194 24.94 446.901 25.3 445.261 25.3ZM445.261 17C446.007 17 446.607 16.8067 447.061 16.42C447.514 16.02 447.741 15.4867 447.741 14.82C447.741 14.1533 447.507 13.6133 447.041 13.2C446.587 12.7867 445.994 12.58 445.261 12.58C444.527 12.58 443.934 12.7867 443.481 13.2C443.027 13.6133 442.801 14.1533 442.801 14.82C442.801 15.4867 443.027 16.02 443.481 16.42C443.934 16.8067 444.527 17 445.261 17ZM445.261 23.48C446.127 23.48 446.814 23.26 447.321 22.82C447.827 22.3667 448.081 21.7467 448.081 20.96C448.081 20.2 447.821 19.6 447.301 19.16C446.781 18.72 446.101 18.5 445.261 18.5C444.421 18.5 443.741 18.72 443.221 19.16C442.701 19.6 442.441 20.2 442.441 20.96C442.441 21.7467 442.694 22.3667 443.201 22.82C443.721 23.26 444.407 23.48 445.261 23.48ZM453.507 17.88C453.147 17.88 452.833 17.7533 452.567 17.5C452.313 17.2333 452.187 16.92 452.187 16.56C452.187 16.2 452.313 15.8933 452.567 15.64C452.833 15.3733 453.147 15.24 453.507 15.24C453.867 15.24 454.173 15.3733 454.427 15.64C454.693 15.8933 454.827 16.2 454.827 16.56C454.827 16.92 454.693 17.2333 454.427 17.5C454.173 17.7533 453.867 17.88 453.507 17.88ZM453.507 24.68C453.147 24.68 452.833 24.5533 452.567 24.3C452.313 24.0333 452.187 23.72 452.187 23.36C452.187 23 452.313 22.6933 452.567 22.44C452.833 22.1733 453.147 22.04 453.507 22.04C453.867 22.04 454.173 22.1733 454.427 22.44C454.693 22.6933 454.827 23 454.827 23.36C454.827 23.72 454.693 24.0333 454.427 24.3C454.173 24.5533 453.867 24.68 453.507 24.68ZM460.445 25.3C459.698 25.3 458.965 25.22 458.245 25.06C457.525 24.9 456.918 24.68 456.425 24.4V22.26C456.985 22.6067 457.618 22.88 458.325 23.08C459.032 23.2667 459.705 23.36 460.345 23.36C462.652 23.36 463.805 22.4467 463.805 20.62C463.805 19.74 463.518 19.0667 462.945 18.6C462.385 18.1333 461.592 17.9 460.565 17.9C460.098 17.9 459.605 17.9467 459.085 18.04C458.565 18.1333 458.105 18.26 457.705 18.42L456.645 17.82L457.185 11.02H465.385V13.12H459.485L459.225 16.32C459.958 16.16 460.772 16.08 461.665 16.08C463.145 16.08 464.298 16.4867 465.125 17.3C465.952 18.1133 466.365 19.22 466.365 20.62C466.365 22.14 465.872 23.3 464.885 24.1C463.898 24.9 462.418 25.3 460.445 25.3ZM473.988 25.3C472.761 25.3 471.695 25.0067 470.788 24.42C469.881 23.8333 469.181 22.9933 468.688 21.9C468.208 20.8067 467.968 19.5133 467.968 18.02C467.968 16.5267 468.208 15.2333 468.688 14.14C469.168 13.0333 469.855 12.1867 470.748 11.6C471.655 11.0133 472.735 10.72 473.988 10.72C475.228 10.72 476.301 11.0133 477.208 11.6C478.115 12.1867 478.808 13.0333 479.288 14.14C479.768 15.2333 480.008 16.5267 480.008 18.02C480.008 19.5133 479.768 20.8067 479.288 21.9C478.808 22.9933 478.115 23.8333 477.208 24.42C476.301 25.0067 475.228 25.3 473.988 25.3ZM473.988 23.02C475.095 23.02 475.948 22.58 476.548 21.7C477.161 20.8067 477.468 19.5867 477.468 18.04C477.468 16.4933 477.168 15.2733 476.568 14.38C475.968 13.4867 475.115 13.04 474.008 13.04C472.901 13.04 472.041 13.4867 471.428 14.38C470.828 15.2733 470.528 16.4933 470.528 18.04C470.528 19.5867 470.828 20.8067 471.428 21.7C472.041 22.58 472.895 23.02 473.988 23.02ZM493.028 17.06V18.3H502.948V17.06H493.028ZM492.648 20.48V21.76H503.368V20.48H492.648ZM499.308 17.46V26.24H500.668V17.46H499.308ZM495.208 17.52V21.16C495.208 22.26 494.788 24.38 492.768 25.62C493.108 25.82 493.568 26.24 493.768 26.52C496.028 25 496.508 22.38 496.508 21.16V17.52H495.208ZM490.548 11.84V12.92H496.168V11.84H490.548ZM499.768 11.84V12.92H505.428V11.84H499.768ZM504.848 9.06V24.66C504.848 24.96 504.748 25.08 504.428 25.08C504.108 25.1 503.028 25.1 501.928 25.06C502.148 25.48 502.348 26.18 502.408 26.58C503.928 26.58 504.928 26.56 505.528 26.3C506.128 26.04 506.328 25.56 506.328 24.66V9.06H504.848ZM490.668 9.06V10.22H495.668V14.66H490.668V15.8H497.088V9.06H490.668ZM505.568 9.06H498.848V15.82H505.568V14.68H500.288V10.22H505.568V9.06ZM489.768 9.06V26.62H491.248V9.06H489.768ZM508.868 11.44V12.86H517.768V11.44H508.868ZM512.108 15.52V16.9H515.948V15.52H512.108ZM512.528 8.24V12.12H514.008V8.24H512.528ZM515.428 15.52V15.82C515.308 22.24 515.148 24.46 514.808 24.94C514.648 25.16 514.468 25.22 514.188 25.2C513.868 25.2 513.128 25.2 512.288 25.14C512.508 25.52 512.648 26.1 512.688 26.52C513.528 26.56 514.388 26.56 514.868 26.52C515.408 26.44 515.728 26.3 516.048 25.86C516.588 25.16 516.708 22.88 516.848 16.2C516.868 16 516.868 15.52 516.868 15.52H515.428ZM519.648 11.94V13.34H527.248V11.94H519.648ZM520.108 8.2C519.528 11.64 518.488 15 516.888 17.12C517.248 17.34 517.908 17.84 518.168 18.1C519.808 15.78 520.968 12.2 521.648 8.42L520.108 8.2ZM524.368 12.7C523.448 19.1 521.328 23.12 516.388 25.34C516.688 25.66 517.128 26.32 517.268 26.66C522.468 24.08 524.748 19.82 525.848 12.86L524.368 12.7ZM520.228 13.22L518.928 13.46C520.028 19.54 522.108 24.36 526.328 26.56C526.548 26.16 527.028 25.58 527.388 25.28C523.328 23.38 521.208 18.76 520.228 13.22ZM511.248 12.14V17.02C511.248 19.84 510.948 23.02 508.488 25.62C508.868 25.88 509.348 26.28 509.608 26.58C512.268 23.76 512.668 20.34 512.668 17.02V12.14H511.248ZM532.908 16.1H528.928V17.5H531.468V23.18H532.908V16.1ZM532.908 22.58H531.608C530.668 23.44 529.588 24.34 528.708 24.98L529.488 26.44C530.488 25.56 531.408 24.7 532.288 23.84C533.528 25.42 535.348 26.12 537.988 26.22C540.228 26.32 544.508 26.28 546.768 26.18C546.828 25.74 547.068 25.04 547.248 24.7C544.828 24.86 540.208 24.92 537.988 24.82C535.608 24.74 533.848 24.06 532.908 22.58ZM529.108 9.54C530.328 10.52 531.708 11.92 532.268 12.92L533.508 11.98C532.888 11 531.488 9.62 530.248 8.72L529.108 9.54ZM541.828 8.4C541.508 9.5 540.888 11.06 540.348 12.08L541.588 12.44C542.148 11.5 542.868 10.04 543.448 8.76L541.828 8.4ZM537.068 11.34H536.728L535.608 12.48V22.16H537.068V12.64H546.468V11.34H537.068ZM536.388 14.74V16H545.968V14.74H536.388ZM536.388 18.1V19.38H545.928V18.1H536.388ZM535.608 21.56V22.86H546.808V21.56H535.608ZM540.568 11.94V22.06H542.008V11.94H540.568ZM537.368 8.26C536.348 10.8 534.628 13.18 532.688 14.72C533.028 14.98 533.588 15.56 533.828 15.86C535.808 14.16 537.688 11.52 538.848 8.68L537.368 8.26ZM554.608 16.42V17.74H567.208V16.42H554.608ZM556.868 19.14V20.36H565.588V19.14H556.868ZM557.848 16.92C556.928 18.9 555.268 20.64 553.428 21.74C553.728 21.96 554.248 22.42 554.448 22.68C556.308 21.44 558.128 19.48 559.148 17.26L557.848 16.92ZM565.308 19.14V19.36C565.028 23.28 564.708 24.78 564.328 25.16C564.168 25.36 564.008 25.38 563.708 25.38C563.428 25.38 562.768 25.36 562.008 25.3C562.208 25.62 562.348 26.16 562.348 26.54C563.148 26.58 563.908 26.56 564.348 26.54C564.828 26.5 565.188 26.38 565.508 26.04C566.048 25.46 566.368 23.88 566.668 19.74C566.708 19.52 566.728 19.14 566.728 19.14H565.308ZM557.948 12.58H564.388V14.18H557.948V12.58ZM557.948 9.92H564.388V11.5H557.948V9.92ZM556.588 8.8V15.3H565.788V8.8H556.588ZM549.048 12.54V13.98H554.988V12.54H549.048ZM551.388 8.36V20.66H552.808V8.36H551.388ZM548.668 21.46L549.248 22.96C550.948 22.14 553.128 21.06 555.168 20.02L554.848 18.7C552.568 19.76 550.208 20.82 548.668 21.46ZM562.748 19.36C562.028 21.84 560.348 24.56 558.468 25.82C558.848 26.04 559.308 26.38 559.568 26.68C561.388 25.3 563.048 22.46 563.808 19.92L562.748 19.36ZM559.628 19.42C558.648 21.52 556.548 23.82 554.568 24.9C554.928 25.12 555.348 25.5 555.588 25.82C557.528 24.58 559.628 22.2 560.648 20.02L559.628 19.42ZM568.408 28.48C570.434 25.88 571.448 22.92 571.448 19.6C571.448 16.28 570.434 13.32 568.408 10.72H571.008C573.008 13.1733 574.008 16.1333 574.008 19.6C574.008 23.0667 573.008 26.0267 571.008 28.48H568.408Z" fill="white"/>
<path d="M244.56 162.176C242.16 159.232 240.96 155.68 240.96 151.52C240.96 147.36 242.16 143.808 244.56 140.864H247.68C245.248 143.984 244.032 147.536 244.032 151.52C244.032 155.504 245.248 159.056 247.68 162.176H244.56ZM253.316 157.112V158.864H266.828V157.112H253.316ZM252.5 149.696V159.92H254.324V151.424H265.892V159.872H267.788V149.696H252.5ZM257.324 137.768C256.22 140.336 254.252 143.864 252.668 146L254.228 146.672C255.836 144.56 257.852 141.248 259.292 138.464L257.324 137.768ZM263.084 141.656C265.556 143.672 268.292 146.576 269.492 148.568L271.028 147.368C269.78 145.376 266.948 142.544 264.5 140.6L263.084 141.656ZM249.668 145.208L249.788 147.056C254.372 146.864 261.62 146.552 268.364 146.192L268.46 144.464C261.62 144.776 254.228 145.088 249.668 145.208ZM273.692 143.936V145.736H280.748V143.936H273.692ZM285.716 138.296V156.08C285.716 158.672 286.388 159.392 288.62 159.392C289.1 159.392 291.98 159.392 292.484 159.392C294.836 159.392 295.316 157.832 295.532 153.44C295.028 153.32 294.26 152.96 293.804 152.6C293.636 156.584 293.468 157.616 292.364 157.616C291.74 157.616 289.34 157.616 288.812 157.616C287.78 157.616 287.564 157.376 287.564 156.128V138.296H285.716ZM279.86 138.296V159.728H281.708V138.296H279.86ZM293.54 141.992C291.74 143.648 288.764 145.688 286.1 147.152C286.364 147.536 286.724 148.16 286.868 148.568C289.58 147.08 292.652 145.256 294.86 143.552L293.54 141.992ZM272.948 155.072L273.788 156.872C275.852 156.008 278.564 154.88 281.084 153.776L280.748 152.144C277.892 153.272 274.892 154.424 272.948 155.072ZM307.124 137.744V142.232H309.02V137.744H307.124ZM307.148 142.808V159.992H308.996V142.808H307.148ZM297.356 141.176V142.928H318.98V141.176H297.356ZM299.828 146.216V156.944H301.628V147.968H315.596V146.216H299.828ZM314.9 146.216V154.664C314.9 155 314.78 155.096 314.348 155.12C313.94 155.144 312.476 155.144 310.844 155.096C311.108 155.6 311.396 156.32 311.468 156.872C313.532 156.872 314.876 156.848 315.716 156.56C316.508 156.248 316.748 155.696 316.748 154.664V146.216H314.9ZM322.46 142.136V153.56H324.26V143.912H339.932V153.44H341.804V142.136H322.46ZM323.42 150.296V152.048H341.012V150.296H323.42ZM331.148 137.84V159.896H333.02V137.84H331.148ZM346.292 139.616V141.368H366.164V139.616H346.292ZM356.684 147.776V149.552H365.204V147.776H356.684ZM345.38 157.112V158.864H366.956V157.112H345.38ZM355.82 140.264V157.976H357.692V140.264H355.82ZM348.668 145.784V158.048H350.516V145.784H348.668ZM378.524 143.432H384.044V146.192H378.524V143.432ZM376.844 142.136V147.488H385.82V142.136H376.844ZM375.74 150.44H378.932V153.992H375.74V150.44ZM374.204 149.12V155.312H380.516V149.12H374.204ZM383.684 150.44H387.044V153.992H383.684V150.44ZM382.148 149.12V155.312H388.628V149.12H382.148ZM370.388 138.896V159.944H372.14V140.504H390.452V138.896H370.388ZM371.54 157.112V158.768H391.076V157.112H371.54ZM394.46 142.136V153.56H396.26V143.912H411.932V153.44H413.804V142.136H394.46ZM395.42 150.296V152.048H413.012V150.296H395.42ZM403.148 137.84V159.896H405.02V137.84H403.148ZM427.1 138.344V156.92H428.996V138.344H427.1ZM418.676 143.576V159.632H420.5V143.576H418.676ZM435.86 143.552V159.536H437.708V143.552H435.86ZM419.564 155.84V157.688H436.676V155.84H419.564ZM441.596 140.264V141.968H462.74V140.264H441.596ZM446.54 149.888V151.352H457.892V149.888H446.54ZM446.036 153.8V155.312H458.324V153.8H446.036ZM451.196 150.584V159.464H452.924V150.584H451.196ZM442.892 144.488V159.896H444.692V146.168H460.244V144.488H442.892ZM459.62 144.488V157.832C459.62 158.216 459.524 158.336 459.092 158.36C458.66 158.384 457.172 158.384 455.66 158.312C455.924 158.768 456.212 159.464 456.308 159.944C458.276 159.944 459.644 159.92 460.412 159.656C461.204 159.392 461.468 158.888 461.468 157.832V144.488H459.62ZM447.74 146.96C448.34 147.848 448.964 149.072 449.204 149.888L450.716 149.336C450.452 148.544 449.828 147.368 449.18 146.504L447.74 146.96ZM455.084 146.48C454.676 147.512 453.932 149.024 453.332 150.008L454.628 150.44C455.252 149.528 455.996 148.184 456.62 146.936L455.084 146.48ZM451.148 137.864V145.616H453.14V137.864H451.148ZM476.876 157.424V159.008H484.796V157.424H476.876ZM478.052 140.312V141.872H484.388V140.312H478.052ZM476.18 151.232V159.872H477.836V152.792H483.884V159.8H485.612V151.232H476.18ZM483.74 140.312V140.624C482.18 145.64 477.932 149.504 473.684 151.136C474.044 151.472 474.524 152.096 474.74 152.504C479.3 150.56 483.692 146.624 485.54 140.72L484.388 140.24L484.052 140.312H483.74ZM478.46 137.84C477.548 140.792 475.892 143.6 473.924 145.4C474.356 145.664 475.052 146.24 475.34 146.552C477.332 144.56 479.108 141.512 480.188 138.248L478.46 137.84ZM477.98 141.296L476.804 142.28C478.268 145.736 481.436 150.08 486.38 152.216C486.62 151.76 487.124 151.064 487.508 150.728C482.588 148.856 479.372 144.728 477.98 141.296ZM466.292 148.496V157.208H467.804V148.496H466.292ZM467.9 140.432H472.412V144.656H467.9V140.432ZM466.292 138.848V146.24H474.092V138.848H466.292ZM469.676 145.448V156.416H471.308V145.448H469.676ZM465.044 157.016L465.38 158.768C467.9 158.144 471.356 157.304 474.644 156.488L474.476 154.88C471.02 155.696 467.42 156.536 465.044 157.016ZM470.252 149.72V151.328H474.308V149.72H470.252ZM492.668 144.44L489.116 147.008V144.176L493.148 141.224H495.692V158H492.668V144.44ZM501.645 144.44L498.093 147.008V144.176L502.125 141.224H504.669V158H501.645V144.44ZM509.805 140.264H513.381V143.912H509.805V140.264ZM508.173 138.752V145.448H515.085V138.752H508.173ZM507.069 147.128V148.712H516.117V147.128H507.069ZM509.325 147.848C508.965 149.672 508.413 152.072 507.933 153.608L509.565 153.92C509.997 152.336 510.573 149.84 510.981 147.848H509.325ZM509.517 150.848L509.109 152.384H513.981V150.848H509.517ZM513.309 150.848V151.136C513.021 155.864 512.661 157.712 512.181 158.192C511.989 158.408 511.749 158.456 511.389 158.432C511.005 158.432 510.069 158.432 509.037 158.336C509.325 158.768 509.517 159.464 509.541 159.92C510.549 159.968 511.533 159.968 512.061 159.944C512.709 159.872 513.117 159.728 513.525 159.296C514.197 158.576 514.557 156.608 514.941 151.592C514.965 151.328 514.989 150.848 514.989 150.848H513.309ZM522.357 139.496V140.984H528.093V139.496H522.357ZM517.533 142.616V144.08H528.117V142.616H517.533ZM521.493 137.84V143.384H523.221V137.84H521.493ZM516.765 142.616V148.76C516.765 151.856 516.549 156.032 514.461 159.08C514.869 159.248 515.541 159.752 515.829 160.064C518.061 156.872 518.397 152.12 518.397 148.76V142.616H516.765ZM518.973 146.576L519.141 147.896L526.245 147.128L526.077 145.88L518.973 146.576ZM521.589 144.248V148.544C521.589 150.08 522.021 150.464 523.749 150.464C524.109 150.464 526.029 150.464 526.389 150.464C527.685 150.464 528.141 149.984 528.285 148.136C527.853 148.04 527.229 147.824 526.893 147.608C526.821 148.952 526.725 149.12 526.197 149.12C525.789 149.12 524.253 149.12 523.965 149.12C523.293 149.12 523.197 149.048 523.197 148.544V144.248H521.589ZM527.613 142.616V142.856C527.469 144.128 527.181 145.76 526.941 146.768L528.333 147.104C528.621 146.024 529.005 144.296 529.293 142.832L528.165 142.544L527.877 142.616H527.613ZM520.341 151.52C520.197 155.048 519.669 157.376 517.053 158.72C517.413 159.008 517.893 159.608 518.109 160.016C521.037 158.408 521.733 155.6 521.901 151.52H520.341ZM523.869 151.496V157.376C523.869 158.48 523.965 158.84 524.349 159.176C524.709 159.464 525.261 159.56 525.789 159.56C526.053 159.56 526.845 159.56 527.157 159.56C527.613 159.56 528.141 159.464 528.429 159.32C528.789 159.104 529.053 158.84 529.197 158.384C529.317 157.976 529.437 156.776 529.461 155.648C529.005 155.504 528.405 155.192 528.093 154.904C528.093 155.984 528.069 156.92 527.997 157.304C527.949 157.568 527.829 157.736 527.685 157.808C527.565 157.88 527.253 157.928 527.037 157.928C526.749 157.928 526.365 157.928 526.173 157.928C525.933 157.928 525.741 157.88 525.597 157.808C525.477 157.76 525.429 157.592 525.429 157.424V151.496H523.869ZM537.453 158.36C535.501 158.36 533.949 157.928 532.797 157.064C531.645 156.184 531.069 154.944 531.069 153.344C531.069 152.304 531.325 151.432 531.837 150.728C532.365 150.024 533.061 149.536 533.925 149.264C533.205 148.912 532.645 148.416 532.245 147.776C531.845 147.12 531.645 146.376 531.645 145.544C531.645 144.088 532.173 142.944 533.229 142.112C534.285 141.28 535.693 140.864 537.453 140.864C539.229 140.864 540.637 141.28 541.677 142.112C542.733 142.944 543.261 144.088 543.261 145.544C543.261 146.376 543.061 147.12 542.661 147.776C542.261 148.416 541.701 148.912 540.981 149.264C541.845 149.536 542.533 150.024 543.045 150.728C543.573 151.432 543.837 152.304 543.837 153.344C543.837 154.944 543.261 156.184 542.109 157.064C540.973 157.928 539.421 158.36 537.453 158.36ZM537.453 148.4C538.349 148.4 539.069 148.168 539.613 147.704C540.157 147.224 540.429 146.584 540.429 145.784C540.429 144.984 540.149 144.336 539.589 143.84C539.045 143.344 538.333 143.096 537.453 143.096C536.573 143.096 535.861 143.344 535.317 143.84C534.773 144.336 534.501 144.984 534.501 145.784C534.501 146.584 534.773 147.224 535.317 147.704C535.861 148.168 536.573 148.4 537.453 148.4ZM537.453 156.176C538.493 156.176 539.317 155.912 539.925 155.384C540.533 154.84 540.837 154.096 540.837 153.152C540.837 152.24 540.525 151.52 539.901 150.992C539.277 150.464 538.461 150.2 537.453 150.2C536.445 150.2 535.629 150.464 535.005 150.992C534.381 151.52 534.069 152.24 534.069 153.152C534.069 154.096 534.373 154.84 534.981 155.384C535.605 155.912 536.429 156.176 537.453 156.176ZM553.325 152.408V153.872H567.941V152.408H553.325ZM559.829 137.84V150.512H561.509V137.84H559.829ZM556.733 140.744H564.725V144.608H556.733V140.744ZM555.149 139.52V145.808H566.357V139.52H555.149ZM556.253 148.256H565.133V149.768H556.253V148.256ZM554.645 147.032V150.968H566.813V147.032H554.645ZM558.605 150.488C557.573 152.408 556.061 154.904 554.981 156.464L556.517 156.968C557.597 155.36 559.109 152.864 560.189 150.872L558.605 150.488ZM563.477 153.152C562.733 156.512 560.549 158 553.085 158.624C553.373 158.984 553.709 159.608 553.805 159.992C561.725 159.2 564.245 157.304 565.157 153.152H563.477ZM556.085 156.416C559.661 157.28 564.245 158.816 566.573 159.992L567.605 158.72C565.133 157.52 560.549 156.056 557.069 155.312L556.085 156.416ZM553.517 141.92V143.36H556.037V143.24H565.493V143.36H567.989V141.92H565.493V142.04H556.037V141.92H553.517ZM546.029 143.048V144.752H553.541V143.048H546.029ZM549.245 137.84V159.896H550.901V137.84H549.245ZM549.221 144.056C548.597 147.488 547.061 151.64 545.525 153.824C545.813 154.232 546.245 154.904 546.461 155.384C548.117 152.984 549.629 148.232 550.325 144.44L549.221 144.056ZM550.757 146.408L550.013 147.128C550.589 148.064 552.221 150.896 552.725 152.072L553.685 150.752C553.253 150.08 551.285 147.056 550.757 146.408ZM569.285 162.176C571.717 159.056 572.933 155.504 572.933 151.52C572.933 147.536 571.717 143.984 569.285 140.864H572.405C574.805 143.808 576.005 147.36 576.005 151.52C576.005 155.68 574.805 159.232 572.405 162.176H569.285Z" fill="white"/>
</svg>
