<svg width="24" height="24" viewBox="0 0 24 24" fill="none" xmlns="http://www.w3.org/2000/svg">
<g clip-path="url(#clip0_46_7538)">
<path fill-rule="evenodd" clip-rule="evenodd" d="M14.25 18C13.1666 18 12.0938 17.7866 11.0929 17.372C10.0919 16.9574 9.18245 16.3497 8.41637 15.5836C7.65029 14.8175 7.04259 13.9081 6.62799 12.9071C6.21339 11.9062 6 10.8334 6 9.75C6 8.66659 6.21339 7.5938 6.62799 6.59286C7.04259 5.59193 7.65029 4.68245 8.41637 3.91637C9.18245 3.15029 10.0919 2.5426 11.0929 2.12799C12.0938 1.71339 13.1666 1.5 14.25 1.5C16.438 1.5 18.5365 2.36919 20.0836 3.91637C21.6308 5.46354 22.5 7.56196 22.5 9.75C22.5 11.938 21.6308 14.0365 20.0836 15.5836C18.5365 17.1308 16.438 18 14.25 18ZM4.5 9.75C4.5 12.3359 5.52723 14.8158 7.35571 16.6443C9.18419 18.4728 11.6641 19.5 14.25 19.5C16.8359 19.5 19.3158 18.4728 21.1443 16.6443C22.9728 14.8158 24 12.3359 24 9.75C24 7.16414 22.9728 4.68419 21.1443 2.85571C19.3158 1.02723 16.8359 0 14.25 0C11.6641 0 9.18419 1.02723 7.35571 2.85571C5.52723 4.68419 4.5 7.16414 4.5 9.75Z" fill="black"/>
<path d="M8.48438 17.6127C8.43937 17.6727 8.39137 17.7297 8.33737 17.7852L2.56237 23.5602C2.28111 23.8416 1.89956 23.9998 1.50165 24C1.10375 24.0001 0.722085 23.8422 0.440624 23.5609C0.159163 23.2796 0.000961304 22.8981 0.00082016 22.5002C0.00067997 22.1023 0.158612 21.7206 0.439875 21.4392L6.21487 15.6642C6.2685 15.6099 6.32617 15.5597 6.38738 15.5142C6.9758 16.3165 7.68289 17.0246 8.48438 17.6142V17.6127Z" fill="black"/>
</g>
<defs>
<clipPath id="clip0_46_7538">
<rect width="24" height="24" fill="white" transform="matrix(-1 0 0 1 24 0)"/>
</clipPath>
</defs>
</svg>
