<svg width="97" height="45" viewBox="0 0 97 45" fill="none" xmlns="http://www.w3.org/2000/svg">
<path d="M2 16.0783L21.8568 2H95V27.9337L72.8811 43H2V16.0783Z" stroke="white" stroke-width="4"/>
<path d="M34.9297 15V31H32.0313V17.8203H31.9375L28.1953 20.2109V17.5547L32.1719 15H34.9297ZM45.5 15V31H42.6016V17.8203H42.5078L38.7656 20.2109V17.5547L42.7422 15H45.5ZM56.0703 15V31H53.1719V17.8203H53.0781L49.3359 20.2109V17.5547L53.3125 15H56.0703ZM66.6406 15V31H63.7422V17.8203H63.6484L59.9063 20.2109V17.5547L63.8828 15H66.6406Z" fill="white"/>
</svg>
