<svg width="99" height="47" viewBox="0 0 99 47" fill="none" xmlns="http://www.w3.org/2000/svg">
<path d="M3 17.0783L22.8568 3H96V28.9337L73.8811 44H3V17.0783Z" stroke="url(#paint0_linear_1_7908)" stroke-width="6"/>
<path d="M35.9297 16V32H33.0313V18.8203H32.9375L29.1953 21.2109V18.5547L33.1719 16H35.9297ZM46.5 16V32H43.6016V18.8203H43.5078L39.7656 21.2109V18.5547L43.7422 16H46.5ZM57.0703 16V32H54.1719V18.8203H54.0781L50.3359 21.2109V18.5547L54.3125 16H57.0703ZM67.6406 16V32H64.7422V18.8203H64.6484L60.9063 21.2109V18.5547L64.8828 16H67.6406Z" fill="url(#paint1_linear_1_7908)"/>
<defs>
<linearGradient id="paint0_linear_1_7908" x1="-2.31428" y1="-14.9375" x2="108.587" y2="25.467" gradientUnits="userSpaceOnUse">
<stop stop-color="#2196F3"/>
<stop offset="1" stop-color="#0D47A1"/>
</linearGradient>
<linearGradient id="paint1_linear_1_7908" x1="25.5429" y1="-1.81251" x2="80.0589" y2="12.1326" gradientUnits="userSpaceOnUse">
<stop stop-color="#2196F3"/>
<stop offset="1" stop-color="#0D47A1"/>
</linearGradient>
</defs>
</svg>
