<svg width="250" height="249" viewBox="0 0 250 249" fill="none" xmlns="http://www.w3.org/2000/svg">
<path d="M0 146.893L250 0V11.2994L0 158.192V146.893Z" fill="url(#paint0_linear_75_310)"/>
<path d="M0 169.492L250 22.5989V33.8983L0 180.791V169.492Z" fill="url(#paint1_linear_75_310)"/>
<path d="M0 192.09L250 45.1978V56.4972L0 203.39V192.09Z" fill="url(#paint2_linear_75_310)"/>
<path d="M0 214.689L250 67.7966V79.0961L0 225.989V214.689Z" fill="url(#paint3_linear_75_310)"/>
<path d="M0 237.288L250 90.3954V101.695L0 248.587V237.288Z" fill="url(#paint4_linear_75_310)"/>
<defs>
<linearGradient id="paint0_linear_75_310" x1="-14.2857" y1="-69.2091" x2="302.966" y2="11.3201" gradientUnits="userSpaceOnUse">
<stop stop-color="#2196F3"/>
<stop offset="1" stop-color="#0D47A1"/>
</linearGradient>
<linearGradient id="paint1_linear_75_310" x1="-14.2857" y1="-46.6102" x2="302.966" y2="33.919" gradientUnits="userSpaceOnUse">
<stop stop-color="#2196F3"/>
<stop offset="1" stop-color="#0D47A1"/>
</linearGradient>
<linearGradient id="paint2_linear_75_310" x1="-14.2857" y1="-24.0113" x2="302.966" y2="56.5178" gradientUnits="userSpaceOnUse">
<stop stop-color="#2196F3"/>
<stop offset="1" stop-color="#0D47A1"/>
</linearGradient>
<linearGradient id="paint3_linear_75_310" x1="-14.2857" y1="-1.41246" x2="302.966" y2="79.1167" gradientUnits="userSpaceOnUse">
<stop stop-color="#2196F3"/>
<stop offset="1" stop-color="#0D47A1"/>
</linearGradient>
<linearGradient id="paint4_linear_75_310" x1="-14.2857" y1="21.1863" x2="302.966" y2="101.715" gradientUnits="userSpaceOnUse">
<stop stop-color="#2196F3"/>
<stop offset="1" stop-color="#0D47A1"/>
</linearGradient>
</defs>
</svg>
