<svg width="608" height="41" viewBox="0 0 608 41" fill="none" xmlns="http://www.w3.org/2000/svg">
<path d="M208 24.2273L244 0V1.86364L208 26.0909V24.2273Z" fill="white"/>
<path d="M208 27.9546L244 3.72729V5.59093L208 29.8182V27.9546Z" fill="white"/>
<path d="M208 31.6818L244 7.45453V9.31817L208 33.5454V31.6818Z" fill="white"/>
<path d="M208 35.4091L244 11.1818V13.0455L208 37.2727V35.4091Z" fill="white"/>
<path d="M208 39.1364L244 14.9091V16.7728L208 41V39.1364Z" fill="white"/>
<path d="M0 24.2273L36 0V1.86364L0 26.0909V24.2273Z" fill="white"/>
<path d="M0 27.9546L36 3.72729V5.59093L0 29.8182V27.9546Z" fill="white"/>
<path d="M0 31.6818L36 7.45453V9.31817L0 33.5454V31.6818Z" fill="white"/>
<path d="M0 35.4091L36 11.1818V13.0455L0 37.2727V35.4091Z" fill="white"/>
<path d="M0 39.1364L36 14.9091V16.7728L0 41V39.1364Z" fill="white"/>
<path d="M416 24.2273L452 0V1.86364L416 26.0909V24.2273Z" fill="white"/>
<path d="M416 27.9546L452 3.72729V5.59093L416 29.8182V27.9546Z" fill="white"/>
<path d="M416 31.6818L452 7.45453V9.31817L416 33.5454V31.6818Z" fill="white"/>
<path d="M416 35.4091L452 11.1818V13.0455L416 37.2727V35.4091Z" fill="white"/>
<path d="M416 39.1364L452 14.9091V16.7728L416 41V39.1364Z" fill="white"/>
<path d="M260 24.2273L296 0V1.86364L260 26.0909V24.2273Z" fill="white"/>
<path d="M260 27.9546L296 3.72729V5.59093L260 29.8182V27.9546Z" fill="white"/>
<path d="M260 31.6818L296 7.45453V9.31817L260 33.5454V31.6818Z" fill="white"/>
<path d="M260 35.4091L296 11.1818V13.0455L260 37.2727V35.4091Z" fill="white"/>
<path d="M260 39.1364L296 14.9091V16.7728L260 41V39.1364Z" fill="white"/>
<path d="M52 24.2273L88 0V1.86364L52 26.0909V24.2273Z" fill="white"/>
<path d="M52 27.9546L88 3.72729V5.59093L52 29.8182V27.9546Z" fill="white"/>
<path d="M52 31.6818L88 7.45453V9.31817L52 33.5454V31.6818Z" fill="white"/>
<path d="M52 35.4091L88 11.1818V13.0455L52 37.2727V35.4091Z" fill="white"/>
<path d="M52 39.1364L88 14.9091V16.7728L52 41V39.1364Z" fill="white"/>
<path d="M468 24.2273L504 0V1.86364L468 26.0909V24.2273Z" fill="white"/>
<path d="M468 27.9546L504 3.72729V5.59093L468 29.8182V27.9546Z" fill="white"/>
<path d="M468 31.6818L504 7.45453V9.31817L468 33.5454V31.6818Z" fill="white"/>
<path d="M468 35.4091L504 11.1818V13.0455L468 37.2727V35.4091Z" fill="white"/>
<path d="M468 39.1364L504 14.9091V16.7728L468 41V39.1364Z" fill="white"/>
<path d="M312 24.2273L348 0V1.86364L312 26.0909V24.2273Z" fill="white"/>
<path d="M312 27.9546L348 3.72729V5.59093L312 29.8182V27.9546Z" fill="white"/>
<path d="M312 31.6818L348 7.45453V9.31817L312 33.5454V31.6818Z" fill="white"/>
<path d="M312 35.4091L348 11.1818V13.0455L312 37.2727V35.4091Z" fill="white"/>
<path d="M312 39.1364L348 14.9091V16.7728L312 41V39.1364Z" fill="white"/>
<path d="M104 24.2273L140 0V1.86364L104 26.0909V24.2273Z" fill="white"/>
<path d="M104 27.9546L140 3.72729V5.59093L104 29.8182V27.9546Z" fill="white"/>
<path d="M104 31.6818L140 7.45453V9.31817L104 33.5454V31.6818Z" fill="white"/>
<path d="M104 35.4091L140 11.1818V13.0455L104 37.2727V35.4091Z" fill="white"/>
<path d="M104 39.1364L140 14.9091V16.7728L104 41V39.1364Z" fill="white"/>
<path d="M520 24.2273L556 0V1.86364L520 26.0909V24.2273Z" fill="white"/>
<path d="M520 27.9546L556 3.72729V5.59093L520 29.8182V27.9546Z" fill="white"/>
<path d="M520 31.6818L556 7.45453V9.31817L520 33.5454V31.6818Z" fill="white"/>
<path d="M520 35.4091L556 11.1818V13.0455L520 37.2727V35.4091Z" fill="white"/>
<path d="M520 39.1364L556 14.9091V16.7728L520 41V39.1364Z" fill="white"/>
<path d="M364 24.2273L400 0V1.86364L364 26.0909V24.2273Z" fill="white"/>
<path d="M364 27.9546L400 3.72729V5.59093L364 29.8182V27.9546Z" fill="white"/>
<path d="M364 31.6818L400 7.45453V9.31817L364 33.5454V31.6818Z" fill="white"/>
<path d="M364 35.4091L400 11.1818V13.0455L364 37.2727V35.4091Z" fill="white"/>
<path d="M364 39.1364L400 14.9091V16.7728L364 41V39.1364Z" fill="white"/>
<path d="M156 24.2273L192 0V1.86364L156 26.0909V24.2273Z" fill="white"/>
<path d="M156 27.9546L192 3.72729V5.59093L156 29.8182V27.9546Z" fill="white"/>
<path d="M156 31.6818L192 7.45453V9.31817L156 33.5454V31.6818Z" fill="white"/>
<path d="M156 35.4091L192 11.1818V13.0455L156 37.2727V35.4091Z" fill="white"/>
<path d="M156 39.1364L192 14.9091V16.7728L156 41V39.1364Z" fill="white"/>
<path d="M572 24.2273L608 0V1.86364L572 26.0909V24.2273Z" fill="white"/>
<path d="M572 27.9546L608 3.72729V5.59093L572 29.8182V27.9546Z" fill="white"/>
<path d="M572 31.6818L608 7.45453V9.31817L572 33.5454V31.6818Z" fill="white"/>
<path d="M572 35.4091L608 11.1818V13.0455L572 37.2727V35.4091Z" fill="white"/>
<path d="M572 39.1364L608 14.9091V16.7728L572 41V39.1364Z" fill="white"/>
</svg>
