<svg width="266" height="264" viewBox="0 0 266 264" fill="none" xmlns="http://www.w3.org/2000/svg">
<path d="M0 156L265.5 0V12L0 168V156Z" fill="url(#paint0_linear_35_258)"/>
<path d="M0 180L265.5 24V36L0 192V180Z" fill="url(#paint1_linear_35_258)"/>
<path d="M0 204L265.5 48V60L0 216V204Z" fill="url(#paint2_linear_35_258)"/>
<path d="M0 228L265.5 72V84L0 240V228Z" fill="url(#paint3_linear_35_258)"/>
<path d="M0 252L265.5 96V108L0 264V252Z" fill="url(#paint4_linear_35_258)"/>
<defs>
<linearGradient id="paint0_linear_35_258" x1="-15.1714" y1="-73.5" x2="321.75" y2="12.0219" gradientUnits="userSpaceOnUse">
<stop stop-color="#2196F3"/>
<stop offset="1" stop-color="#0D47A1"/>
</linearGradient>
<linearGradient id="paint1_linear_35_258" x1="-15.1714" y1="-49.5" x2="321.75" y2="36.0219" gradientUnits="userSpaceOnUse">
<stop stop-color="#2196F3"/>
<stop offset="1" stop-color="#0D47A1"/>
</linearGradient>
<linearGradient id="paint2_linear_35_258" x1="-15.1714" y1="-25.5" x2="321.75" y2="60.0219" gradientUnits="userSpaceOnUse">
<stop stop-color="#2196F3"/>
<stop offset="1" stop-color="#0D47A1"/>
</linearGradient>
<linearGradient id="paint3_linear_35_258" x1="-15.1714" y1="-1.50005" x2="321.75" y2="84.0219" gradientUnits="userSpaceOnUse">
<stop stop-color="#2196F3"/>
<stop offset="1" stop-color="#0D47A1"/>
</linearGradient>
<linearGradient id="paint4_linear_35_258" x1="-15.1714" y1="22.5" x2="321.75" y2="108.022" gradientUnits="userSpaceOnUse">
<stop stop-color="#2196F3"/>
<stop offset="1" stop-color="#0D47A1"/>
</linearGradient>
</defs>
</svg>
