<svg width="452" height="41" viewBox="0 0 452 41" fill="none" xmlns="http://www.w3.org/2000/svg">
<path d="M208 24.2273L244 0V1.86364L208 26.0909V24.2273Z" fill="url(#paint0_linear_1_531)"/>
<path d="M208 27.9546L244 3.72729V5.59093L208 29.8182V27.9546Z" fill="url(#paint1_linear_1_531)"/>
<path d="M208 31.6818L244 7.4545V9.31813L208 33.5454V31.6818Z" fill="url(#paint2_linear_1_531)"/>
<path d="M208 35.4091L244 11.1818V13.0454L208 37.2727V35.4091Z" fill="url(#paint3_linear_1_531)"/>
<path d="M208 39.1364L244 14.9091V16.7727L208 41V39.1364Z" fill="url(#paint4_linear_1_531)"/>
<path d="M0 24.2273L36 0V1.86364L0 26.0909V24.2273Z" fill="url(#paint5_linear_1_531)"/>
<path d="M0 27.9546L36 3.72729V5.59093L0 29.8182V27.9546Z" fill="url(#paint6_linear_1_531)"/>
<path d="M0 31.6818L36 7.4545V9.31813L0 33.5454V31.6818Z" fill="url(#paint7_linear_1_531)"/>
<path d="M0 35.4091L36 11.1818V13.0454L0 37.2727V35.4091Z" fill="url(#paint8_linear_1_531)"/>
<path d="M0 39.1364L36 14.9091V16.7727L0 41V39.1364Z" fill="url(#paint9_linear_1_531)"/>
<path d="M416 24.2273L452 0V1.86364L416 26.0909V24.2273Z" fill="url(#paint10_linear_1_531)"/>
<path d="M416 27.9546L452 3.72729V5.59093L416 29.8182V27.9546Z" fill="url(#paint11_linear_1_531)"/>
<path d="M416 31.6818L452 7.4545V9.31813L416 33.5454V31.6818Z" fill="url(#paint12_linear_1_531)"/>
<path d="M416 35.4091L452 11.1818V13.0454L416 37.2727V35.4091Z" fill="url(#paint13_linear_1_531)"/>
<path d="M416 39.1364L452 14.9091V16.7727L416 41V39.1364Z" fill="url(#paint14_linear_1_531)"/>
<path d="M260 24.2273L296 0V1.86364L260 26.0909V24.2273Z" fill="url(#paint15_linear_1_531)"/>
<path d="M260 27.9546L296 3.72729V5.59093L260 29.8182V27.9546Z" fill="url(#paint16_linear_1_531)"/>
<path d="M260 31.6818L296 7.4545V9.31813L260 33.5454V31.6818Z" fill="url(#paint17_linear_1_531)"/>
<path d="M260 35.4091L296 11.1818V13.0454L260 37.2727V35.4091Z" fill="url(#paint18_linear_1_531)"/>
<path d="M260 39.1364L296 14.9091V16.7727L260 41V39.1364Z" fill="url(#paint19_linear_1_531)"/>
<path d="M52 24.2273L88 0V1.86364L52 26.0909V24.2273Z" fill="url(#paint20_linear_1_531)"/>
<path d="M52 27.9546L88 3.72729V5.59093L52 29.8182V27.9546Z" fill="url(#paint21_linear_1_531)"/>
<path d="M52 31.6818L88 7.4545V9.31813L52 33.5454V31.6818Z" fill="url(#paint22_linear_1_531)"/>
<path d="M52 35.4091L88 11.1818V13.0454L52 37.2727V35.4091Z" fill="url(#paint23_linear_1_531)"/>
<path d="M52 39.1364L88 14.9091V16.7727L52 41V39.1364Z" fill="url(#paint24_linear_1_531)"/>
<path d="M312 24.2273L348 0V1.86364L312 26.0909V24.2273Z" fill="url(#paint25_linear_1_531)"/>
<path d="M312 27.9546L348 3.72729V5.59093L312 29.8182V27.9546Z" fill="url(#paint26_linear_1_531)"/>
<path d="M312 31.6818L348 7.4545V9.31813L312 33.5454V31.6818Z" fill="url(#paint27_linear_1_531)"/>
<path d="M312 35.4091L348 11.1818V13.0454L312 37.2727V35.4091Z" fill="url(#paint28_linear_1_531)"/>
<path d="M312 39.1364L348 14.9091V16.7727L312 41V39.1364Z" fill="url(#paint29_linear_1_531)"/>
<path d="M104 24.2273L140 0V1.86364L104 26.0909V24.2273Z" fill="url(#paint30_linear_1_531)"/>
<path d="M104 27.9546L140 3.72729V5.59093L104 29.8182V27.9546Z" fill="url(#paint31_linear_1_531)"/>
<path d="M104 31.6818L140 7.4545V9.31813L104 33.5454V31.6818Z" fill="url(#paint32_linear_1_531)"/>
<path d="M104 35.4091L140 11.1818V13.0454L104 37.2727V35.4091Z" fill="url(#paint33_linear_1_531)"/>
<path d="M104 39.1364L140 14.9091V16.7727L104 41V39.1364Z" fill="url(#paint34_linear_1_531)"/>
<path d="M364 24.2273L400 0V1.86364L364 26.0909V24.2273Z" fill="url(#paint35_linear_1_531)"/>
<path d="M364 27.9546L400 3.72729V5.59093L364 29.8182V27.9546Z" fill="url(#paint36_linear_1_531)"/>
<path d="M364 31.6818L400 7.4545V9.31813L364 33.5454V31.6818Z" fill="url(#paint37_linear_1_531)"/>
<path d="M364 35.4091L400 11.1818V13.0454L364 37.2727V35.4091Z" fill="url(#paint38_linear_1_531)"/>
<path d="M364 39.1364L400 14.9091V16.7727L364 41V39.1364Z" fill="url(#paint39_linear_1_531)"/>
<path d="M156 24.2273L192 0V1.86364L156 26.0909V24.2273Z" fill="url(#paint40_linear_1_531)"/>
<path d="M156 27.9546L192 3.72729V5.59093L156 29.8182V27.9546Z" fill="url(#paint41_linear_1_531)"/>
<path d="M156 31.6818L192 7.4545V9.31813L156 33.5454V31.6818Z" fill="url(#paint42_linear_1_531)"/>
<path d="M156 35.4091L192 11.1818V13.0454L156 37.2727V35.4091Z" fill="url(#paint43_linear_1_531)"/>
<path d="M156 39.1364L192 14.9091V16.7727L156 41V39.1364Z" fill="url(#paint44_linear_1_531)"/>
<defs>
<linearGradient id="paint0_linear_1_531" x1="205.943" y1="-11.4148" x2="252.294" y2="-1.14246" gradientUnits="userSpaceOnUse">
<stop stop-color="#2196F3"/>
<stop offset="1" stop-color="#0D47A1"/>
</linearGradient>
<linearGradient id="paint1_linear_1_531" x1="205.943" y1="-7.68749" x2="252.294" y2="2.58483" gradientUnits="userSpaceOnUse">
<stop stop-color="#2196F3"/>
<stop offset="1" stop-color="#0D47A1"/>
</linearGradient>
<linearGradient id="paint2_linear_1_531" x1="205.943" y1="-3.96028" x2="252.294" y2="6.31203" gradientUnits="userSpaceOnUse">
<stop stop-color="#2196F3"/>
<stop offset="1" stop-color="#0D47A1"/>
</linearGradient>
<linearGradient id="paint3_linear_1_531" x1="205.943" y1="-0.232987" x2="252.294" y2="10.0393" gradientUnits="userSpaceOnUse">
<stop stop-color="#2196F3"/>
<stop offset="1" stop-color="#0D47A1"/>
</linearGradient>
<linearGradient id="paint4_linear_1_531" x1="205.943" y1="3.49431" x2="252.294" y2="13.7666" gradientUnits="userSpaceOnUse">
<stop stop-color="#2196F3"/>
<stop offset="1" stop-color="#0D47A1"/>
</linearGradient>
<linearGradient id="paint5_linear_1_531" x1="-2.05714" y1="-11.4148" x2="44.2941" y2="-1.14246" gradientUnits="userSpaceOnUse">
<stop stop-color="#2196F3"/>
<stop offset="1" stop-color="#0D47A1"/>
</linearGradient>
<linearGradient id="paint6_linear_1_531" x1="-2.05714" y1="-7.68749" x2="44.2941" y2="2.58483" gradientUnits="userSpaceOnUse">
<stop stop-color="#2196F3"/>
<stop offset="1" stop-color="#0D47A1"/>
</linearGradient>
<linearGradient id="paint7_linear_1_531" x1="-2.05714" y1="-3.96028" x2="44.2941" y2="6.31203" gradientUnits="userSpaceOnUse">
<stop stop-color="#2196F3"/>
<stop offset="1" stop-color="#0D47A1"/>
</linearGradient>
<linearGradient id="paint8_linear_1_531" x1="-2.05714" y1="-0.232987" x2="44.2941" y2="10.0393" gradientUnits="userSpaceOnUse">
<stop stop-color="#2196F3"/>
<stop offset="1" stop-color="#0D47A1"/>
</linearGradient>
<linearGradient id="paint9_linear_1_531" x1="-2.05714" y1="3.49431" x2="44.2941" y2="13.7666" gradientUnits="userSpaceOnUse">
<stop stop-color="#2196F3"/>
<stop offset="1" stop-color="#0D47A1"/>
</linearGradient>
<linearGradient id="paint10_linear_1_531" x1="413.943" y1="-11.4148" x2="460.294" y2="-1.14246" gradientUnits="userSpaceOnUse">
<stop stop-color="#2196F3"/>
<stop offset="1" stop-color="#0D47A1"/>
</linearGradient>
<linearGradient id="paint11_linear_1_531" x1="413.943" y1="-7.68749" x2="460.294" y2="2.58483" gradientUnits="userSpaceOnUse">
<stop stop-color="#2196F3"/>
<stop offset="1" stop-color="#0D47A1"/>
</linearGradient>
<linearGradient id="paint12_linear_1_531" x1="413.943" y1="-3.96028" x2="460.294" y2="6.31203" gradientUnits="userSpaceOnUse">
<stop stop-color="#2196F3"/>
<stop offset="1" stop-color="#0D47A1"/>
</linearGradient>
<linearGradient id="paint13_linear_1_531" x1="413.943" y1="-0.232987" x2="460.294" y2="10.0393" gradientUnits="userSpaceOnUse">
<stop stop-color="#2196F3"/>
<stop offset="1" stop-color="#0D47A1"/>
</linearGradient>
<linearGradient id="paint14_linear_1_531" x1="413.943" y1="3.49431" x2="460.294" y2="13.7666" gradientUnits="userSpaceOnUse">
<stop stop-color="#2196F3"/>
<stop offset="1" stop-color="#0D47A1"/>
</linearGradient>
<linearGradient id="paint15_linear_1_531" x1="257.943" y1="-11.4148" x2="304.294" y2="-1.14246" gradientUnits="userSpaceOnUse">
<stop stop-color="#2196F3"/>
<stop offset="1" stop-color="#0D47A1"/>
</linearGradient>
<linearGradient id="paint16_linear_1_531" x1="257.943" y1="-7.68749" x2="304.294" y2="2.58483" gradientUnits="userSpaceOnUse">
<stop stop-color="#2196F3"/>
<stop offset="1" stop-color="#0D47A1"/>
</linearGradient>
<linearGradient id="paint17_linear_1_531" x1="257.943" y1="-3.96028" x2="304.294" y2="6.31203" gradientUnits="userSpaceOnUse">
<stop stop-color="#2196F3"/>
<stop offset="1" stop-color="#0D47A1"/>
</linearGradient>
<linearGradient id="paint18_linear_1_531" x1="257.943" y1="-0.232987" x2="304.294" y2="10.0393" gradientUnits="userSpaceOnUse">
<stop stop-color="#2196F3"/>
<stop offset="1" stop-color="#0D47A1"/>
</linearGradient>
<linearGradient id="paint19_linear_1_531" x1="257.943" y1="3.49431" x2="304.294" y2="13.7666" gradientUnits="userSpaceOnUse">
<stop stop-color="#2196F3"/>
<stop offset="1" stop-color="#0D47A1"/>
</linearGradient>
<linearGradient id="paint20_linear_1_531" x1="49.9429" y1="-11.4148" x2="96.2941" y2="-1.14246" gradientUnits="userSpaceOnUse">
<stop stop-color="#2196F3"/>
<stop offset="1" stop-color="#0D47A1"/>
</linearGradient>
<linearGradient id="paint21_linear_1_531" x1="49.9429" y1="-7.68749" x2="96.2941" y2="2.58483" gradientUnits="userSpaceOnUse">
<stop stop-color="#2196F3"/>
<stop offset="1" stop-color="#0D47A1"/>
</linearGradient>
<linearGradient id="paint22_linear_1_531" x1="49.9429" y1="-3.96028" x2="96.2941" y2="6.31203" gradientUnits="userSpaceOnUse">
<stop stop-color="#2196F3"/>
<stop offset="1" stop-color="#0D47A1"/>
</linearGradient>
<linearGradient id="paint23_linear_1_531" x1="49.9429" y1="-0.232987" x2="96.2941" y2="10.0393" gradientUnits="userSpaceOnUse">
<stop stop-color="#2196F3"/>
<stop offset="1" stop-color="#0D47A1"/>
</linearGradient>
<linearGradient id="paint24_linear_1_531" x1="49.9429" y1="3.49431" x2="96.2941" y2="13.7666" gradientUnits="userSpaceOnUse">
<stop stop-color="#2196F3"/>
<stop offset="1" stop-color="#0D47A1"/>
</linearGradient>
<linearGradient id="paint25_linear_1_531" x1="309.943" y1="-11.4148" x2="356.294" y2="-1.14246" gradientUnits="userSpaceOnUse">
<stop stop-color="#2196F3"/>
<stop offset="1" stop-color="#0D47A1"/>
</linearGradient>
<linearGradient id="paint26_linear_1_531" x1="309.943" y1="-7.68749" x2="356.294" y2="2.58483" gradientUnits="userSpaceOnUse">
<stop stop-color="#2196F3"/>
<stop offset="1" stop-color="#0D47A1"/>
</linearGradient>
<linearGradient id="paint27_linear_1_531" x1="309.943" y1="-3.96028" x2="356.294" y2="6.31203" gradientUnits="userSpaceOnUse">
<stop stop-color="#2196F3"/>
<stop offset="1" stop-color="#0D47A1"/>
</linearGradient>
<linearGradient id="paint28_linear_1_531" x1="309.943" y1="-0.232987" x2="356.294" y2="10.0393" gradientUnits="userSpaceOnUse">
<stop stop-color="#2196F3"/>
<stop offset="1" stop-color="#0D47A1"/>
</linearGradient>
<linearGradient id="paint29_linear_1_531" x1="309.943" y1="3.49431" x2="356.294" y2="13.7666" gradientUnits="userSpaceOnUse">
<stop stop-color="#2196F3"/>
<stop offset="1" stop-color="#0D47A1"/>
</linearGradient>
<linearGradient id="paint30_linear_1_531" x1="101.943" y1="-11.4148" x2="148.294" y2="-1.14246" gradientUnits="userSpaceOnUse">
<stop stop-color="#2196F3"/>
<stop offset="1" stop-color="#0D47A1"/>
</linearGradient>
<linearGradient id="paint31_linear_1_531" x1="101.943" y1="-7.68749" x2="148.294" y2="2.58483" gradientUnits="userSpaceOnUse">
<stop stop-color="#2196F3"/>
<stop offset="1" stop-color="#0D47A1"/>
</linearGradient>
<linearGradient id="paint32_linear_1_531" x1="101.943" y1="-3.96028" x2="148.294" y2="6.31203" gradientUnits="userSpaceOnUse">
<stop stop-color="#2196F3"/>
<stop offset="1" stop-color="#0D47A1"/>
</linearGradient>
<linearGradient id="paint33_linear_1_531" x1="101.943" y1="-0.232987" x2="148.294" y2="10.0393" gradientUnits="userSpaceOnUse">
<stop stop-color="#2196F3"/>
<stop offset="1" stop-color="#0D47A1"/>
</linearGradient>
<linearGradient id="paint34_linear_1_531" x1="101.943" y1="3.49431" x2="148.294" y2="13.7666" gradientUnits="userSpaceOnUse">
<stop stop-color="#2196F3"/>
<stop offset="1" stop-color="#0D47A1"/>
</linearGradient>
<linearGradient id="paint35_linear_1_531" x1="361.943" y1="-11.4148" x2="408.294" y2="-1.14246" gradientUnits="userSpaceOnUse">
<stop stop-color="#2196F3"/>
<stop offset="1" stop-color="#0D47A1"/>
</linearGradient>
<linearGradient id="paint36_linear_1_531" x1="361.943" y1="-7.68749" x2="408.294" y2="2.58483" gradientUnits="userSpaceOnUse">
<stop stop-color="#2196F3"/>
<stop offset="1" stop-color="#0D47A1"/>
</linearGradient>
<linearGradient id="paint37_linear_1_531" x1="361.943" y1="-3.96028" x2="408.294" y2="6.31203" gradientUnits="userSpaceOnUse">
<stop stop-color="#2196F3"/>
<stop offset="1" stop-color="#0D47A1"/>
</linearGradient>
<linearGradient id="paint38_linear_1_531" x1="361.943" y1="-0.232987" x2="408.294" y2="10.0393" gradientUnits="userSpaceOnUse">
<stop stop-color="#2196F3"/>
<stop offset="1" stop-color="#0D47A1"/>
</linearGradient>
<linearGradient id="paint39_linear_1_531" x1="361.943" y1="3.49431" x2="408.294" y2="13.7666" gradientUnits="userSpaceOnUse">
<stop stop-color="#2196F3"/>
<stop offset="1" stop-color="#0D47A1"/>
</linearGradient>
<linearGradient id="paint40_linear_1_531" x1="153.943" y1="-11.4148" x2="200.294" y2="-1.14246" gradientUnits="userSpaceOnUse">
<stop stop-color="#2196F3"/>
<stop offset="1" stop-color="#0D47A1"/>
</linearGradient>
<linearGradient id="paint41_linear_1_531" x1="153.943" y1="-7.68749" x2="200.294" y2="2.58483" gradientUnits="userSpaceOnUse">
<stop stop-color="#2196F3"/>
<stop offset="1" stop-color="#0D47A1"/>
</linearGradient>
<linearGradient id="paint42_linear_1_531" x1="153.943" y1="-3.96028" x2="200.294" y2="6.31203" gradientUnits="userSpaceOnUse">
<stop stop-color="#2196F3"/>
<stop offset="1" stop-color="#0D47A1"/>
</linearGradient>
<linearGradient id="paint43_linear_1_531" x1="153.943" y1="-0.232987" x2="200.294" y2="10.0393" gradientUnits="userSpaceOnUse">
<stop stop-color="#2196F3"/>
<stop offset="1" stop-color="#0D47A1"/>
</linearGradient>
<linearGradient id="paint44_linear_1_531" x1="153.943" y1="3.49431" x2="200.294" y2="13.7666" gradientUnits="userSpaceOnUse">
<stop stop-color="#2196F3"/>
<stop offset="1" stop-color="#0D47A1"/>
</linearGradient>
</defs>
</svg>
